<svg width="37" height="36" viewBox="0 0 37 36" fill="none" xmlns="http://www.w3.org/2000/svg">
<path fill-rule="evenodd" clip-rule="evenodd" d="M18.5 27.1437L25.7432 31.394C26.5036 31.8402 27.4274 31.1555 27.2217 30.2982L25.31 22.3312L31.6453 16.9955C32.3278 16.4206 31.9727 15.3074 31.0833 15.234L22.715 14.5437L19.4167 6.97777C19.0677 6.17726 17.9323 6.17726 17.5833 6.97777L14.285 14.5437L5.91674 15.234C5.02734 15.3074 4.67217 16.4206 5.35475 16.9955L11.69 22.3312L9.77832 30.2982C9.5726 31.1555 10.4964 31.8402 11.2568 31.394L18.5 27.1437Z" fill="#00A738"/>
<mask id="mask0_595_731" style="mask-type:luminance" maskUnits="userSpaceOnUse" x="4" y="6" width="29" height="26">
<path fill-rule="evenodd" clip-rule="evenodd" d="M18.5 27.1437L25.7432 31.394C26.5036 31.8402 27.4274 31.1555 27.2217 30.2982L25.31 22.3312L31.6453 16.9955C32.3278 16.4206 31.9727 15.3074 31.0833 15.234L22.715 14.5437L19.4167 6.97777C19.0677 6.17726 17.9323 6.17726 17.5833 6.97777L14.285 14.5437L5.91674 15.234C5.02734 15.3074 4.67217 16.4206 5.35475 16.9955L11.69 22.3312L9.77832 30.2982C9.5726 31.1555 10.4964 31.8402 11.2568 31.394L18.5 27.1437Z" fill="white"/>
</mask>
<g mask="url(#mask0_595_731)">
<rect x="0.5" y="0.5" width="36" height="35" fill="#0DAA41"/>
</g>
</svg>
