<svg width="36" height="36" viewBox="0 0 36 36" fill="none" xmlns="http://www.w3.org/2000/svg">
<path fill-rule="evenodd" clip-rule="evenodd" d="M18.0001 27.1437L24.9836 31.3587C25.7409 31.8158 26.6751 31.1368 26.4742 30.2754L24.6209 22.3312L30.792 16.9852C31.4606 16.406 31.1032 15.3078 30.2218 15.233L22.098 14.5437L18.9208 7.04737C18.5762 6.23434 17.4239 6.23434 17.0794 7.04737L13.9022 14.5437L5.77838 15.233C4.89696 15.3078 4.53954 16.406 5.20814 16.9852L11.3792 22.3312L9.52599 30.2754C9.32503 31.1368 10.2593 31.8158 11.0166 31.3587L18.0001 27.1437Z" fill="#00A738"/>
<mask id="mask0_595_733" style="mask-type:luminance" maskUnits="userSpaceOnUse" x="4" y="6" width="28" height="26">
<path fill-rule="evenodd" clip-rule="evenodd" d="M18.0001 27.1437L24.9836 31.3587C25.7409 31.8158 26.6751 31.1368 26.4742 30.2754L24.6209 22.3312L30.792 16.9852C31.4606 16.406 31.1032 15.3078 30.2218 15.233L22.098 14.5437L18.9208 7.04737C18.5762 6.23434 17.4239 6.23434 17.0794 7.04737L13.9022 14.5437L5.77838 15.233C4.89696 15.3078 4.53954 16.406 5.20814 16.9852L11.3792 22.3312L9.52599 30.2754C9.32503 31.1368 10.2593 31.8158 11.0166 31.3587L18.0001 27.1437Z" fill="white"/>
</mask>
<g mask="url(#mask0_595_733)">
<rect x="0.5" y="0.5" width="35" height="35" fill="#0DAA41"/>
</g>
</svg>
