<svg width="106" height="101" viewBox="0 0 106 101" fill="none" xmlns="http://www.w3.org/2000/svg">
<path d="M73.6844 0H32.9896C29.9999 0 27.1326 1.11179 25.0185 3.09079C22.9045 5.06979 21.7168 7.7539 21.7168 10.5526V44.2507C21.7168 47.0494 22.9045 49.7335 25.0185 51.7125C27.1326 53.6915 29.9999 54.8033 32.9896 54.8033H37.1793L51.9091 71.0368C52.1574 71.3083 52.4882 71.5026 52.8574 71.5937C53.2267 71.6848 53.6168 71.6684 53.9758 71.5468C54.3402 71.4257 54.6552 71.2015 54.8774 70.9053C55.0996 70.6091 55.2178 70.2555 55.2158 69.8936V54.8033H73.6844C76.6742 54.8033 79.5415 53.6915 81.6555 51.7125C83.7696 49.7335 84.9573 47.0494 84.9573 44.2507V10.5526C84.9573 7.7539 83.7696 5.06979 81.6555 3.09079C79.5415 1.11179 76.6742 0 73.6844 0ZM81.1996 44.2507C81.1996 46.1165 80.4079 47.9059 78.9985 49.2252C77.5891 50.5446 75.6776 51.2858 73.6844 51.2858H53.337C52.8387 51.2858 52.3609 51.4711 52.0085 51.8009C51.6562 52.1307 51.4582 52.5781 51.4582 53.0445V65.1097L39.4715 51.9013C39.2942 51.7093 39.075 51.555 38.8287 51.4488C38.5825 51.3426 38.3147 51.287 38.0436 51.2858H32.9896C30.9964 51.2858 29.0849 50.5446 27.6756 49.2252C26.2662 47.9059 25.4744 46.1165 25.4744 44.2507V10.5526C25.4744 8.68681 26.2662 6.8974 27.6756 5.57807C29.0849 4.25874 30.9964 3.51754 32.9896 3.51754H73.6844C75.6776 3.51754 77.5891 4.25874 78.9985 5.57807C80.4079 6.8974 81.1996 8.68681 81.1996 10.5526V44.2507Z" fill="url(#paint0_linear_919_455)"/>
<path d="M77.1225 12.751C77.1225 13.2174 76.9246 13.6648 76.5722 13.9946C76.2199 14.3244 75.742 14.5097 75.2437 14.5097H31.4301C30.9318 14.5097 30.4539 14.3244 30.1016 13.9946C29.7492 13.6648 29.5513 13.2174 29.5513 12.751C29.5513 12.2845 29.7492 11.8372 30.1016 11.5073C30.4539 11.1775 30.9318 10.9922 31.4301 10.9922H75.2437C75.742 10.9922 76.2199 11.1775 76.5722 11.5073C76.9246 11.8372 77.1225 12.2845 77.1225 12.751Z" fill="url(#paint1_linear_919_455)"/>
<path d="M77.1225 20.085C77.1225 20.5515 76.9246 20.9988 76.5722 21.3287C76.2199 21.6585 75.742 21.8438 75.2437 21.8438H31.4301C30.9318 21.8438 30.4539 21.6585 30.1016 21.3287C29.7492 20.9988 29.5513 20.5515 29.5513 20.085C29.5513 19.6186 29.7492 19.1712 30.1016 18.8414C30.4539 18.5116 30.9318 18.3263 31.4301 18.3263H75.2437C75.4911 18.3239 75.7366 18.3678 75.9657 18.4553C76.1947 18.5429 76.4029 18.6724 76.5778 18.8362C76.7528 18.9999 76.8911 19.1948 76.9846 19.4092C77.0782 19.6237 77.125 19.8534 77.1225 20.085Z" fill="url(#paint2_linear_919_455)"/>
<path d="M77.1225 27.4013C77.1225 27.8678 76.9246 28.3152 76.5722 28.645C76.2199 28.9748 75.742 29.1601 75.2437 29.1601H31.4301C30.9318 29.1601 30.4539 28.9748 30.1016 28.645C29.7492 28.3152 29.5513 27.8678 29.5513 27.4013C29.5513 26.9349 29.7492 26.4875 30.1016 26.1577C30.4539 25.8279 30.9318 25.6426 31.4301 25.6426H75.2437C75.742 25.6426 76.2199 25.8279 76.5722 26.1577C76.9246 26.4875 77.1225 26.9349 77.1225 27.4013Z" fill="url(#paint3_linear_919_455)"/>
<path d="M77.1225 34.7354C77.1225 35.2019 76.9245 35.6492 76.5722 35.9791C76.2199 36.3089 75.742 36.4942 75.2437 36.4942H47.0805C46.5822 36.4942 46.1043 36.3089 45.7519 35.9791C45.3996 35.6492 45.2017 35.2019 45.2017 34.7354C45.2017 34.269 45.3996 33.8216 45.7519 33.4918C46.1043 33.1619 46.5822 32.9767 47.0805 32.9767H75.2437C75.4911 32.9743 75.7366 33.0182 75.9656 33.1057C76.1947 33.1933 76.4028 33.3228 76.5778 33.4865C76.7528 33.6503 76.8911 33.8452 76.9846 34.0596C77.0781 34.274 77.125 34.5038 77.1225 34.7354Z" fill="url(#paint4_linear_919_455)"/>
<path d="M77.1225 42.0527C77.1225 42.5192 76.9245 42.9665 76.5722 43.2964C76.2199 43.6262 75.742 43.8115 75.2437 43.8115H47.0805C46.5822 43.8115 46.1043 43.6262 45.7519 43.2964C45.3996 42.9665 45.2017 42.5192 45.2017 42.0527C45.2017 41.5863 45.3996 41.1389 45.7519 40.8091C46.1043 40.4792 46.5822 40.2939 47.0805 40.2939H75.2437C75.742 40.2939 76.2199 40.4792 76.5722 40.8091C76.9245 41.1389 77.1225 41.5863 77.1225 42.0527Z" fill="url(#paint5_linear_919_455)"/>
<path d="M28.2548 75.715C28.1297 75.3637 27.8904 75.0578 27.5703 74.8402C27.2503 74.6226 26.8655 74.5041 26.4699 74.5015H18.7105L16.3056 67.5895C16.182 67.2376 15.943 66.9312 15.6225 66.714C15.302 66.4968 14.9164 66.3799 14.5207 66.3799C14.1251 66.3799 13.7395 66.4968 13.419 66.714C13.0985 66.9312 12.8594 67.2376 12.7359 67.5895L10.331 74.5015H2.57156C2.17395 74.5001 1.78615 74.6169 1.46395 74.835C1.14175 75.0531 0.901767 75.3613 0.778541 75.7151C0.655315 76.069 0.655197 76.4504 0.778205 76.8043C0.901212 77.1583 1.141 77.4666 1.46307 77.6848L7.73826 81.9586L5.35219 88.853C5.26026 89.1169 5.23637 89.3975 5.28248 89.6717C5.32859 89.9459 5.44338 90.206 5.61747 90.4308C5.79156 90.6555 6.02 90.8384 6.28412 90.9647C6.54823 91.0909 6.84051 91.1568 7.13705 91.157C7.53483 91.1571 7.92259 91.0402 8.24554 90.8228L14.5207 86.549L20.7959 90.8228C21.1159 91.0394 21.5006 91.1561 21.8954 91.1564C22.2902 91.1567 22.6751 91.0405 22.9954 90.8244C23.3157 90.6083 23.5551 90.3032 23.6797 89.9525C23.8042 89.6018 23.8076 89.2232 23.6893 88.8706L21.2844 81.9586L27.5784 77.6848C27.8964 77.4634 28.1325 77.1545 28.2538 76.8014C28.375 76.4482 28.3754 76.0684 28.2548 75.715ZM17.3014 81.8179L18.3347 84.8079L15.6292 82.9611C15.3086 82.7384 14.92 82.6182 14.5207 82.6182C14.1215 82.6182 13.7328 82.7384 13.4122 82.9611L10.7068 84.8079L11.7401 81.8179C11.8622 81.4674 11.8625 81.0896 11.741 80.7389C11.6195 80.3881 11.3824 80.0825 11.0637 79.8657L8.35827 78.019H11.7025C12.0981 78.0163 12.4829 77.8979 12.8029 77.6803C13.123 77.4627 13.3623 77.1568 13.4874 76.8054L14.5207 73.8155L15.5541 76.8054C15.6769 77.1581 15.9157 77.4653 16.2362 77.6833C16.5568 77.9012 16.9427 78.0187 17.3389 78.019H20.6832L17.9777 79.8657C17.6556 80.0797 17.4158 80.3852 17.294 80.7369C17.1721 81.0886 17.1747 81.4677 17.3014 81.8179Z" fill="url(#paint6_linear_919_455)"/>
<path d="M67.0712 84.7902C66.9484 84.4376 66.7096 84.1303 66.389 83.9124C66.0685 83.6944 65.6825 83.5769 65.2863 83.5766H57.5269L55.122 76.6647C54.9985 76.3128 54.7594 76.0064 54.4389 75.7892C54.1184 75.572 53.7328 75.4551 53.3371 75.4551C52.9415 75.4551 52.5559 75.572 52.2354 75.7892C51.9149 76.0064 51.6758 76.3128 51.5523 76.6647L49.1474 83.5766H41.388C40.9904 83.5753 40.6026 83.6921 40.2804 83.9102C39.9582 84.1283 39.7182 84.4365 39.5949 84.7903C39.4717 85.1442 39.4716 85.5256 39.5946 85.8795C39.7176 86.2335 39.9574 86.5418 40.2795 86.76L46.5735 91.0338L44.1686 97.9458C44.048 98.2992 44.0483 98.679 44.1696 99.0322C44.2909 99.3853 44.527 99.6942 44.845 99.9156C45.1692 100.13 45.5564 100.245 45.9535 100.245C46.3505 100.245 46.7378 100.13 47.0619 99.9156L53.3371 95.6418L59.6123 99.9156C59.9353 100.133 60.3231 100.25 60.7208 100.25C61.1186 100.25 61.5063 100.133 61.8293 99.9156C62.1473 99.6942 62.3834 99.3853 62.5047 99.0322C62.626 98.679 62.6263 98.2992 62.5057 97.9458L60.1008 91.0338L66.3948 86.76C66.7155 86.5407 66.9536 86.232 67.0752 85.8781C67.1967 85.5242 67.1953 85.1433 67.0712 84.7902ZM56.1178 90.9107L57.1511 93.883L54.4456 92.0363C54.1226 91.819 53.7349 91.7021 53.3371 91.7021C52.9394 91.7021 52.5517 91.819 52.2287 92.0363L49.5232 93.883L50.5565 90.9107C50.683 90.5578 50.6856 90.1762 50.5639 89.8218C50.4422 89.4674 50.2026 89.1587 49.8801 88.9409L47.1747 87.0942H50.5189C50.9151 87.0939 51.3011 86.9764 51.6217 86.7584C51.9422 86.5405 52.181 86.2333 52.3038 85.8806L53.3371 82.9083L54.3705 85.8806C54.4933 86.2333 54.7321 86.5405 55.0526 86.7584C55.3732 86.9764 55.7591 87.0939 56.1553 87.0942H59.4996L56.7941 88.9409C56.4717 89.1587 56.2321 89.4674 56.1104 89.8218C55.9887 90.1762 55.9913 90.5578 56.1178 90.9107Z" fill="url(#paint7_linear_919_455)"/>
<path d="M105.887 75.715C105.766 75.3611 105.528 75.0524 105.207 74.8341C104.886 74.6158 104.499 74.4993 104.102 74.5015H96.3423L93.9374 67.5895C93.8139 67.2376 93.5748 66.9312 93.2543 66.714C92.9338 66.4968 92.5482 66.3799 92.1526 66.3799C91.7569 66.3799 91.3713 66.4968 91.0508 66.714C90.7303 66.9312 90.4913 67.2376 90.3677 67.5895L87.9628 74.5015H80.2034C79.8058 74.5001 79.418 74.6169 79.0958 74.835C78.7736 75.0531 78.5336 75.3613 78.4104 75.7151C78.2872 76.069 78.287 76.4504 78.41 76.8043C78.533 77.1583 78.7728 77.4666 79.0949 77.6848L85.3889 81.9586L82.984 88.8706C82.8657 89.2232 82.8691 89.6018 82.9936 89.9525C83.1182 90.3032 83.3576 90.6083 83.6779 90.8244C83.9982 91.0405 84.3831 91.1567 84.7779 91.1564C85.1727 91.1561 85.5574 91.0394 85.8774 90.8228L92.1526 86.549L98.4278 90.8228C98.7507 91.0402 99.1385 91.1571 99.5363 91.157C99.9349 91.1625 100.324 91.0451 100.645 90.8228C100.968 90.6059 101.209 90.2973 101.331 89.9426C101.453 89.5878 101.449 89.2058 101.321 88.853L98.935 81.9586L105.21 77.6848C105.531 77.4655 105.769 77.1568 105.891 76.8029C106.012 76.449 106.011 76.0681 105.887 75.715ZM94.9332 81.8179L95.9665 84.8079L93.2611 82.9611C92.9394 82.7413 92.5508 82.6242 92.1526 82.627C91.7548 82.6268 91.367 82.7437 91.0441 82.9611L88.3386 84.8079L89.3719 81.8179C89.4986 81.4677 89.5012 81.0886 89.3793 80.7369C89.2575 80.3852 89.0177 80.0797 88.6956 79.8657L85.9901 78.019H89.3344C89.7306 78.0187 90.1165 77.9012 90.4371 77.6833C90.7577 77.4653 90.9964 77.1581 91.1192 76.8054L92.1526 73.8155L93.1859 76.8054C93.311 77.1568 93.5503 77.4627 93.8704 77.6803C94.1904 77.8979 94.5752 78.0163 94.9708 78.019H98.315L95.6096 79.8657C95.2909 80.0825 95.0538 80.3881 94.9323 80.7389C94.8108 81.0896 94.8111 81.4674 94.9332 81.8179Z" fill="url(#paint8_linear_919_455)"/>
<defs>
<linearGradient id="paint0_linear_919_455" x1="53.337" y1="0" x2="53.337" y2="71.6518" gradientUnits="userSpaceOnUse">
<stop stop-color="#B4AFAF" stop-opacity="0.7"/>
<stop offset="1" stop-color="#4E4646" stop-opacity="0.9"/>
</linearGradient>
<linearGradient id="paint1_linear_919_455" x1="53.3369" y1="10.9922" x2="53.3369" y2="14.5097" gradientUnits="userSpaceOnUse">
<stop stop-color="#B4AFAF" stop-opacity="0.7"/>
<stop offset="1" stop-color="#4E4646" stop-opacity="0.9"/>
</linearGradient>
<linearGradient id="paint2_linear_919_455" x1="53.3369" y1="18.3262" x2="53.3369" y2="21.8438" gradientUnits="userSpaceOnUse">
<stop stop-color="#B4AFAF" stop-opacity="0.7"/>
<stop offset="1" stop-color="#4E4646" stop-opacity="0.9"/>
</linearGradient>
<linearGradient id="paint3_linear_919_455" x1="53.3369" y1="25.6426" x2="53.3369" y2="29.1601" gradientUnits="userSpaceOnUse">
<stop stop-color="#B4AFAF" stop-opacity="0.7"/>
<stop offset="1" stop-color="#4E4646" stop-opacity="0.9"/>
</linearGradient>
<linearGradient id="paint4_linear_919_455" x1="61.1621" y1="32.9766" x2="61.1621" y2="36.4942" gradientUnits="userSpaceOnUse">
<stop stop-color="#B4AFAF" stop-opacity="0.7"/>
<stop offset="1" stop-color="#4E4646" stop-opacity="0.9"/>
</linearGradient>
<linearGradient id="paint5_linear_919_455" x1="61.1621" y1="40.2939" x2="61.1621" y2="43.8115" gradientUnits="userSpaceOnUse">
<stop stop-color="#B4AFAF" stop-opacity="0.7"/>
<stop offset="1" stop-color="#4E4646" stop-opacity="0.9"/>
</linearGradient>
<linearGradient id="paint6_linear_919_455" x1="14.5155" y1="66.3799" x2="14.5155" y2="91.157" gradientUnits="userSpaceOnUse">
<stop stop-color="#B4AFAF" stop-opacity="0.7"/>
<stop offset="1" stop-color="#4E4646" stop-opacity="0.9"/>
</linearGradient>
<linearGradient id="paint7_linear_919_455" x1="53.3339" y1="75.4551" x2="53.3339" y2="100.25" gradientUnits="userSpaceOnUse">
<stop stop-color="#B4AFAF" stop-opacity="0.7"/>
<stop offset="1" stop-color="#4E4646" stop-opacity="0.9"/>
</linearGradient>
<linearGradient id="paint8_linear_919_455" x1="92.1493" y1="66.3799" x2="92.1493" y2="91.1572" gradientUnits="userSpaceOnUse">
<stop stop-color="#B4AFAF" stop-opacity="0.7"/>
<stop offset="1" stop-color="#4E4646" stop-opacity="0.9"/>
</linearGradient>
</defs>
</svg>
