<svg width="37" height="32" viewBox="0 0 37 32" fill="none" xmlns="http://www.w3.org/2000/svg">
<path d="M8.86234 2.7657C9.25211 2.93222 9.5 3.28259 9.5 3.66701C9.5 4.77346 9.96817 5.4105 10.5547 6.1863L10.5973 6.24266C11.0962 6.90138 11.75 7.76486 11.75 9.00034C11.75 10.261 11.0342 11.3731 9.94423 12.033C10.231 12.2467 10.4851 12.5103 10.7034 12.8244C11.417 13.851 11.75 15.4197 11.75 17.6735C11.75 19.9563 11.405 22.6977 10.8431 24.8862C10.5637 25.9745 10.2176 26.9783 9.80408 27.7329C9.59897 28.107 9.34922 28.4725 9.03826 28.7583C8.73071 29.0409 8.25553 29.3402 7.625 29.3402C6.99448 29.3402 6.51929 29.0409 6.21175 28.7583C5.90078 28.4725 5.65103 28.107 5.44592 27.7329C5.03236 26.9783 4.68629 25.9745 4.40688 24.8862C3.84495 22.6977 3.5 19.9563 3.5 17.6735C3.5 15.4197 3.83299 13.851 4.54663 12.8244C4.76492 12.5103 5.01901 12.2467 5.30578 12.033C4.21577 11.3731 3.5 10.261 3.5 9.00034C3.5 8.50941 3.50051 7.66551 4.07512 6.5759C4.63744 5.50955 5.70599 4.28434 7.67222 2.88614C8.00992 2.64599 8.47256 2.59918 8.86234 2.7657ZM5.75 8.99866V9.00034C5.75 9.9208 6.58946 10.667 7.625 10.667C8.66054 10.667 9.5 9.9208 9.5 9.00034C9.5 8.41495 9.22277 8.01023 8.68721 7.30186L8.66888 7.27761C8.32558 6.82362 7.9201 6.28742 7.63072 5.59707C6.8158 6.33365 6.36575 6.94433 6.11239 7.42477C5.75 8.11198 5.75 8.60099 5.75 8.99866ZM6.46075 13.8757C6.08858 14.411 5.75 15.509 5.75 17.6735C5.75 19.809 6.07661 22.401 6.60047 24.4411C6.86396 25.4674 7.16434 26.3017 7.46861 26.8569C7.52462 26.959 7.57709 27.0449 7.625 27.1162C7.67291 27.0449 7.72538 26.959 7.78139 26.8569C8.08567 26.3017 8.38604 25.4674 8.64953 24.4411C9.17339 22.401 9.5 19.809 9.5 17.6735C9.5 15.509 9.16142 14.411 8.78926 13.8757C8.6199 13.6319 8.45179 13.5166 8.30158 13.4518C8.13983 13.3821 7.92602 13.3402 7.625 13.3402C7.32398 13.3402 7.11017 13.3821 6.94843 13.4518C6.79822 13.5166 6.6301 13.6319 6.46075 13.8757Z" fill="white"/>
<path d="M15.4997 19.8893C14.6922 19.7689 13.9212 19.5529 13.2018 19.2549C13.2333 18.7132 13.2497 18.1827 13.2497 17.6732C13.2497 17.4388 13.2463 17.2088 13.2392 16.9835C13.9159 17.3876 14.6794 17.6859 15.4997 17.8513V14C15.4997 12.8954 16.507 12 17.7496 12H23.7496C23.7496 8.68629 20.7276 6 16.9996 6C15.4571 6 14.0353 6.45997 12.8985 7.23403C12.5993 6.49747 12.1715 5.93327 11.8739 5.54072L11.8135 5.46096C13.2794 4.54065 15.0685 4 16.9996 4C21.9702 4 25.9996 7.58172 25.9996 12H31.2496C32.4924 12 33.4996 12.8954 33.4996 14V26C33.4996 27.1045 32.4924 28 31.2496 28H17.7496C16.507 28 15.4997 27.1045 15.4997 26V19.8893ZM17.7496 19.9727V26H31.2496V14H25.7161C24.7773 17.2427 21.6087 19.6896 17.7496 19.9727ZM23.3656 14H17.7496V17.9633C20.3583 17.7071 22.5189 16.1293 23.3656 14Z" fill="white"/>
</svg>
