<svg width="435" height="318" viewBox="0 0 435 318" fill="none" xmlns="http://www.w3.org/2000/svg">
<path d="M295.708 191.249L301.229 233.834C301.494 235.689 301.065 237.572 300.014 239.159C298.964 240.746 297.359 241.936 295.478 242.523L49.3828 303.573C48.542 303.756 47.6684 303.761 46.8253 303.587C45.9822 303.413 45.1907 303.063 44.5082 302.564C43.8256 302.065 43.2691 301.429 42.8789 300.702C42.4887 299.975 42.2746 299.175 42.2521 298.36L21.0925 132.373C20.8287 130.519 21.2593 128.636 22.3098 127.05C23.3604 125.465 24.9647 124.276 26.8451 123.69L81.1255 110.218L80.6655 106.959L26.1551 120.648C24.3149 121.082 11.436 125.426 12.3561 136.072L33.5157 302.058C34.234 306.475 37.3045 310.097 42.4843 310.097C44.6977 310.097 25.7146 313.03 290.884 248.83C292.72 248.386 305.603 243.833 304.683 233.406L299.163 190.388L295.708 191.249Z" fill="white"/>
<path d="M297.729 71.2031C297.729 71.2031 120.861 114.864 120.171 114.864C118.58 114.858 117.046 114.303 115.86 113.302C114.673 112.301 113.916 110.924 113.73 109.432L111.43 91.6172L85.4354 98.1438C84.1423 98.4564 83.0126 99.2004 82.2548 100.238C81.497 101.276 81.1623 102.538 81.3124 103.791L97.8717 233.929C98.0195 235.166 98.6372 236.31 99.6101 237.149C100.583 237.988 101.845 238.465 103.162 238.492C103.622 238.492 307.63 188.089 307.63 188.089C308.927 187.78 310.061 187.037 310.822 185.998C311.583 184.959 311.92 183.695 311.771 182.44L297.729 71.2031ZM126.841 189.61C143.262 177.199 187.912 158.574 227.119 134.86C227.573 134.603 228.088 134.457 228.617 134.433C229.145 134.409 229.672 134.509 230.15 134.724C230.628 134.939 231.043 135.263 231.356 135.665C231.67 136.068 231.874 136.538 231.949 137.033L236.09 169.83C236.232 171.001 235.913 172.18 235.192 173.142C234.471 174.104 233.4 174.782 232.184 175.044L132.592 200.038C125.17 201.655 125.973 192.826 125.691 192.216C125.726 191.244 126.135 190.318 126.841 189.61ZM122.701 167.882L117.87 129.428C117.728 128.257 118.048 127.078 118.768 126.115C119.489 125.153 120.56 124.476 121.776 124.213L221.366 99.2302C222.078 99.0824 222.813 99.0732 223.528 99.2029C224.243 99.3327 224.923 99.5988 225.525 99.985C226.128 100.371 226.641 100.869 227.033 101.449C227.425 102.029 227.687 102.678 227.805 103.356L228.955 113.134C229.033 113.626 228.968 114.13 228.765 114.589C228.562 115.049 228.23 115.447 227.805 115.741C193.688 137.785 140.66 161.534 127.297 170.266C126.831 170.429 126.333 170.495 125.837 170.46C125.341 170.425 124.859 170.29 124.423 170.064C123.988 169.838 123.608 169.527 123.311 169.15C123.014 168.774 122.806 168.341 122.701 167.882Z" fill="#C1E691"/>
<path d="M289.319 103.16C275.81 105.403 266.588 117.299 268.761 129.678C270.935 142.058 283.693 150.304 297.203 148.061C310.712 145.818 319.935 133.922 317.761 121.543C315.588 109.163 302.829 100.917 289.319 103.16ZM296.677 145.068C284.969 147.012 273.912 139.865 272.028 129.136C270.144 118.407 278.137 108.097 289.845 106.153C301.553 104.209 312.611 111.356 314.494 122.085C316.378 132.814 308.386 143.124 296.677 145.068Z" fill="white"/>
<path d="M302.483 122.49L294.804 123.765L293.657 117.232C293.507 116.379 292.574 115.822 291.571 115.989C290.569 116.155 289.878 116.981 290.028 117.834L291.175 124.368L283.496 125.643C282.494 125.809 281.803 126.635 281.953 127.488C282.103 128.341 283.037 128.897 284.039 128.731L291.717 127.456L292.864 133.99C293.014 134.842 293.948 135.399 294.95 135.232C295.952 135.066 296.643 134.24 296.494 133.387L295.346 126.853L303.025 125.578C304.027 125.412 304.718 124.586 304.568 123.733C304.419 122.88 303.485 122.324 302.483 122.49Z" fill="white"/>
<path fill-rule="evenodd" clip-rule="evenodd" d="M89.9452 262.304C95.1454 258.963 95.6204 258.645 94.0686 257.754C93.2331 257.276 92.3965 256.802 91.5572 256.33C89.6412 255.252 89.1013 254.948 89.1258 254.702C89.1353 254.606 89.2311 254.519 89.3649 254.397L89.4069 254.359L90.3474 253.498C96.4921 247.876 97.0914 247.327 97.0146 246.91C97.0049 246.863 96.9909 246.816 96.9727 246.772L96.96 246.739C96.7066 246.038 96.2047 246.075 95.1113 246.157C94.7835 246.181 94.4027 246.21 93.9593 246.224C91.9309 246.286 90.3878 246.349 89.2145 246.397C86.4054 246.512 85.7142 246.541 85.5638 246.263C85.5147 246.172 85.5234 246.048 85.5345 245.885L85.54 245.8C85.6049 244.773 85.6918 243.747 85.8005 242.724C85.9597 241.145 86.0444 240.313 85.7039 240.046C85.3263 239.747 84.4213 240.15 82.5109 241C81.8221 241.307 81.0018 241.672 80.028 242.084C79.9829 242.102 79.9409 242.122 79.9029 242.14C79.781 242.195 79.6868 242.239 79.6028 242.224C79.3178 242.172 79.15 241.445 78.4129 238.249C78.222 237.425 77.9932 236.435 77.7161 235.252C77.7003 235.184 77.6876 235.116 77.6742 235.049C77.6077 234.703 77.5443 234.376 77.1485 234.232C76.698 234.068 76.4359 234.346 76.1778 234.618C76.1335 234.665 76.0899 234.712 76.0448 234.755C75.2009 235.587 74.3635 236.426 73.5326 237.271C72.1922 238.63 71.8035 239.024 71.5454 238.95C71.4408 238.918 71.3577 238.809 71.2397 238.654L71.2287 238.639C70.8162 238.096 70.4064 237.551 69.9991 237.003C67.6587 233.865 67.0982 233.113 66.1655 235.005C65.3595 236.641 64.784 237.874 64.3564 238.789C63.5362 240.547 63.2622 241.132 62.9535 241.153C62.7991 241.162 62.636 241.032 62.3913 240.836C61.4972 240.138 60.6052 239.438 59.7153 238.734C56.1849 235.951 54.436 234.571 53.8549 234.972C53.284 235.365 53.839 237.474 54.9395 241.653C55.2475 242.824 55.5991 244.159 55.9799 245.663C56.1921 246.502 56.1121 246.614 55.2855 246.52C54.1074 246.387 52.9262 246.391 51.7449 246.394C51.1273 246.396 50.5098 246.397 49.893 246.379C48.6753 246.345 49.2905 248.154 49.8344 249.177C50.2731 250.002 50.6301 250.644 50.9104 251.15C51.9064 252.943 51.927 252.981 51.2018 253.249C49.2889 253.957 47.4569 254.857 45.6256 255.757L45.3018 255.916C44.168 256.471 44.1522 257.142 45.2147 257.854C46.719 258.863 47.8226 259.565 48.612 260.068C49.9382 260.913 50.3799 261.194 50.3538 261.418C50.3404 261.529 50.2113 261.626 50.0173 261.771C43.1015 266.975 43.1166 267.078 43.187 267.496L43.191 267.52L43.1942 267.537C43.1989 267.568 43.2029 267.597 43.2116 267.623C43.3106 267.922 43.9542 268.031 51.7924 269.362L51.9112 269.382C52.7005 269.517 52.6483 269.674 52.0917 271.365C51.8415 272.124 51.49 273.193 51.0664 274.707C50.5731 276.47 51.6491 276.296 54.9649 275.761C55.5856 275.66 56.2839 275.548 57.0646 275.432C57.9117 275.308 57.9149 275.438 57.9608 277.775C57.975 278.486 57.9925 279.402 58.04 280.577C58.1001 282.091 59.4746 281.305 59.9378 281.041C59.9853 281.013 60.0248 280.991 60.0502 280.978C61.081 280.458 61.9068 280.029 62.5718 279.683C65.2249 278.303 65.3287 278.249 65.6929 279.097C68.1457 284.805 68.8558 285.668 69.8661 284.229C70.7172 283.018 71.353 282.081 71.8391 281.367C72.9309 279.76 73.261 279.274 73.5579 279.294C73.687 279.303 73.8097 279.407 73.9855 279.556L73.9981 279.566L74.6854 280.148L74.6885 280.15C78.6765 283.528 79.3677 284.113 79.8063 282.186C80.2354 280.297 80.4951 278.974 80.674 278.067C80.9298 276.762 81.0185 276.314 81.2013 276.269C81.2963 276.244 81.4183 276.331 81.6027 276.462L81.6384 276.488C81.655 276.5 88.6888 279.729 90.406 280.826L81.6027 276.462C83.1957 277.482 91.5546 279.355 92.4627 278.658C92.8776 278.339 93.6276 279.006 90.406 274.707C87.7466 271.171 89.6451 273.504 87.0507 269.918C87.9786 269.806 88.8645 269.726 89.6737 269.653C92.8169 269.369 94.7954 269.192 93.5761 267.62C92.5815 266.329 91.5234 265.09 90.406 263.909C89.4116 262.846 89.2952 262.722 89.9452 262.304ZM64.0706 272.531H64.05C63.29 272.361 63.4412 271.824 65.1521 268.477C76.3821 246.506 76.4343 246.546 77.0083 246.987C77.04 247.011 77.0732 247.037 77.1112 247.061C77.5562 247.34 77.5119 247.738 77.2973 248.154C64.7167 272.528 64.6525 272.528 64.0706 272.531ZM61.773 258.191C57.0289 258.095 57.4018 265.357 62.2069 265.467C66.8805 265.573 66.4466 258.285 61.773 258.191ZM62.3573 264.008C59.5957 263.869 58.9995 259.549 61.7857 259.628C64.7602 259.712 65.0959 264.146 62.3573 264.008ZM82.6819 256.823C82.7112 258.634 80.986 260.473 79.2798 260.449C75.0646 260.391 74.5373 252.918 79.2798 252.926C81.2528 252.929 82.6447 254.522 82.6819 256.823ZM81.3003 256.917C81.271 260.097 77.2973 259.683 77.3519 256.503C77.401 253.644 81.3304 253.637 81.3003 256.917Z" fill="#C1E691"/>
<path d="M111.942 80.0123L110.101 66.1084C109.985 65.2515 110.2 64.3837 110.708 63.6647C111.215 62.9458 111.98 62.424 112.862 62.1954C126.389 58.9157 124.949 59.1534 125.283 59.1534C125.717 59.0223 126.203 58.6656 126.203 57.6345C126.159 57.477 126.082 57.3293 125.977 57.2001C125.871 57.0708 125.74 56.9626 125.59 56.8818C125.44 56.8009 125.275 56.749 125.104 56.729C124.933 56.709 124.759 56.7214 124.593 56.7654L112.402 59.8053C110.865 60.1792 109.526 61.0703 108.637 62.311C107.747 63.5516 107.367 65.0566 107.569 66.543L109.407 80.4469C108.971 81.6973 111.942 82.2425 111.942 80.0123Z" fill="white"/>
<path d="M157.262 50.0315C157.309 50.2107 157.397 50.3781 157.519 50.5221C157.641 50.6662 157.795 50.7836 157.97 50.8662C158.145 50.9487 158.337 50.9946 158.532 51.0005C158.727 51.0065 158.922 50.9724 159.102 50.9006C162.188 50.2283 277.046 21.7216 316.192 12.2289C316.709 12.0926 317.252 12.0663 317.781 12.1516C318.31 12.237 318.812 12.432 319.252 12.7227C319.692 13.0134 320.058 13.3925 320.324 13.8327C320.59 14.2729 320.749 14.7634 320.791 15.2688L324.48 43.9477C324.549 44.2859 324.756 44.5852 325.055 44.7817C325.355 44.9783 325.724 45.0566 326.084 44.9999C326.444 44.9433 326.766 44.7562 326.982 44.4785C327.198 44.2008 327.29 43.8544 327.24 43.5131L323.551 14.8342C323.46 13.9599 323.168 13.1149 322.695 12.3585C322.222 11.6021 321.58 10.9528 320.813 10.456C320.046 9.95922 319.173 9.6271 318.255 9.48294C317.338 9.33879 316.398 9.38611 315.502 9.62157C291.539 15.361 319.562 9.39198 158.412 48.2933C158.208 48.3219 158.013 48.392 157.84 48.4987C157.667 48.6055 157.521 48.7464 157.412 48.9116C157.303 49.0769 157.233 49.2626 157.207 49.456C157.181 49.6493 157.199 49.8457 157.262 50.0315Z" fill="white"/>
<path d="M138.166 95.0045C141.54 96.4292 152.811 80.2254 152.887 80.0143C154.406 76.3964 139.164 65.2393 136.786 65.2393C132.292 65.2393 122.446 79.2518 122.757 82.185C124.536 86.6803 133.542 93.0531 138.166 95.0045Z" fill="white"/>
<path d="M163.922 70.2364C168.559 69.2012 158.744 72.1816 198.642 61.7624C199.13 61.5951 199.532 61.2583 199.766 60.8206C200 60.383 200.049 59.8774 199.903 59.407C199.756 58.9366 199.425 58.5366 198.977 58.2887C198.529 58.0408 197.998 57.9636 197.492 58.0728C174.924 63.9639 165.625 67.3359 162.531 68.0676C161.622 68.2808 162.34 70.5992 163.922 70.2364Z" fill="white"/>
<path d="M167.142 83.2717C171.725 82.3473 168.518 83.038 180.711 80.4471C181.142 80.3189 181.514 80.0553 181.765 79.7C182.016 79.3447 182.131 78.9191 182.091 78.4936C182.014 78.0801 181.789 77.704 181.454 77.4274C181.12 77.1509 180.695 76.9905 180.251 76.9727C175.457 77.7595 170.757 78.9955 166.222 80.6623C165.901 80.8214 165.653 81.0865 165.526 81.4071C165.399 81.7277 165.401 82.0813 165.532 82.4005C165.561 82.5661 165.629 82.7234 165.73 82.8611C165.832 82.9988 165.964 83.1136 166.118 83.1969C166.272 83.2803 166.444 83.3303 166.621 83.3432C166.798 83.3562 166.976 83.3317 167.142 83.2717Z" fill="white"/>
<path d="M226.25 55.4632C278.858 43.0393 289.918 38.9622 302.851 35.4755C304.392 35.1051 305.865 34.5192 307.222 33.7372C307.476 33.5715 307.672 33.3362 307.781 33.0628C307.89 32.7895 307.909 32.4911 307.834 32.2076C307.759 31.9241 307.594 31.669 307.361 31.4764C307.128 31.2838 306.839 31.1629 306.532 31.1299C305.184 31.1874 303.859 31.4821 302.626 31.999C287.321 36.8181 241.362 48.7439 225.808 53.2904C225.53 53.3714 225.295 53.5461 225.145 53.7811C224.996 54.0162 224.944 54.2949 224.999 54.5641C225.054 54.8332 225.212 55.0737 225.443 55.2396C225.674 55.4056 225.961 55.4851 226.25 55.4632Z" fill="white"/>
<path d="M306.061 48.0758C295.56 50.8164 233.149 65.3455 226.02 68.7153C224.872 69.1499 225.333 70.8881 226.71 70.8881C231.675 70.4966 266.011 60.3152 307.217 51.335C307.659 51.1786 308.019 50.8663 308.222 50.4639C308.425 50.0616 308.455 49.6006 308.305 49.1781C308.155 48.7555 307.837 48.4045 307.418 48.1989C307 47.9933 306.513 47.9492 306.061 48.0758Z" fill="white"/>
<path d="M322.85 73.713L312.732 76.1031C312.316 76.2274 311.968 76.5 311.761 76.8629C311.555 77.2258 311.507 77.6504 311.626 78.0465C311.746 78.4426 312.025 78.7789 312.403 78.9841C312.781 79.1892 313.229 79.2469 313.652 79.145L323.77 76.7549C324.715 76.5594 325.704 76.715 326.531 77.1895C326.981 77.4189 327.351 77.7669 327.596 78.1912C327.841 78.6154 327.95 79.0977 327.911 79.5795L329.521 92.6143C329.55 93.0085 329.729 93.3795 330.025 93.659C330.321 93.9384 330.714 94.1076 331.131 94.1352C331.375 94.1439 331.619 94.1048 331.846 94.0205C332.073 93.9362 332.28 93.8085 332.453 93.6453C332.625 93.4822 332.761 93.2871 332.85 93.0723C332.939 92.8575 332.98 92.6276 332.971 92.397L331.361 79.3623C331.229 78.4487 330.898 77.5708 330.39 76.7834C329.882 75.996 329.208 75.3159 328.409 74.7858C327.61 74.2556 326.704 73.8867 325.748 73.7022C324.792 73.5176 323.805 73.5213 322.85 73.713Z" fill="white"/>
<path d="M252.241 91.0972L243.963 93.0527C242.356 93.4878 240.964 94.448 240.038 95.7621C239.111 97.0762 238.708 98.6587 238.902 100.227L240.282 111.306C240.311 111.701 240.491 112.072 240.786 112.351C241.082 112.63 241.475 112.8 241.892 112.827C242.136 112.836 242.38 112.797 242.607 112.712C242.835 112.628 243.041 112.5 243.214 112.337C243.387 112.174 243.522 111.979 243.611 111.764C243.7 111.549 243.742 111.32 243.732 111.089L242.352 100.01C242.272 99.2404 242.481 98.4688 242.944 97.8312C243.407 97.1937 244.094 96.7311 244.883 96.5251L253.161 94.5696C255.346 94.051 254.248 90.6196 252.241 91.0972Z" fill="white"/>
<path d="M249.021 153.881C249.028 153.653 248.984 153.425 248.893 153.214C248.802 153.002 248.665 152.81 248.49 152.652C248.316 152.493 248.108 152.37 247.881 152.292C247.654 152.213 247.411 152.181 247.17 152.196C246.928 152.211 246.693 152.274 246.478 152.38C246.264 152.487 246.076 152.634 245.925 152.813C245.775 152.993 245.666 153.199 245.605 153.421C245.544 153.642 245.533 153.873 245.572 154.099L247.183 166.701C247.304 167.62 247.633 168.503 248.149 169.29C248.665 170.077 249.354 170.75 250.171 171.262C251.015 171.77 251.961 172.11 252.951 172.259C253.94 172.409 254.951 172.365 255.921 172.131L267.192 169.306C267.619 169.191 267.98 168.92 268.195 168.554C268.411 168.187 268.463 167.755 268.341 167.352C268.219 166.949 267.933 166.608 267.545 166.404C267.157 166.201 266.699 166.151 266.272 166.266L255.001 169.089C254.056 169.285 253.068 169.129 252.241 168.654C251.791 168.425 251.421 168.078 251.176 167.654C250.931 167.23 250.821 166.748 250.861 166.266L249.021 153.881Z" fill="white"/>
<path d="M425.09 222.312L400.02 198.63C399.357 197.949 398.989 197.058 398.989 196.132C398.989 195.207 399.357 194.316 400.02 193.635L404.85 189.072C405.637 188.257 406.229 187.292 406.586 186.243C406.943 185.193 407.057 184.083 406.921 182.988C406.732 181.893 406.253 180.861 405.53 179.987C404.806 179.113 403.86 178.427 402.78 177.991L346.664 153.442C346.042 153.108 345.354 152.897 344.642 152.822C343.931 152.747 343.211 152.81 342.526 153.007C342.526 150.958 342.743 153.274 340.916 138.884C340.921 138.657 340.877 138.43 340.785 138.22C340.692 138.009 340.555 137.819 340.381 137.662C340.207 137.504 340 137.382 339.773 137.305C339.547 137.227 339.305 137.195 339.065 137.21C338.824 137.225 338.589 137.287 338.376 137.393C338.162 137.498 337.974 137.645 337.824 137.823C337.673 138.001 337.564 138.206 337.502 138.426C337.44 138.647 337.428 138.877 337.465 139.102L339.075 151.704C339.156 152.473 338.947 153.245 338.484 153.882C338.021 154.52 337.334 154.983 336.545 155.188L324.354 158.23C324.141 158.284 323.941 158.378 323.766 158.506C323.592 158.635 323.447 158.795 323.339 158.977C323.232 159.16 323.165 159.361 323.141 159.569C323.118 159.776 323.14 159.986 323.204 160.186C323.313 160.525 323.523 160.829 323.808 161.06C324.093 161.29 324.442 161.44 324.814 161.49C325.465 161.49 324.163 161.76 336.775 158.665C336.551 160.005 336.793 161.377 337.465 162.576L363.462 215.578C363.945 216.588 364.682 217.472 365.608 218.153C366.535 218.833 367.624 219.29 368.779 219.482C369.935 219.675 371.124 219.598 372.241 219.259C373.358 218.919 374.371 218.327 375.191 217.533L380.021 212.971C380.742 212.344 381.686 211.996 382.666 211.996C383.646 211.996 384.591 212.344 385.312 212.971L410.382 236.652C411.732 237.905 413.549 238.607 415.441 238.607C417.334 238.607 419.15 237.905 420.5 236.652L425.791 231.655C426.855 230.268 427.368 228.571 427.24 226.863C427.112 225.154 426.351 223.543 425.09 222.312ZM422.79 229.486L417.495 234.487C417.179 234.827 416.79 235.099 416.354 235.285C415.918 235.472 415.444 235.568 414.966 235.568C414.487 235.568 414.014 235.472 413.578 235.285C413.142 235.099 412.753 234.827 412.437 234.487L387.137 211.023C385.786 209.77 383.969 209.068 382.076 209.068C380.183 209.068 378.366 209.77 377.016 211.023L372.185 215.586C371.756 215.965 371.248 216.257 370.694 216.444C370.14 216.631 369.552 216.709 368.965 216.672C368.371 216.585 367.808 216.361 367.327 216.02C366.846 215.679 366.462 215.232 366.207 214.717L340.226 161.697C339.848 161.069 339.71 160.338 339.836 159.625C339.961 158.913 340.343 158.264 340.916 157.786C341.429 157.254 342.116 156.901 342.866 156.783C343.617 156.665 344.388 156.788 345.056 157.134L401.174 181.684C401.717 181.923 402.188 182.285 402.547 182.737C402.906 183.189 403.141 183.718 403.232 184.277C403.323 184.835 403.267 185.407 403.069 185.94C402.87 186.473 402.536 186.952 402.094 187.334L397.264 191.896C395.937 193.171 395.194 194.888 395.194 196.676C395.194 198.463 395.937 200.18 397.264 201.455L422.334 225.136C422.734 225.343 423.074 225.638 423.325 225.997C423.577 226.355 423.732 226.766 423.777 227.194C423.822 227.622 423.756 228.054 423.585 228.453C423.414 228.852 423.142 229.205 422.794 229.482L422.79 229.486Z" fill="white"/>
<path fill-rule="evenodd" clip-rule="evenodd" d="M102.591 63.605C94.8034 47.0626 95.155 47.4519 94.5471 47.1636C90.3111 45.152 52.8817 27.3823 42.5252 22.6131C42.2335 22.4787 41.8951 22.4544 41.5837 22.5454C41.2724 22.6364 41.0134 22.8354 40.8634 23.0988C38.5368 27.1927 31.3352 39.013 29.1584 42.5784C29.0775 42.7114 29.0272 42.8579 29.0106 43.009C28.9939 43.1602 29.0112 43.3128 29.0614 43.4577C29.1116 43.6026 29.1937 43.7368 29.3028 43.8521C29.4118 43.9675 29.5455 44.0616 29.6958 44.1289L83.0414 67.9053C83.606 68.1566 83.0897 68.1173 101.666 65.151C101.849 65.1216 102.023 65.0551 102.174 64.9563C102.326 64.8576 102.45 64.7291 102.539 64.5806C102.628 64.4321 102.679 64.2673 102.687 64.0986C102.696 63.9299 102.662 63.7615 102.589 63.6062L102.591 63.605ZM40.8275 36.5919C39.3095 39.3967 38.2817 41.1917 37.8137 41.9546C37.6657 42.1969 37.4194 42.3774 37.127 42.458C36.8347 42.5386 36.5192 42.513 36.2473 42.3865C35.9761 42.2544 35.7724 42.0317 35.6794 41.7656C35.5865 41.4996 35.6117 41.2112 35.7495 40.9617C35.7855 40.8944 40.7433 31.6702 42.2948 29.0012C42.4305 28.7641 42.6616 28.5834 42.9402 28.4963C43.2188 28.4092 43.5237 28.4225 43.7919 28.5333C46.989 29.9133 50.5724 31.402 51.407 31.7218C52.3382 32.0774 52.3159 33.3295 51.3377 33.6593C50.3805 33.9846 50.066 33.1735 43.9095 30.8097C43.5616 31.4716 42.7864 32.9379 41.8899 34.6151C43.4922 35.2344 46.3538 36.7344 47.7938 37.2841C48.7176 37.6084 48.7869 38.8234 47.8421 39.2104C47.7041 39.2678 47.5548 39.2997 47.4029 39.3041C47.2511 39.3085 47.0999 39.2855 46.958 39.2363C43.6581 37.8339 42.3592 37.2909 40.8275 36.5919ZM57.0509 51.0476C56.6435 51.9036 55.2963 51.8722 54.9223 51.0241C54.5955 50.2488 51.9741 43.4041 51.7822 42.9037C50.9452 44.4742 50.1019 46.0418 49.2525 47.6067C49.1165 47.8574 48.8773 48.0496 48.5864 48.142C48.2955 48.2343 47.9761 48.2194 47.6973 48.1004C47.5588 48.0408 47.4347 47.957 47.3321 47.8539C47.2295 47.7507 47.1504 47.6302 47.0993 47.4993C47.0482 47.3684 47.0262 47.2296 47.0345 47.0909C47.0427 46.9523 47.0811 46.8165 47.1475 46.6913C48.1356 44.7235 52.5127 36.5269 53.7386 34.1428C53.8601 33.9021 54.0778 33.7121 54.3478 33.6112C54.6178 33.5102 54.92 33.5057 55.1935 33.5987C58.9268 34.9192 63.0551 37.3301 61.8849 40.8013C60.8522 43.7575 57.1673 43.5612 53.8835 42.6412C57.1623 50.7683 57.3555 50.407 57.0521 51.0465H57.0509V51.0476ZM70.5068 50.6235C65.3483 48.5088 65.3916 48.5682 64.245 48.0465C63.117 50.1703 63.0625 50.4754 61.9518 52.3243C63.5652 52.975 68.0749 54.6568 68.4686 54.7432C69.8245 55.0371 69.5471 56.8131 68.2383 56.8131C67.925 56.8131 68.1937 56.9095 59.9347 53.7032C59.7978 53.6481 59.6744 53.5688 59.5717 53.47C59.469 53.3711 59.3891 53.2548 59.3367 53.1276C59.2842 53.0005 59.2602 52.8652 59.2662 52.7296C59.2722 52.5939 59.3079 52.4608 59.3713 52.3378C59.6289 51.7185 64.9075 41.5855 66.558 39.2093C66.6443 39.0817 66.7598 38.9725 66.8967 38.8889C67.0336 38.8053 67.1888 38.7494 67.3517 38.7249C67.5146 38.7004 67.6814 38.708 67.8408 38.747C68.0001 38.7861 68.1484 38.8558 68.2755 38.9513C70.4102 39.3417 73.8252 41.4419 75.6739 42.3731C75.9508 42.4756 76.1732 42.6714 76.2944 42.9192C76.4156 43.167 76.4262 43.4478 76.324 43.7025C76.2179 43.9623 76.0031 44.1737 75.7261 44.2909C75.4491 44.4081 75.1322 44.4217 74.8443 44.3286C74.2202 44.0357 70.4188 42.1397 68.0699 41.1985C67.9634 41.3982 65.898 45.0241 65.2975 46.1101C67.3703 46.956 69.3292 47.9422 71.3871 48.6883C71.5294 48.7402 71.6587 48.8174 71.7676 48.9152C71.8766 49.013 71.9629 49.1295 72.0216 49.2578C72.0803 49.3862 72.1101 49.5239 72.1094 49.6628C72.1087 49.8018 72.0774 49.9392 72.0174 50.0671C71.9587 50.1936 71.873 50.3084 71.7653 50.4049C71.6575 50.5013 71.5298 50.5776 71.3895 50.6293C71.2492 50.681 71.099 50.7071 70.9475 50.7061C70.796 50.7051 70.6462 50.6771 70.5068 50.6235ZM83.7757 56.6066C83.0884 56.8579 83.055 56.6167 79.6635 55.2794C78.585 54.8531 77.5597 54.4492 76.6286 54.0251C75.477 56.1938 75.4386 56.4664 74.3366 58.3029C75.95 58.9536 80.4597 60.6354 80.8534 60.7206C82.3839 61.0527 81.7747 63.0946 80.3284 62.7591C80.139 62.7142 75.8708 61.0594 72.3195 59.6806C72.1828 59.6256 72.0596 59.5465 71.957 59.4479C71.8544 59.3493 71.7745 59.2332 71.7219 59.1063C71.6693 58.9794 71.6452 58.8443 71.6509 58.7089C71.6565 58.5735 71.6919 58.4404 71.7549 58.3175C72.0137 57.6949 77.2972 47.5518 78.9428 45.1879C79.0291 45.0604 79.1446 44.9511 79.2815 44.8675C79.4184 44.7839 79.5736 44.728 79.7365 44.7035C79.8994 44.679 80.0662 44.6866 80.2256 44.7256C80.385 44.7647 80.5332 44.8344 80.6603 44.9299C82.7975 45.3214 86.2212 47.4272 88.0575 48.3517C88.33 48.46 88.546 48.6593 88.6606 48.9081C88.7752 49.1569 88.7797 49.4362 88.6732 49.6879C88.5666 49.9397 88.3571 50.1446 88.0882 50.2601C87.8193 50.3756 87.5117 50.3929 87.2291 50.3083C86.6075 50.0166 82.7925 48.115 80.4547 47.1782C80.3482 47.3779 78.2829 51.0039 77.6823 52.0899C78.6023 52.4646 79.4815 52.8584 80.3346 53.2398C83.9911 54.8755 84.1248 54.6119 84.4096 55.2446C84.5248 55.5014 84.5227 55.7891 84.4038 56.0445C84.2849 56.2999 84.059 56.5021 83.7757 56.6066ZM93.9217 60.9663C92.7194 62.6424 90.2256 63.108 88.3633 62.0119C86.4948 60.9114 85.9587 58.6608 87.1598 56.9858C88.3608 55.3108 90.8484 54.8408 92.7169 55.9402C94.578 57.0363 95.1228 59.2913 93.9217 60.9663Z" fill="#C1E691"/>
</svg>
