<svg width="455" height="340" viewBox="0 0 455 340" fill="none" xmlns="http://www.w3.org/2000/svg">
<path d="M307.312 204.67L313.087 250.479C313.365 252.474 312.915 254.5 311.817 256.207C310.718 257.914 309.039 259.194 307.071 259.826L49.6352 325.497C48.7556 325.695 47.8418 325.7 46.9598 325.513C46.0779 325.325 45.2499 324.949 44.5359 324.413C43.822 323.876 43.2398 323.192 42.8316 322.409C42.4234 321.627 42.1995 320.767 42.176 319.89L20.0412 141.336C19.7652 139.341 20.2157 137.316 21.3147 135.61C22.4136 133.905 24.0918 132.626 26.059 131.995L82.8407 117.504L82.3595 113.998L25.3371 128.723C23.4121 129.19 9.93969 133.863 10.9022 145.316L33.0369 323.868C33.7883 328.62 37.0004 332.516 42.4188 332.516C44.7342 332.516 24.8763 335.671 302.266 266.61C304.186 266.132 317.663 261.235 316.701 250.018L310.926 203.744L307.312 204.67Z" fill="white"/>
<path d="M309.426 75.5352C309.426 75.5352 124.407 122.502 123.686 122.502C122.022 122.495 120.417 121.898 119.176 120.821C117.935 119.745 117.142 118.264 116.948 116.658L114.542 97.4948L87.3497 104.515C85.997 104.852 84.8153 105.652 84.0225 106.769C83.2298 107.885 82.8797 109.243 83.0367 110.59L100.359 250.581C100.514 251.911 101.16 253.142 102.178 254.045C103.195 254.947 104.516 255.461 105.893 255.49C106.375 255.49 319.784 201.271 319.784 201.271C321.14 200.938 322.326 200.138 323.123 199.021C323.919 197.904 324.272 196.544 324.115 195.194L309.426 75.5352ZM130.664 202.907C147.841 189.556 194.548 169.521 235.563 144.011C236.038 143.735 236.576 143.578 237.129 143.552C237.682 143.527 238.233 143.634 238.733 143.866C239.233 144.097 239.667 144.445 239.995 144.878C240.324 145.311 240.537 145.816 240.616 146.349L244.947 181.629C245.096 182.888 244.761 184.157 244.007 185.192C243.254 186.227 242.133 186.956 240.861 187.238L136.679 214.124C128.916 215.864 129.756 206.367 129.46 205.71C129.497 204.664 129.925 203.668 130.664 202.907ZM126.332 179.534L121.279 138.168C121.13 136.909 121.465 135.64 122.219 134.605C122.973 133.57 124.093 132.841 125.365 132.559L229.545 105.684C230.289 105.525 231.058 105.515 231.806 105.655C232.554 105.794 233.265 106.081 233.895 106.496C234.526 106.911 235.062 107.447 235.472 108.071C235.882 108.694 236.157 109.393 236.28 110.123L237.483 120.641C237.565 121.17 237.496 121.712 237.284 122.206C237.072 122.7 236.725 123.129 236.28 123.445C200.591 147.158 145.119 172.705 131.14 182.098C130.652 182.273 130.132 182.344 129.613 182.307C129.094 182.27 128.59 182.124 128.134 181.881C127.678 181.638 127.282 181.303 126.971 180.898C126.66 180.493 126.442 180.028 126.332 179.534Z" fill="#C1E691"/>
<path d="M300.629 109.911C286.497 112.324 276.85 125.121 279.123 138.438C281.397 151.754 294.744 160.625 308.876 158.212C323.008 155.8 332.655 143.003 330.382 129.686C328.108 116.369 314.761 107.498 300.629 109.911ZM308.326 154.992C296.078 157.083 284.511 149.395 282.541 137.854C280.57 126.313 288.931 115.223 301.179 113.132C313.427 111.04 324.994 118.728 326.964 130.27C328.935 141.811 320.574 152.901 308.326 154.992Z" fill="white"/>
<path d="M314.399 130.706L306.367 132.077L305.167 125.049C305.01 124.131 304.033 123.533 302.985 123.712C301.937 123.891 301.214 124.78 301.37 125.697L302.57 132.725L294.538 134.097C293.49 134.276 292.767 135.164 292.923 136.082C293.08 136.999 294.057 137.598 295.105 137.419L303.138 136.047L304.338 143.075C304.494 143.993 305.471 144.591 306.519 144.412C307.568 144.233 308.291 143.345 308.134 142.427L306.934 135.399L314.966 134.028C316.015 133.849 316.738 132.96 316.581 132.042C316.424 131.125 315.448 130.527 314.399 130.706Z" fill="white"/>
<path fill-rule="evenodd" clip-rule="evenodd" d="M92.0674 281.105C97.5071 277.511 98.004 277.169 96.3807 276.211C95.5068 275.696 94.6316 275.186 93.7536 274.679C91.7493 273.519 91.1845 273.191 91.2102 272.927C91.2201 272.824 91.3203 272.73 91.4603 272.599L91.5042 272.558L92.4881 271.632C98.9159 265.584 99.5429 264.994 99.4625 264.545C99.4524 264.494 99.4377 264.445 99.4187 264.397L99.4054 264.361C99.1404 263.607 98.6153 263.647 97.4715 263.736C97.1286 263.762 96.7303 263.792 96.2665 263.807C94.1446 263.874 92.5304 263.942 91.3029 263.994C88.3644 264.118 87.6414 264.148 87.484 263.849C87.4327 263.751 87.4418 263.619 87.4534 263.442L87.4592 263.351C87.5271 262.246 87.6179 261.143 87.7317 260.043C87.8981 258.344 87.9868 257.449 87.6306 257.161C87.2356 256.84 86.2889 257.274 84.2904 258.188C83.5699 258.519 82.7118 258.911 81.6931 259.353C81.6459 259.374 81.602 259.394 81.5623 259.415C81.4347 259.474 81.3362 259.521 81.2484 259.504C80.9502 259.449 80.7746 258.667 80.0035 255.229C79.8039 254.342 79.5646 253.277 79.2747 252.004C79.2582 251.932 79.2449 251.859 79.2308 251.786C79.1612 251.415 79.095 251.062 78.6809 250.908C78.2096 250.732 77.9355 251.03 77.6655 251.323C77.6191 251.374 77.5736 251.423 77.5263 251.471C76.6436 252.365 75.7676 253.267 74.8984 254.177C73.4962 255.639 73.0896 256.063 72.8196 255.983C72.7102 255.949 72.6233 255.831 72.4999 255.664L72.4883 255.648C72.0569 255.064 71.6281 254.478 71.2021 253.889C68.7538 250.513 68.1675 249.704 67.1918 251.739C66.3487 253.499 65.7466 254.825 65.2993 255.81C64.4413 257.7 64.1547 258.33 63.8317 258.352C63.6702 258.362 63.4996 258.222 63.2437 258.012C62.3084 257.261 61.3752 256.507 60.4443 255.75C56.7513 252.756 54.9218 251.272 54.3139 251.703C53.7167 252.127 54.2973 254.395 55.4485 258.89C55.7707 260.15 56.1384 261.586 56.5368 263.204C56.7588 264.106 56.6751 264.227 55.8104 264.126C54.5781 263.983 53.3424 263.987 52.1066 263.99C51.4606 263.992 50.8146 263.994 50.1694 263.975C48.8956 263.937 49.5392 265.883 50.1082 266.983C50.567 267.872 50.9405 268.562 51.2337 269.106C52.2756 271.035 52.2971 271.076 51.5385 271.365C49.5375 272.126 47.621 273.094 45.7053 274.062L45.3666 274.233C44.1806 274.831 44.164 275.552 45.2755 276.318C46.8491 277.403 48.0037 278.159 48.8294 278.7C50.2167 279.609 50.6788 279.911 50.6515 280.151C50.6374 280.271 50.5024 280.376 50.2995 280.532C43.065 286.13 43.0807 286.241 43.1544 286.69L43.1586 286.715L43.1619 286.735C43.1669 286.768 43.171 286.798 43.1801 286.827C43.2836 287.148 43.957 287.265 52.1563 288.697L52.2806 288.719C53.1063 288.864 53.0516 289.033 52.4694 290.851C52.2077 291.669 51.84 292.818 51.3969 294.446C50.8809 296.343 52.0064 296.156 55.475 295.581C56.1243 295.472 56.8548 295.351 57.6715 295.227C58.5576 295.093 58.561 295.233 58.609 297.747C58.6239 298.512 58.6421 299.497 58.6918 300.762C58.7548 302.39 60.1926 301.544 60.6771 301.26C60.7268 301.23 60.7682 301.207 60.7947 301.193C61.873 300.634 62.7368 300.172 63.4325 299.8C66.2079 298.316 66.3164 298.257 66.6974 299.169C69.2632 305.31 70.0061 306.238 71.0629 304.69C71.9533 303.387 72.6183 302.379 73.1268 301.611C74.269 299.882 74.6143 299.36 74.9249 299.382C75.0599 299.391 75.1883 299.503 75.3721 299.663L75.3854 299.674L76.1043 300.299L76.1076 300.302C80.2793 303.936 81.0024 304.565 81.4612 302.492C81.9101 300.46 82.1818 299.037 82.3689 298.062C82.6365 296.657 82.7292 296.176 82.9205 296.127C83.0199 296.101 83.1475 296.194 83.3404 296.335L83.3777 296.362C83.3951 296.375 90.753 299.849 92.5494 301.029L83.3404 296.335C85.0068 297.432 93.7509 299.447 94.7008 298.697C95.1348 298.354 95.9194 299.071 92.5494 294.446C89.7674 290.643 91.7534 293.153 89.0394 289.295C90.0101 289.175 90.9369 289.088 91.7833 289.011C95.0713 288.705 97.1411 288.514 95.8656 286.823C94.8251 285.434 93.7183 284.102 92.5494 282.831C91.5092 281.688 91.3874 281.554 92.0674 281.105ZM65.0004 292.106H64.9788C64.1837 291.924 64.3419 291.346 66.1317 287.746C77.8792 264.111 77.9338 264.153 78.5343 264.628C78.5674 264.654 78.6022 264.682 78.642 264.707C79.1074 265.008 79.061 265.436 78.8366 265.883C65.6762 292.102 65.6091 292.102 65.0004 292.106ZM62.5969 276.68C57.6342 276.577 58.0243 284.39 63.0507 284.507C67.9397 284.622 67.4858 276.781 62.5969 276.68ZM63.2081 282.938C60.3193 282.789 59.6956 278.141 62.6101 278.226C65.7217 278.317 66.0729 283.086 63.2081 282.938ZM84.4693 275.208C84.4999 277.156 82.6953 279.135 80.9104 279.11C76.501 279.047 75.9494 271.009 80.9104 271.017C82.9744 271.02 84.4304 272.733 84.4693 275.208ZM83.0241 275.31C82.9934 278.73 78.8366 278.285 78.8937 274.865C78.9451 271.789 83.0555 271.782 83.0241 275.31Z" fill="#C1E691"/>
<path d="M115.077 85.0111L113.152 70.0546C113.031 69.1328 113.256 68.1993 113.786 67.4259C114.317 66.6525 115.117 66.0912 116.04 65.8453C130.191 62.3173 128.684 62.5731 129.033 62.5731C129.487 62.4319 129.996 62.0483 129.996 60.9391C129.949 60.7697 129.869 60.6108 129.759 60.4718C129.649 60.3328 129.512 60.2164 129.355 60.1294C129.198 60.0424 129.025 59.9865 128.846 59.965C128.667 59.9436 128.485 59.9569 128.311 60.0042L115.558 63.2742C113.951 63.6765 112.551 64.635 111.62 65.9696C110.689 67.3042 110.292 68.9231 110.503 70.5221L112.426 85.4786C111.97 86.8236 115.077 87.4102 115.077 85.0111Z" fill="white"/>
<path d="M162.486 52.7609C162.535 52.9537 162.627 53.1337 162.755 53.2887C162.883 53.4437 163.044 53.5699 163.227 53.6588C163.41 53.7476 163.61 53.7969 163.815 53.8033C164.019 53.8097 164.222 53.773 164.411 53.6958C167.639 52.9726 287.79 22.3077 328.741 12.0963C329.281 11.9497 329.849 11.9213 330.402 12.0132C330.956 12.105 331.481 12.3148 331.941 12.6275C332.401 12.9402 332.784 13.3479 333.062 13.8215C333.341 14.2951 333.507 14.8227 333.551 15.3663L337.41 46.2165C337.483 46.5804 337.699 46.9023 338.012 47.1137C338.325 47.3251 338.711 47.4093 339.088 47.3484C339.464 47.2875 339.801 47.0862 340.027 46.7875C340.253 46.4887 340.35 46.1161 340.297 45.749L336.438 14.8989C336.344 13.9583 336.038 13.0493 335.543 12.2357C335.049 11.4221 334.376 10.7235 333.574 10.1892C332.772 9.65478 331.858 9.29751 330.899 9.14244C329.939 8.98737 328.956 9.03827 328.019 9.29156C302.951 15.4656 332.266 9.04459 163.689 50.8911C163.476 50.9219 163.271 50.9973 163.091 51.1121C162.91 51.227 162.758 51.3785 162.643 51.5563C162.529 51.7341 162.456 51.9338 162.428 52.1418C162.401 52.3498 162.421 52.561 162.486 52.7609Z" fill="white"/>
<path d="M142.51 101.139C146.04 102.671 157.83 85.2409 157.91 85.0138C159.499 81.1219 143.554 69.1201 141.066 69.1201C136.365 69.1201 126.066 84.1935 126.391 87.3489C128.252 92.1844 137.673 99.0398 142.51 101.139Z" fill="white"/>
<path d="M169.453 74.4959C174.304 73.3823 164.036 76.5884 205.773 65.3804C206.283 65.2004 206.704 64.8381 206.949 64.3673C207.194 63.8965 207.245 63.3527 207.091 62.8466C206.938 62.3406 206.592 61.9104 206.123 61.6437C205.655 61.377 205.099 61.294 204.569 61.4114C180.961 67.7486 171.235 71.3758 167.998 72.163C167.046 72.3923 167.798 74.8862 169.453 74.4959Z" fill="white"/>
<path d="M172.821 88.5181C177.616 87.5237 174.261 88.2668 187.016 85.4797C187.467 85.3417 187.856 85.0582 188.119 84.676C188.381 84.2938 188.502 83.836 188.46 83.3783C188.378 82.9335 188.143 82.5289 187.793 82.2314C187.443 81.9339 186.999 81.7613 186.535 81.7422C181.519 82.5886 176.603 83.9182 171.859 85.7112C171.523 85.8823 171.264 86.1675 171.131 86.5124C170.998 86.8572 171 87.2376 171.137 87.581C171.168 87.7591 171.238 87.9283 171.345 88.0764C171.451 88.2246 171.589 88.348 171.75 88.4377C171.912 88.5274 172.091 88.5812 172.277 88.5951C172.462 88.609 172.648 88.5827 172.821 88.5181Z" fill="white"/>
<path d="M234.654 58.6043C289.685 45.2398 301.255 40.854 314.785 37.1033C316.396 36.7049 317.937 36.0747 319.356 35.2335C319.623 35.0552 319.827 34.802 319.941 34.508C320.056 34.2139 320.075 33.8929 319.997 33.588C319.918 33.283 319.746 33.0086 319.502 32.8014C319.259 32.5943 318.956 32.4642 318.635 32.4287C317.225 32.4905 315.839 32.8076 314.549 33.3636C298.538 38.5476 250.462 51.3763 234.191 56.267C233.901 56.3541 233.654 56.5421 233.498 56.7949C233.342 57.0477 233.287 57.3476 233.344 57.6371C233.402 57.9266 233.567 58.1854 233.809 58.3638C234.05 58.5423 234.351 58.6279 234.654 58.6043Z" fill="white"/>
<path d="M318.142 50.6583C307.158 53.6064 241.87 69.2355 234.413 72.8605C233.212 73.3279 233.694 75.1978 235.135 75.1978C240.329 74.7766 276.247 63.8244 319.352 54.1643C319.814 53.996 320.191 53.6601 320.403 53.2273C320.615 52.7944 320.646 52.2985 320.489 51.844C320.332 51.3895 320 51.0119 319.562 50.7907C319.124 50.5695 318.615 50.5221 318.142 50.6583Z" fill="white"/>
<path d="M335.705 78.2358L325.12 80.8068C324.685 80.9406 324.321 81.2338 324.105 81.6241C323.889 82.0145 323.839 82.4713 323.964 82.8974C324.089 83.3235 324.381 83.6853 324.776 83.9059C325.172 84.1266 325.641 84.1887 326.083 84.0791L336.668 81.508C337.656 81.2977 338.69 81.4651 339.555 81.9755C340.026 82.2223 340.413 82.5967 340.669 83.053C340.926 83.5094 341.04 84.0282 340.999 84.5465L342.683 98.5681C342.714 98.9922 342.901 99.3913 343.21 99.6919C343.52 99.9925 343.931 100.174 344.367 100.204C344.623 100.214 344.877 100.171 345.115 100.081C345.353 99.9901 345.569 99.8527 345.75 99.6772C345.93 99.5017 346.072 99.2918 346.165 99.0608C346.259 98.8297 346.302 98.5824 346.292 98.3344L344.608 84.3128C344.469 83.3301 344.123 82.3857 343.592 81.5387C343.061 80.6916 342.355 79.9601 341.52 79.3898C340.684 78.8195 339.737 78.4227 338.736 78.2242C337.736 78.0256 336.704 78.0296 335.705 78.2358Z" fill="white"/>
<path d="M261.842 96.9356L253.182 99.0392C251.501 99.5072 250.046 100.54 249.076 101.954C248.106 103.367 247.685 105.07 247.888 106.757L249.332 118.675C249.363 119.099 249.55 119.498 249.859 119.798C250.169 120.099 250.58 120.281 251.016 120.311C251.272 120.32 251.526 120.278 251.764 120.187C252.002 120.097 252.218 119.959 252.399 119.784C252.579 119.608 252.721 119.398 252.814 119.167C252.907 118.936 252.951 118.689 252.941 118.441L251.497 106.523C251.413 105.695 251.632 104.865 252.117 104.179C252.601 103.494 253.319 102.996 254.144 102.774L262.804 100.671C265.09 100.113 263.942 96.4219 261.842 96.9356Z" fill="white"/>
<path d="M258.473 164.473C258.481 164.227 258.435 163.983 258.34 163.755C258.244 163.527 258.101 163.321 257.918 163.15C257.736 162.98 257.519 162.848 257.281 162.763C257.043 162.679 256.79 162.644 256.537 162.66C256.284 162.677 256.038 162.744 255.814 162.858C255.589 162.973 255.392 163.131 255.235 163.324C255.078 163.517 254.963 163.74 254.9 163.978C254.836 164.216 254.825 164.464 254.866 164.707L256.55 178.263C256.677 179.251 257.022 180.201 257.561 181.048C258.101 181.895 258.822 182.619 259.676 183.169C260.56 183.716 261.549 184.082 262.584 184.242C263.619 184.403 264.676 184.356 265.692 184.104L277.482 181.066C277.928 180.942 278.306 180.651 278.531 180.256C278.757 179.862 278.812 179.397 278.684 178.963C278.556 178.53 278.257 178.163 277.851 177.944C277.445 177.725 276.966 177.672 276.519 177.796L264.729 180.832C263.741 181.042 262.707 180.875 261.842 180.365C261.371 180.118 260.984 179.744 260.728 179.288C260.471 178.832 260.357 178.314 260.398 177.796L258.473 164.473Z" fill="white"/>
<path d="M442.656 238.084L416.431 212.61C415.737 211.877 415.352 210.918 415.352 209.923C415.352 208.927 415.737 207.969 416.431 207.236L421.484 202.328C422.307 201.451 422.926 200.413 423.3 199.284C423.673 198.155 423.793 196.961 423.649 195.783C423.452 194.605 422.951 193.495 422.194 192.555C421.437 191.615 420.448 190.877 419.318 190.407L360.616 164C359.965 163.641 359.245 163.414 358.501 163.333C357.757 163.253 357.004 163.321 356.287 163.533C356.287 161.328 356.514 163.82 354.603 148.34C354.609 148.095 354.562 147.852 354.466 147.626C354.369 147.399 354.226 147.195 354.043 147.025C353.861 146.856 353.645 146.725 353.408 146.641C353.171 146.558 352.918 146.523 352.667 146.539C352.415 146.555 352.169 146.622 351.946 146.736C351.722 146.849 351.526 147.007 351.368 147.198C351.211 147.39 351.096 147.611 351.032 147.848C350.967 148.085 350.954 148.332 350.994 148.574L352.678 162.13C352.762 162.958 352.543 163.788 352.059 164.474C351.574 165.16 350.856 165.657 350.031 165.879L337.278 169.151C337.055 169.209 336.846 169.31 336.663 169.448C336.481 169.586 336.329 169.758 336.217 169.955C336.104 170.151 336.034 170.367 336.01 170.591C335.985 170.814 336.008 171.04 336.075 171.255C336.189 171.62 336.408 171.946 336.707 172.195C337.005 172.443 337.37 172.603 337.759 172.657C338.44 172.657 337.078 172.948 350.272 169.619C350.037 171.06 350.291 172.536 350.994 173.826L378.188 230.84C378.693 231.928 379.464 232.878 380.433 233.61C381.403 234.342 382.542 234.833 383.751 235.041C384.96 235.248 386.203 235.165 387.372 234.8C388.54 234.435 389.6 233.798 390.457 232.944L395.51 228.036C396.265 227.361 397.252 226.987 398.278 226.987C399.303 226.987 400.29 227.361 401.045 228.036L427.27 253.51C428.682 254.858 430.583 255.613 432.563 255.613C434.542 255.613 436.443 254.858 437.855 253.51L443.389 248.134C444.503 246.642 445.039 244.817 444.905 242.98C444.771 241.142 443.975 239.408 442.656 238.084ZM440.25 245.801L434.711 251.182C434.38 251.547 433.974 251.839 433.517 252.04C433.061 252.24 432.566 252.344 432.065 252.344C431.565 252.344 431.07 252.24 430.614 252.04C430.157 251.839 429.75 251.547 429.42 251.182L402.954 225.941C401.541 224.593 399.64 223.837 397.66 223.837C395.68 223.837 393.779 224.593 392.367 225.941L387.314 230.849C386.864 231.257 386.333 231.571 385.754 231.772C385.174 231.973 384.559 232.057 383.945 232.018C383.323 231.924 382.735 231.683 382.232 231.316C381.728 230.95 381.326 230.468 381.06 229.914L353.881 172.88C353.486 172.205 353.342 171.418 353.473 170.652C353.605 169.886 354.004 169.187 354.603 168.673C355.139 168.101 355.858 167.721 356.644 167.594C357.429 167.467 358.236 167.6 358.934 167.972L417.638 194.381C418.206 194.638 418.699 195.027 419.074 195.513C419.45 196 419.696 196.569 419.791 197.169C419.886 197.77 419.828 198.385 419.62 198.958C419.412 199.532 419.062 200.047 418.601 200.458L413.548 205.366C412.16 206.738 411.382 208.584 411.382 210.507C411.382 212.43 412.16 214.276 413.548 215.648L439.773 241.122C440.191 241.345 440.547 241.662 440.81 242.048C441.073 242.434 441.235 242.876 441.283 243.336C441.33 243.797 441.261 244.262 441.082 244.69C440.903 245.119 440.619 245.499 440.254 245.797L440.25 245.801Z" fill="white"/>
<path fill-rule="evenodd" clip-rule="evenodd" d="M105.295 67.3633C97.149 49.5684 97.5169 49.9872 96.8809 49.677C92.4497 47.5132 53.2956 28.3981 42.4617 23.2678C42.1566 23.1233 41.8026 23.0971 41.4769 23.195C41.1512 23.2929 40.8803 23.507 40.7234 23.7904C38.2896 28.1941 30.7561 40.9094 28.479 44.7447C28.3944 44.8878 28.3418 45.0454 28.3243 45.2079C28.3069 45.3705 28.325 45.5347 28.3775 45.6906C28.43 45.8464 28.5159 45.9908 28.63 46.1149C28.7441 46.239 28.8839 46.3402 29.0412 46.4125L84.845 71.9891C85.4357 72.2594 84.8956 72.2172 104.328 69.0263C104.52 68.9947 104.702 68.9231 104.86 68.8169C105.018 68.7106 105.148 68.5725 105.241 68.4127C105.334 68.2529 105.387 68.0757 105.396 67.8942C105.405 67.7127 105.37 67.5316 105.294 67.3645L105.295 67.3633ZM40.6859 38.305C39.0978 41.3221 38.0227 43.253 37.5331 44.0737C37.3783 44.3343 37.1207 44.5285 36.8148 44.6152C36.509 44.7019 36.179 44.6744 35.8946 44.5383C35.6108 44.3962 35.3977 44.1566 35.3005 43.8704C35.2033 43.5842 35.2296 43.274 35.3739 43.0056C35.4114 42.9332 40.5978 33.0106 42.2208 30.1395C42.3627 29.8845 42.6044 29.6901 42.8959 29.5964C43.1874 29.5028 43.5063 29.517 43.7868 29.6363C47.1312 31.1207 50.8798 32.7222 51.7529 33.0661C52.7269 33.4487 52.7036 34.7955 51.6803 35.1503C50.6791 35.5003 50.3501 34.6278 43.9098 32.085C43.5459 32.797 42.735 34.3743 41.7972 36.1786C43.4733 36.8447 46.4668 38.4583 47.9732 39.0496C48.9395 39.3984 49.012 40.7054 48.0237 41.1218C47.8793 41.1835 47.7231 41.2177 47.5643 41.2225C47.4055 41.2273 47.2472 41.2025 47.0989 41.1495C43.6469 39.641 42.2881 39.0569 40.6859 38.305ZM57.6568 53.8551C57.2307 54.7759 55.8214 54.7421 55.4302 53.8298C55.0882 52.9959 52.3461 45.6329 52.1453 45.0947C51.2697 46.784 50.3876 48.4704 49.499 50.1537C49.3568 50.4234 49.1066 50.6302 48.8022 50.7295C48.4979 50.8288 48.1639 50.8127 47.8722 50.6848C47.7273 50.6207 47.5975 50.5305 47.4902 50.4196C47.3829 50.3086 47.3001 50.179 47.2467 50.0382C47.1932 49.8973 47.1702 49.748 47.1788 49.5989C47.1875 49.4497 47.2276 49.3036 47.297 49.169C48.3307 47.0522 52.9096 38.235 54.1919 35.6705C54.319 35.4116 54.5467 35.2072 54.8292 35.0986C55.1116 34.9899 55.4278 34.9851 55.7139 35.0852C59.6192 36.5056 63.9377 39.0991 62.7136 42.8331C61.6334 46.0131 57.7786 45.8019 54.3434 44.8123C57.7734 53.5546 57.9755 53.166 57.6581 53.8539H57.6568V53.8551ZM71.7328 53.3989C66.3366 51.124 66.3819 51.188 65.1825 50.6268C64.0025 52.9114 63.9455 53.2396 62.7836 55.2285C64.4714 55.9285 69.1888 57.7375 69.6007 57.8304C71.0191 58.1466 70.7289 60.0571 69.3598 60.0571C69.0321 60.0571 69.3132 60.1609 60.6736 56.7117C60.5303 56.6524 60.4012 56.5672 60.2938 56.4609C60.1864 56.3546 60.1028 56.2294 60.0479 56.0926C59.9931 55.9559 59.968 55.8103 59.9742 55.6644C59.9805 55.5185 60.0178 55.3752 60.0842 55.243C60.3536 54.5768 65.8755 43.6766 67.6021 41.1206C67.6923 40.9833 67.8131 40.8658 67.9564 40.7759C68.0996 40.6859 68.2619 40.6258 68.4323 40.5995C68.6027 40.5731 68.7772 40.5813 68.9439 40.6233C69.1107 40.6653 69.2657 40.7402 69.3987 40.843C71.6317 41.263 75.2042 43.5222 77.138 44.5238C77.4278 44.6342 77.6604 44.8447 77.7872 45.1113C77.9139 45.3779 77.925 45.6799 77.8181 45.954C77.7071 46.2334 77.4824 46.4608 77.1926 46.5869C76.9028 46.713 76.5714 46.7275 76.2702 46.6274C75.6174 46.3124 71.6408 44.2728 69.1836 43.2603C69.0722 43.4751 66.9117 47.3756 66.2835 48.5438C68.4518 49.4538 70.5009 50.5146 72.6537 51.3171C72.8025 51.3731 72.9378 51.456 73.0518 51.5612C73.1657 51.6664 73.256 51.7918 73.3174 51.9298C73.3788 52.0679 73.41 52.216 73.4093 52.3655C73.4085 52.515 73.3758 52.6628 73.313 52.8003C73.2516 52.9365 73.162 53.0599 73.0493 53.1637C72.9366 53.2675 72.803 53.3495 72.6562 53.4051C72.5094 53.4608 72.3523 53.4888 72.1938 53.4878C72.0354 53.4867 71.8787 53.4565 71.7328 53.3989ZM85.6131 59.835C84.8943 60.1053 84.8593 59.8459 81.3115 58.4073C80.1833 57.9487 79.1108 57.5143 78.1367 57.0581C76.9321 59.3909 76.8919 59.6842 75.7391 61.6597C77.4269 62.3597 82.1443 64.1688 82.5563 64.2605C84.1572 64.6177 83.52 66.8142 82.0071 66.4533C81.8089 66.405 77.344 64.6249 73.6291 63.1417C73.4861 63.0826 73.3572 62.9975 73.2498 62.8914C73.1425 62.7853 73.0589 62.6604 73.0039 62.5239C72.9489 62.3874 72.9237 62.2421 72.9296 62.0964C72.9355 61.9508 72.9725 61.8077 73.0384 61.6754C73.3091 61.0056 78.8362 50.0946 80.5576 47.5518C80.6478 47.4146 80.7686 47.297 80.9119 47.2071C81.0551 47.1172 81.2175 47.057 81.3879 47.0307C81.5583 47.0044 81.7327 47.0125 81.8995 47.0545C82.0662 47.0965 82.2213 47.1715 82.3542 47.2742C84.5899 47.6954 88.1714 49.9607 90.0923 50.9551C90.3773 51.0716 90.6033 51.286 90.7232 51.5536C90.8431 51.8213 90.8478 52.1217 90.7363 52.3925C90.6249 52.6633 90.4057 52.8837 90.1245 53.008C89.8432 53.1322 89.5213 53.1508 89.2257 53.0598C88.5755 52.746 84.5847 50.7004 82.1392 49.6927C82.0278 49.9076 79.8672 53.8081 79.239 54.9763C80.2014 55.3794 81.1211 55.803 82.0135 56.2133C85.8385 57.9729 85.9784 57.6892 86.2763 58.3699C86.3968 58.6461 86.3946 58.9556 86.2702 59.2304C86.1459 59.5051 85.9095 59.7226 85.6131 59.835ZM96.2268 64.5248C94.9691 66.3278 92.3603 66.8286 90.4122 65.6496C88.4576 64.4656 87.8968 62.0447 89.1532 60.2429C90.4096 58.4411 93.0119 57.9354 94.9665 59.1181C96.9133 60.2972 97.4832 62.723 96.2268 64.5248Z" fill="#C1E691"/>
</svg>
