<svg width="57" height="48" viewBox="0 0 57 48" fill="none" xmlns="http://www.w3.org/2000/svg">
<path d="M10.1548 9.73091V9.73091C13.3501 4.65577 20.2348 2.81293 25.5388 5.61304L30.3961 8.17731M3.93831 19.903L3.3906 20.7304C1.58058 23.4649 2.47206 26.9762 5.36525 28.5079V28.5079M25.9752 39.6121L30.9757 42.1932C36.2508 44.9162 43.0428 43.0669 46.2032 38.0471V38.0471M52.9091 27.3874L53.2032 26.921C54.9383 24.1695 54.0141 20.7034 51.1393 19.1814V19.1814" stroke="white" stroke-linecap="round"/>
<rect x="5.38916" y="9.79492" width="45.6582" height="28.0646" rx="1.5" stroke="white"/>
<path d="M22.7095 9.73145V15.4752M22.7095 37.8605V24.8308" stroke="white" stroke-linecap="round"/>
<path d="M25.2011 19.8976C25.2011 21.0972 24.1268 22.1419 22.7085 22.1419C21.2902 22.1419 20.2158 21.0972 20.2158 19.8976C20.2158 18.698 21.2902 17.6533 22.7085 17.6533C24.1268 17.6533 25.2011 18.698 25.2011 19.8976Z" stroke="white"/>
<path d="M5.43311 19.8965H9.37937" stroke="white" stroke-linecap="round"/>
<path d="M35.9736 19.8965H51.0716" stroke="white" stroke-linecap="round"/>
<path d="M13.7077 15.6643C16.5876 14.2217 19.7616 16.4254 20.8726 17.9015C19.349 19.3485 19.8297 21.0617 20.4645 21.6438C16.5196 18.0263 13.2322 20.2508 12.0986 21.8309C11.2825 21.0201 10.3504 17.346 13.7077 15.6643Z" fill="black" stroke="white" stroke-linecap="round"/>
<path d="M21.0444 18.1514C19.9335 16.6753 16.9091 14.1223 13.6988 15.719C9.68594 17.7148 11.7264 22.3303 12.4065 23.0163C13.0867 23.7024 16.4194 27.1951 21.0444 21.8313" stroke="white" stroke-linecap="round"/>
<path d="M20.4644 22.3717C19.1494 20.5214 15.6724 18.0014 11.8635 22.1428" stroke="white" stroke-linecap="round"/>
<path d="M17.5393 28.3584C17.5393 26.7368 18.8117 26.8322 19.9878 25.6765C21.3207 24.3667 20.8973 22.4926 22.8135 22.3291" stroke="white" stroke-linecap="round"/>
<path d="M28.0501 28.3584C28.0501 26.7368 26.7777 26.8322 25.6016 25.6765C24.2686 24.3667 24.692 22.4926 22.7759 22.3291" stroke="white" stroke-linecap="round"/>
<path d="M31.6785 15.6643C28.7986 14.2217 25.6246 16.4254 24.5137 17.9015C26.0372 19.3485 25.5566 21.0617 24.9218 21.6438C28.8666 18.0263 32.154 20.2508 33.2876 21.8309C34.1038 21.0201 35.0358 17.346 31.6785 15.6643Z" fill="black" stroke="white" stroke-linecap="round"/>
<path d="M24.3418 18.1514C25.4527 16.6753 28.4771 14.1223 31.6874 15.719C35.7003 17.7148 33.6598 22.3303 32.9797 23.0163C32.2995 23.7024 28.9668 27.1951 24.3418 21.8313" stroke="white" stroke-linecap="round"/>
<path d="M24.8848 22.433C26.1997 20.5827 29.7146 18.0003 33.5235 22.1417" stroke="white" stroke-linecap="round"/>
</svg>
