<svg width="447" height="262" viewBox="0 0 447 262" fill="none" xmlns="http://www.w3.org/2000/svg">
<path d="M252.801 31.2199C245.119 21.2651 230.087 22.6419 218.19 22.7149C190.466 22.8786 75.4383 22.7523 67.3612 23.1094C54.9201 23.6754 42.4276 28.1331 40.4072 39.0859C39.3168 45.0032 40.2823 51.3287 40.5321 57.2914C41.5356 81.4298 42.2849 111.29 45.6455 132.799C46.5576 138.65 47.7551 144.514 51.8694 149.348C58.3632 156.981 71.2325 159.664 82.0302 159.824C82.1573 160.011 180.96 162.068 216.675 159.701C227.065 159.011 239.718 158.321 246.722 150.455C250.232 146.51 250.531 140.823 251.234 136.034C253.76 118.851 255.446 89.7712 257.654 58.5872C258.285 49.6818 258.776 38.9577 252.801 31.2199ZM255.533 52.9165C255.46 56.4827 252.456 98.651 252.259 101.209C251.59 109.86 249.439 137.076 246.658 145.575C243.908 153.964 231.554 156.029 223.16 156.818C216.049 157.498 208.888 157.889 201.737 158.094C165.031 159.143 85.3016 158.922 82.1082 158.847C69.1742 158.321 54.6636 154.967 49.7888 143.099C47.9857 137.704 46.9908 132.124 46.8296 126.5C44.3967 100.616 44.7713 92.8028 42.9071 52.9599C42.6439 47.2557 41.3282 40.5495 44.2852 35.218C50.77 23.561 70.3561 25.1962 82.3558 25.0798C96.4694 24.9437 216.249 24.8648 223.664 24.8115C230.256 24.7642 237.372 24.4683 243.511 26.999C254.585 31.5572 255.725 43.4036 255.533 52.9086V52.9165Z" fill="white"/>
<path d="M149.011 167.625C150.739 171.077 157.21 169.331 154.951 164.721C154.761 164.326 154.475 163.973 154.112 163.687C153.749 163.401 153.32 163.19 152.854 163.069C152.388 162.948 151.897 162.92 151.417 162.986C150.937 163.053 150.48 163.213 150.079 163.455C148.703 164.289 147.499 166.53 149.053 167.721C149.115 167.777 149.195 167.815 149.282 167.83C149.369 167.846 149.459 167.838 149.541 167.808C149.622 167.778 149.692 167.727 149.741 167.662C149.79 167.596 149.816 167.52 149.816 167.441C149.911 166.53 149.709 165.56 150.567 164.877C150.784 164.684 151.046 164.537 151.336 164.445C151.626 164.354 151.935 164.322 152.241 164.351C152.546 164.38 152.841 164.469 153.102 164.612C153.364 164.755 153.586 164.948 153.751 165.177C154.103 165.612 154.255 166.149 154.178 166.679C154.1 167.209 153.798 167.694 153.332 168.035C152.73 168.333 152.023 168.417 151.353 168.27C150.684 168.124 150.102 167.758 149.726 167.246C149.445 166.836 148.796 167.199 149.011 167.625Z" fill="white"/>
<path d="M140.2 188.872C143.678 189.396 147.207 189.608 150.732 189.505C154.584 189.606 158.453 189.722 162.302 189.702C162.556 189.692 162.796 189.595 162.971 189.432C163.147 189.269 163.245 189.053 163.245 188.828C163.245 188.603 163.147 188.386 162.971 188.223C162.796 188.06 162.556 187.964 162.302 187.953C158.453 187.815 154.584 187.805 150.732 187.789C147.219 187.576 143.69 187.68 140.2 188.099C140.107 188.124 140.025 188.176 139.967 188.245C139.908 188.315 139.877 188.399 139.877 188.485C139.877 188.572 139.908 188.656 139.967 188.726C140.025 188.795 140.107 188.847 140.2 188.872Z" fill="white"/>
<path d="M269.875 23.0011C267.334 18.0094 262.681 14.0981 256.916 12.1074C249.573 9.56099 241.393 9.96336 233.657 10.0265C200.707 10.2947 65.4348 10.206 56.1246 10.5472C48.856 10.6313 41.7358 12.3783 35.457 15.6183C21.408 23.4665 24.6147 36.5575 25.1767 51.2382C26.256 79.4635 27.0788 114.498 30.6558 139.583C31.5968 146.188 32.6338 152.879 36.6455 158.668C43.8083 168.997 58.3122 172.897 71.9576 172.848C72.4839 172.848 102.819 173.491 137.607 173.719C137.66 175.343 138.024 177.136 138.229 178.848C137.471 178.767 117.044 179.219 111.041 179.974C110.916 179.996 110.798 180.042 110.696 180.109C110.594 180.176 110.51 180.263 110.45 180.362C110.39 180.461 110.355 180.571 110.349 180.683C110.342 180.795 110.364 180.907 110.412 181.011C107.334 183.311 104.614 186.163 101.808 188.678C98.3563 191.757 94.7148 194.745 91.4902 198.01C91.3566 198.133 91.2829 198.298 91.2849 198.468C91.287 198.639 91.3646 198.802 91.5011 198.923C91.6376 199.044 91.8222 199.113 92.0152 199.114C92.2083 199.116 92.3944 199.051 92.5338 198.933C96.1464 196 99.429 192.706 102.827 189.58C105.655 186.974 108.895 184.451 111.444 181.603C120.396 180.896 129.385 180.608 138.371 180.741C138.389 182.037 138.311 183.572 139.765 184.229C139.988 184.333 140.378 184.26 140.421 183.99C140.528 182.278 140.448 180.56 140.182 178.862C140.139 177.112 139.774 175.379 139.101 173.733C147.209 173.785 155.538 173.81 163.769 173.798C162.711 176.749 162.557 179.895 163.323 182.915C163.356 183.009 163.422 183.092 163.513 183.151C163.603 183.21 163.712 183.241 163.824 183.241C163.935 183.241 164.044 183.21 164.135 183.151C164.225 183.092 164.291 183.009 164.324 182.915C164.613 182.057 164.786 181.172 164.839 180.278C169.402 180.816 173.182 180.439 185.474 181.118C187.34 181.223 190.003 181.246 191.575 181.238C193.888 184.057 196.612 186.594 199.676 188.783C202.675 191.39 205.835 193.847 209.143 196.144C209.941 196.676 210.927 195.511 210.209 194.921C207.026 192.347 203.681 189.939 200.506 187.349C198.085 185.057 195.502 182.904 192.772 180.903C192.816 180.786 192.813 180.66 192.765 180.545C192.717 180.429 192.626 180.332 192.507 180.268C190.625 179.643 188.619 179.363 186.611 179.447C183.953 179.299 181.292 179.184 178.63 179.104C174.085 178.705 169.516 178.564 164.951 178.682C165.076 176.935 165.419 175.319 165.435 173.796C188.923 173.751 211.444 173.39 225.576 172.398C237.569 171.554 252.244 170.936 260.457 161.944C264.708 157.295 265.107 150.863 265.941 145.147C269.466 121.016 270.943 83.7338 273.173 56.116C274.067 45.2795 275.12 33.1551 269.875 23.0011ZM271.322 47.8535C271.19 51.1869 267.879 99.3889 267.531 104.198C266.777 114.322 264.306 145.912 261.189 155.812C258.178 165.376 244.867 168.175 235.211 169.212C226.938 170.104 218.564 170.573 210.235 170.822C167.886 172.092 73.726 171.629 72.0446 171.573C56.6843 170.982 40.3451 166.583 35.0756 152.39C32.7453 146.115 32.4643 139.257 31.8756 132.709C29.5475 106.726 29.7036 98.4224 27.6386 47.7529C27.3576 41.0368 26.0107 33.5772 28.1738 27.0248C33.2582 11.6557 56.1536 12.6616 70.2806 12.4979C86.9878 12.3007 229.828 12.1508 238.358 12.1034C246.043 12.0679 254.32 12.2415 260.83 16.3481C271.614 23.145 271.739 37.3248 271.322 47.8476V47.8535Z" fill="white"/>
<path d="M11.4861 252.017C12.8352 250.326 44.383 218.88 45.9507 217.316C46.9376 216.28 48.1924 215.471 49.6086 214.955C51.0249 214.44 52.5607 214.235 54.0858 214.357C75.574 214.247 97.069 214.126 118.557 214.432C158.653 215.012 246.854 213.024 249.811 213.051C252.71 213.077 256.449 212.487 258.662 214.369C260.771 216.166 282.594 242.417 290.223 249.449C291.409 250.539 293.28 248.88 292.1 247.788C284.632 240.898 265.987 218.697 262.941 215.339C261.847 213.773 260.406 212.419 258.704 211.359C254.897 209.681 210.739 211.728 191.862 212.107C169.517 212.558 175.264 212.207 56.454 212.18C51.1979 212.18 47.4783 212.377 44.0151 216.182C40.0323 220.562 11.7247 249.602 10.4558 251.478C10.0611 252.074 11.0512 252.561 11.4861 252.017Z" fill="white"/>
<path d="M288.263 259.483C290.212 256.552 294.246 251.755 292.311 251.199C289.318 250.354 12.0286 252.615 12.0286 252.615C12.0286 252.615 6.69439 252.737 11.8056 256.944C16.9167 261.151 17.1576 262.226 26.3853 261.911C35.613 261.595 262.005 260.956 268.316 261.045C274.627 261.134 287.028 261.339 288.263 259.483Z" fill="white"/>
<path d="M40.9377 232.172C38.9753 234.322 30.2626 242.243 29.9103 244.204C29.8629 244.378 29.8782 244.56 29.9542 244.726C30.0302 244.891 30.1631 245.032 30.334 245.127C31.5248 245.802 67.6776 245.127 75.7346 245.101C92.7539 245.038 213.426 245.693 216.479 245.729C218.814 245.754 220.466 245.316 219.322 243.003C215.422 235.113 211.548 227.223 207.586 219.357C206.578 217.363 205.773 217.095 203.349 217.105C203.349 217.105 58.5836 217.105 54.0055 217.058C53.7938 217.067 53.5944 217.149 53.4484 217.285C53.3024 217.421 53.2211 217.601 53.2211 217.788C53.2211 217.976 53.3024 218.156 53.4484 218.292C53.5944 218.428 53.7938 218.509 54.0055 218.519C82.6231 218.766 196.679 218.45 204.709 218.872C205.358 218.908 204.486 217.572 217.233 242.993C217.411 243.346 217.364 243.979 215.252 244.025C213.787 244.052 73.7722 243.529 41.7025 243.74C39.9988 243.74 32.7692 244.009 32.8227 243.63C33.0011 242.36 44.1444 231.886 53.6531 218.998C53.9809 218.555 53.2071 218.192 52.8682 218.592C52.8503 218.586 45.2929 227.399 40.9377 232.172Z" fill="white"/>
<path d="M223.207 239.681C223.939 241.581 224.878 243.413 226.01 245.153C226.679 245.963 227.125 245.953 228.24 245.985C234.457 246.157 251.753 245.458 269.049 245.758C270.193 245.78 274.909 246.417 274.847 244.772C274.755 242.358 266.464 233.829 255.033 218.052C253.729 216.249 253.167 216.138 250.587 216.239C246.368 216.397 221.516 217.188 213.315 217.422C212.224 217.454 212.217 218.957 213.315 218.925C255.642 217.742 252.384 217.651 252.643 217.797C253.477 218.267 254.313 220.081 254.848 220.807C256.041 222.411 270.561 241.531 271.879 243.204C272.666 244.2 271.897 244.143 270.318 244.115C268.534 244.08 229.792 244.301 228.532 244.291C226.971 244.273 226.208 241.581 225.571 240.377C217.395 224.922 216.093 222.541 213.859 219.316C213.506 218.809 212.594 218.963 212.844 219.48C216.755 227.578 219.654 232.574 223.207 239.681Z" fill="white"/>
<path d="M125.299 66.7361C124.568 58.3119 128.644 49.655 132.658 46.0258C136.801 42.6032 142.21 40.6308 147.877 40.4766C153.543 40.3223 159.079 41.9968 163.452 45.1875C169.289 49.6963 173.072 55.9284 174.098 62.7223C174.533 64.3357 176.105 68.4127 169.861 68.7855C169.415 68.8131 168.137 67.817 167.959 67.5113C166.175 64.4521 165.878 60.9254 164.371 57.7616C162.588 53.7239 159.181 50.4116 154.804 48.4617C152.611 47.5287 150.173 47.1413 147.75 47.3411C145.327 47.5409 143.012 48.3204 141.052 49.5958C137.464 52.4449 135.129 56.3233 134.46 60.5467C132.422 72.0498 137.506 80.1999 138.799 80.691C139.532 80.9144 140.311 80.9972 141.083 80.9336C147.215 80.8015 171.6 79.9474 177.405 80.0519C178.021 80.0638 179.392 80.2492 179.778 81.1959C181.167 84.5964 180.38 92.8529 180.304 93.6971C180.008 96.9516 177.753 94.8431 173.984 96.9398C161.385 95.5591 156.976 95.0048 154.583 95.6163C154.089 95.7214 153.625 95.9144 153.218 96.1837C152.811 96.453 152.471 96.7928 152.217 97.1824C151.89 98.0185 151.944 98.9343 152.367 99.7361C152.79 100.538 153.549 101.163 154.483 101.478C156.312 102.196 158.513 102.423 159.984 103.123C159.86 105.293 160.152 106.117 160.031 108.295C159.955 108.843 160.016 109.399 160.21 109.924C160.426 110.305 160.748 110.632 161.145 110.873C161.542 111.114 162.002 111.263 162.482 111.305C163.443 111.377 164.41 111.304 165.343 111.088C165.318 108.373 165.831 105.675 166.857 103.115C168.71 103.39 170.784 104.054 172.637 104.328C172.86 104.372 171.012 109.786 171.357 111.974C171.482 112.749 172.954 112.538 173.097 112.695C175.262 115.125 176.089 115.623 177.586 115.944C179.267 116.307 179.524 116.982 179.838 118.765C182.068 131.333 167.694 142.684 152.897 142.911C144.606 143.043 130.252 142.911 119.862 129.656C117.496 126.775 116.174 123.327 116.071 119.767C116.338 118.913 116.78 118.111 117.376 117.4C120.959 114.37 123.767 111.743 123.283 106.202C122.884 101.605 120.756 97.4447 115.797 96.6222C115.369 96.5552 114.39 95.2514 114.325 94.8668C113.609 90.8009 113.503 86.6692 114.009 82.5786C114.204 82.2608 114.506 82.0044 114.874 81.8449C117.668 81.3182 124.733 81.6811 127.509 81.2176C127.775 80.9721 127.979 80.6792 128.108 80.3585C128.236 80.0378 128.286 79.6967 128.254 79.3577C126.61 75.2925 125.615 71.0444 125.299 66.7361Z" fill="#C1E691"/>
<path d="M208.795 78.0001C208.541 81.7043 205.987 126.425 207.024 130.056C207.06 130.158 207.131 130.248 207.228 130.312C207.325 130.375 207.443 130.41 207.564 130.41C207.685 130.41 207.803 130.375 207.9 130.312C207.997 130.248 208.068 130.158 208.104 130.056C209.299 126.61 209.335 82.3651 209.272 78.0001C209.272 77.9441 209.247 77.8905 209.202 77.8509C209.158 77.8113 209.097 77.7891 209.034 77.7891C208.97 77.7891 208.91 77.8113 208.865 77.8509C208.82 77.8905 208.795 77.9441 208.795 78.0001Z" fill="white"/>
<path d="M320.045 94.9081C313.816 93.2439 307.107 93.7237 301.261 96.2513C293.679 99.5275 288.731 106.376 285.767 113.648C284.768 112.145 283.219 110.989 281.376 110.37C278.058 109.279 271.428 110.37 271.246 114.273C271.246 114.391 271.285 114.505 271.359 114.602C271.433 114.7 271.538 114.775 271.66 114.82C271.783 114.865 271.917 114.876 272.047 114.853C272.177 114.83 272.296 114.773 272.39 114.689C274.72 113.039 277.247 111.352 280.418 112.396C281.393 112.712 282.256 113.251 282.919 113.959C283.582 114.666 284.021 115.517 284.191 116.423C284.302 117.558 284.018 118.696 283.376 119.683C282.734 120.671 281.765 121.46 280.6 121.946C278.982 122.431 277.228 122.427 275.613 121.933C273.998 121.44 272.615 120.485 271.68 119.22C271.571 119.104 271.301 119.12 271.321 119.299C271.792 123.727 278.821 125.611 282.946 123.187C280.846 134.005 283.475 146.757 294.562 151.749C297.321 153.017 300.341 153.78 303.44 153.992C306.54 154.204 309.656 153.861 312.602 152.983C315.549 152.105 318.265 150.711 320.588 148.884C322.911 147.057 324.794 144.834 326.124 142.349C326.833 141.067 324.681 139.934 323.943 141.22C321.783 145.298 317.987 148.521 313.292 150.262C308.598 152.004 303.339 152.141 298.536 150.647C287.455 147.491 283.999 136.317 284.864 127.055C285.524 121.116 287.4 115.333 290.401 109.989C292.451 105.669 295.871 101.966 300.249 99.3283C305.526 96.5116 311.821 95.5871 317.844 96.7444C327.553 98.5946 333.246 108.67 332.359 116.747C332.31 117.169 333.001 117.189 333.146 116.837C336.605 108.451 329.288 97.7227 320.045 94.9081Z" fill="white"/>
<path d="M317.552 136.05C314.182 138.35 310.9 140.944 306.435 141.179C298.55 141.603 290.881 133.169 296.26 120.537C298.911 114.316 304.7 105.665 313.181 105.429C314.988 105.367 316.779 105.751 318.354 106.536C319.928 107.322 321.226 108.479 322.101 109.878C323.198 111.792 322.614 113.811 323.401 115.713C323.624 116.261 324.641 116.547 324.976 115.898C327.11 111.744 323.818 106.628 319.67 104.578C313.426 101.496 306.319 103.987 301.848 108.381C293.66 116.441 286.082 133.707 299.154 141.262C305.682 145.037 313.752 141.69 318.163 136.764C318.502 136.403 318.056 135.705 317.552 136.05Z" fill="white"/>
<path d="M156.354 96.2509C159.534 95.8968 162.76 96.0397 165.885 96.673C180.574 98.2746 195.203 101.618 204.616 101.05C204.961 101.028 205.099 100.547 204.7 100.48C198.178 99.3792 191.467 99.1997 184.911 98.2016C178.634 97.249 172.381 96.1523 166.07 95.4087C162.85 94.7551 159.539 94.5199 156.242 94.7105C155.597 93.9028 154.719 93.2632 153.699 92.8583C152.679 92.4534 151.555 92.2981 150.444 92.4086C142.945 92.4501 141.337 99.6415 144.156 103.89C145.047 105.233 146.176 106.441 147.501 107.466C147.772 107.671 147.965 107.945 148.054 108.251C148.144 108.556 148.125 108.879 148 109.174C147.155 111.176 145.26 115.61 143.71 118.689C143.645 118.817 143.618 118.956 143.629 119.095C143.64 119.235 143.69 119.369 143.775 119.487C143.859 119.605 143.975 119.703 144.112 119.772C144.249 119.841 144.404 119.879 144.562 119.882C148.941 119.987 153.508 120.139 157.877 120.056C158.03 120.053 158.18 120.017 158.314 119.951C158.448 119.886 158.562 119.793 158.647 119.68C158.732 119.567 158.785 119.438 158.802 119.303C158.818 119.169 158.798 119.032 158.742 118.906C157.25 115.5 156.412 112.32 154.884 109.03C154.741 108.73 154.712 108.397 154.8 108.081C154.889 107.765 155.09 107.483 155.375 107.277C156.071 106.741 156.621 106.074 156.984 105.324C157.347 104.575 157.515 103.762 157.473 102.947C161.041 104.15 157.085 108.75 158.443 110.967C159.224 112.247 163.051 112.774 164.493 112.464C167.078 111.908 166.371 106.07 167.212 104.829C167.731 104.054 171.391 105.062 171.522 105.267C171.462 105.889 171.32 106.504 171.099 107.097C170.735 108.872 169.092 112.062 171.612 112.865C172.57 113.002 173.539 113.073 174.511 113.08C175.256 113.285 176.022 113.425 176.799 113.498C179.298 113.328 178.707 109.926 179.118 108.198C179.695 105.73 181.138 106.379 183.404 106.754C190.197 108.095 197.062 109.133 203.973 109.865C204.914 109.934 205.149 108.515 204.196 108.389C198.621 107.644 193.12 106.922 187.614 105.847C185 105.09 182.295 104.603 179.555 104.397C177.898 104.46 177.82 105.525 177.548 106.807C177.512 108.273 177.245 109.728 176.754 111.129C176.063 112.042 175.061 111.523 173.949 111.437C171.284 111.226 172.26 110.07 172.321 109.748C172.564 108.456 174.02 105.131 172.684 104.044C170.926 103.354 169.032 102.976 167.109 102.931C166.166 103.058 166.016 103.47 165.744 104.192C165.428 105.266 165.179 106.356 164.997 107.454C164.837 108.125 165.178 111.371 162.221 110.61C160.557 110.03 160.348 109.821 160.152 108.223C159.955 106.626 160.974 104.906 160.76 103.336C160.6 102.133 160.194 102.022 158.829 101.738C157.364 101.432 155.645 101.569 154.418 100.657C151.961 98.8348 154.124 96.7578 156.354 96.2509Z" fill="white"/>
<path d="M265.517 97.9173V98.2704C265.517 98.3019 265.576 98.3019 265.576 98.2704C265.576 98.154 265.576 98.0337 265.593 97.9173C265.591 97.8798 265.517 97.8759 265.517 97.9173Z" fill="white"/>
<path d="M91.383 199.586C91.383 199.586 209.261 198.241 210.405 198.462C211.549 198.683 210.124 205.427 206.614 205.407C203.104 205.387 97.8009 206.139 96.0972 205.543C94.3935 204.947 89.5656 199.608 91.383 199.586Z" fill="white"/>
<path d="M337.048 106.432C341.033 106.474 369.075 103.649 373.009 104.002C377.039 104.365 428.592 113.577 432.599 113.423C432.903 113.423 433.094 112.997 432.771 112.865C429.042 111.364 378.279 102.608 373.518 102.231C369.41 101.914 344.131 103.628 337.008 106.111C336.965 106.121 336.928 106.145 336.904 106.177C336.879 106.209 336.868 106.248 336.873 106.287C336.878 106.326 336.898 106.362 336.93 106.388C336.962 106.415 337.004 106.431 337.048 106.432Z" fill="white"/>
<path d="M319.585 123.198C350.136 124.419 363.962 111.265 385.504 115.111C386.456 115.279 387.799 115.269 388.002 114.431C388.225 113.539 386.84 113.18 385.832 112.987C377.785 111.178 369.299 111.644 361.567 114.32C348.129 118.981 333.979 121.839 319.585 122.802C319.526 122.802 319.469 122.823 319.427 122.86C319.385 122.897 319.361 122.947 319.361 123C319.361 123.053 319.385 123.103 319.427 123.14C319.469 123.177 319.526 123.198 319.585 123.198Z" fill="white"/>
<path d="M322.183 128.616C332.12 138.644 350.754 134.49 363.354 132.54C375.764 130.615 385.79 135.518 397.807 136.879C402.004 137.36 407.331 137.77 411.243 136.047C411.945 135.735 411.504 134.946 410.884 134.877C408.208 134.587 404.118 135.8 395.374 134.2C389.969 133.214 384.927 131.439 379.639 130.173C366.355 127.017 353.325 133.92 340.186 132.962C324.168 131.802 319.144 123.1 318.827 123.1C319.578 125.096 320.714 126.962 322.183 128.616Z" fill="white"/>
<path d="M328.383 147.944C337.615 148.365 346.874 148.763 356.035 149.885C368.797 151.445 380.922 156.601 393.983 155.911C407.044 155.221 419.445 150.534 432.595 150.44C432.746 150.436 432.89 150.389 433.009 150.307C433.127 150.225 433.212 150.112 433.252 149.983C433.291 149.855 433.283 149.719 433.228 149.595C433.173 149.471 433.075 149.366 432.948 149.296C425.997 146.094 420.089 149.331 410.623 151.004C402.535 152.426 394.679 154.398 386.454 153.424C376.308 152.221 366.717 148.747 356.525 147.613C347.165 146.439 337.67 146.368 328.289 147.402C327.941 147.455 328.048 147.931 328.383 147.944Z" fill="white"/>
<path d="M50.7003 242.052C50.7052 242.05 50.7094 242.048 50.7124 242.044C50.7154 242.04 50.717 242.036 50.717 242.031C50.717 242.027 50.7154 242.022 50.7124 242.019C50.7094 242.015 50.7052 242.012 50.7003 242.011C50.6955 242.012 50.6912 242.015 50.6882 242.019C50.6852 242.022 50.6836 242.027 50.6836 242.031C50.6836 242.036 50.6852 242.04 50.6882 242.044C50.6912 242.048 50.6955 242.05 50.7003 242.052Z" fill="white"/>
<path d="M207.728 234.629C205.721 234.602 202.345 234.58 197.883 234.564C196.808 232.188 198.351 235.722 194.003 226.026C197.91 226.026 200.904 226.026 202.737 226.046C202.921 226.046 203.097 225.981 203.226 225.866C203.356 225.752 203.429 225.596 203.429 225.434C203.429 225.272 203.356 225.116 203.226 225.002C203.097 224.887 202.921 224.823 202.737 224.823C200.862 224.799 197.653 224.777 193.427 224.761C192.41 222.592 192.076 222.258 191.264 221.876C191.2 221.844 191.128 221.825 191.054 221.821C190.981 221.816 190.907 221.826 190.838 221.851C190.769 221.875 190.708 221.912 190.658 221.96C190.607 222.008 190.57 222.066 190.548 222.128C190.287 222.789 190.254 223.191 190.867 224.754C183.049 224.73 172.47 224.716 160.651 224.714C160.187 223.485 159.58 222.302 158.838 221.185C158.785 221.112 158.708 221.055 158.617 221.023C158.525 220.991 158.425 220.986 158.33 221.008C158.235 221.03 158.15 221.078 158.089 221.145C158.027 221.213 157.991 221.296 157.986 221.383C158.016 222.5 158.165 223.613 158.432 224.706C148.372 224.706 137.503 224.706 126.728 224.728C126.674 223.89 126.619 223.051 126.561 222.211C126.552 222.094 126.493 221.985 126.397 221.904C126.3 221.824 126.172 221.78 126.04 221.78C125.907 221.78 125.78 221.824 125.683 221.904C125.587 221.985 125.528 222.094 125.519 222.211C125.423 223.051 125.327 223.892 125.238 224.73C114.01 224.744 102.938 224.765 93.0259 224.793C93.1069 224.03 92.991 223.26 92.687 222.542C92.5911 222.331 92.2766 222.191 92.0804 222.395C91.4503 223.088 91.0408 223.918 90.894 224.799C79.6147 224.832 70.0101 224.874 63.6769 224.921C64.3281 224.029 64.8694 223.077 65.2914 222.083C65.6259 221.241 64.1965 220.471 63.5386 221.187C62.4387 222.405 61.3928 223.661 60.4033 224.951C58.8873 224.959 57.3715 224.984 55.8563 225.026C55.7362 225.026 55.6211 225.068 55.5362 225.143C55.4513 225.218 55.4036 225.32 55.4036 225.426C55.4036 225.532 55.4513 225.634 55.5362 225.709C55.6211 225.784 55.7362 225.827 55.8563 225.827C56.8932 225.896 58.1443 225.957 59.5871 226.014C54.2908 232.975 54.7257 232.227 52.8346 234.75C50.7917 234.757 48.7489 234.784 46.7066 234.833C46.5865 234.833 46.4714 234.875 46.3865 234.95C46.3016 235.025 46.2539 235.127 46.2539 235.233C46.2539 235.339 46.3016 235.441 46.3865 235.516C46.4714 235.591 46.5865 235.633 46.7066 235.633C47.9532 235.712 49.7572 235.779 52.0363 235.831C50.9069 237.377 49.9046 238.993 49.0369 240.667C49.0115 240.706 48.9949 240.749 48.9882 240.793C48.9814 240.838 48.9847 240.883 48.9977 240.926C49.0241 241.014 49.0887 241.089 49.1774 241.134C49.2662 241.18 49.3717 241.192 49.4708 241.169C49.5699 241.146 49.6545 241.089 49.7059 241.01C51.0439 239.29 52.5314 237.568 54.0656 235.882C61.6476 236.034 73.2815 236.095 86.8644 236.105C86.2462 237.611 85.8555 239.183 85.7026 240.779C85.6602 241.353 86.5009 241.432 86.8176 241.048C87.9829 239.534 88.8794 237.871 89.4758 236.117C100.316 236.117 112.266 236.093 124.32 236.054C124.098 237.724 124.313 239.418 124.946 241.004C125.014 241.108 125.112 241.194 125.229 241.254C125.347 241.313 125.48 241.345 125.615 241.345C125.751 241.345 125.884 241.313 126.001 241.254C126.118 241.194 126.216 241.108 126.284 241.004C126.997 239.431 127.29 237.733 127.138 236.044C139.006 236.002 150.892 235.951 161.83 235.908C162.314 237.448 163.001 238.932 163.877 240.33C163.957 240.442 164.076 240.529 164.216 240.578C164.356 240.626 164.51 240.634 164.655 240.599C164.8 240.564 164.929 240.488 165.021 240.384C165.114 240.279 165.167 240.151 165.171 240.018C165.095 238.625 164.85 237.244 164.439 235.898C176.629 235.848 187.502 235.809 195.659 235.807C196.401 237.628 197.416 239.353 198.677 240.935C198.993 241.308 199.899 241.261 199.827 240.661C199.588 238.998 199.12 237.367 198.434 235.805C202.416 235.805 205.587 235.823 207.737 235.852C207.828 235.852 207.918 235.836 208.001 235.804C208.085 235.773 208.161 235.728 208.225 235.67C208.288 235.613 208.339 235.546 208.373 235.471C208.407 235.397 208.425 235.317 208.424 235.237C208.423 235.157 208.405 235.077 208.37 235.003C208.334 234.929 208.283 234.862 208.218 234.806C208.154 234.749 208.077 234.705 207.993 234.675C207.909 234.644 207.819 234.629 207.728 234.629ZM55.1092 234.74C57.928 231.677 60.7645 228.738 62.7916 226.126C69.5931 226.324 79.2646 226.41 90.4012 226.444C89.5926 229.211 88.6106 231.937 87.4598 234.608C73.9795 234.643 62.4816 234.689 55.1092 234.74ZM90.0043 234.602C92.1049 228.345 92.3235 228.29 92.7606 226.45C102.78 226.472 113.87 226.45 125.06 226.404C124.556 231.361 124.719 231.586 124.44 234.537C112.961 234.551 101.483 234.573 90.0043 234.602ZM127.062 234.533C126.933 231.9 127.089 231.18 126.826 226.397C137.753 226.351 148.711 226.284 158.829 226.221C159.386 228.144 158.733 225.714 161.375 234.505C150.555 234.513 138.794 234.519 127.062 234.533ZM163.996 234.515L161.195 226.205C173.07 226.13 183.642 226.061 191.402 226.034C193.144 230.071 192.591 228.525 195.113 234.555C187.036 234.529 176.183 234.517 163.996 234.515Z" fill="white"/>
<path d="M261.894 236.166C260.692 235.785 259.623 235.633 254.423 235.696C252.388 232.184 250.144 228.77 247.702 225.467C249.926 225.575 252.155 225.399 254.323 224.947C254.466 224.907 254.591 224.829 254.679 224.722C254.768 224.616 254.816 224.487 254.816 224.355C254.816 224.222 254.768 224.094 254.679 223.987C254.591 223.881 254.466 223.802 254.323 223.763C251.649 223.239 248.894 223.118 246.174 223.404C245.443 222.436 244.699 221.475 243.944 220.52C243.861 220.402 243.729 220.317 243.577 220.283C243.424 220.25 243.262 220.27 243.126 220.34C242.99 220.411 242.89 220.525 242.848 220.659C242.806 220.793 242.825 220.937 242.901 221.059L244.422 223.457C240.704 223.578 234.688 223.805 230.745 223.962C229.813 222.639 228.705 221.42 227.445 220.331C227.382 220.28 227.303 220.248 227.219 220.24C227.134 220.232 227.049 220.248 226.976 220.286C226.903 220.324 226.845 220.381 226.811 220.45C226.778 220.519 226.77 220.595 226.789 220.668C227.154 221.837 227.638 222.974 228.236 224.065C225.578 224.037 222.924 224.24 220.311 224.67C220.216 224.695 220.134 224.746 220.075 224.816C220.016 224.886 219.984 224.971 219.984 225.058C219.984 225.145 220.016 225.23 220.075 225.3C220.134 225.37 220.216 225.421 220.311 225.446C223.26 225.983 226.283 226.128 229.28 225.876C230.471 227.814 231.822 229.704 232.939 231.53C233.842 233.002 234.692 234.58 235.6 236.132C232.735 236.025 229.866 236.216 227.052 236.7C226.95 236.717 226.858 236.765 226.792 236.836C226.725 236.907 226.689 236.996 226.689 237.088C226.689 237.18 226.725 237.269 226.792 237.339C226.858 237.41 226.95 237.458 227.052 237.475C230.236 238.003 233.484 238.164 236.715 237.955C237.606 239.396 238.672 240.747 239.892 241.984C240.225 242.312 240.755 241.957 240.671 241.59C240.379 240.341 239.942 239.122 239.368 237.953C244.109 237.935 250.382 237.886 253.417 237.846C254.117 238.961 254.916 240.026 255.806 241.03C256.145 241.424 256.956 241.227 256.771 240.673C256.44 239.702 256.039 238.752 255.572 237.826C257.701 237.959 259.842 237.799 261.916 237.351C262.059 237.31 262.184 237.23 262.271 237.122C262.359 237.014 262.405 236.884 262.402 236.751C262.4 236.618 262.349 236.489 262.257 236.384C262.166 236.279 262.038 236.202 261.894 236.166ZM238.365 236.065C237.277 234.15 236.006 232.296 234.897 230.519C233.974 229.043 233.042 227.416 232.016 225.828C235.361 225.763 239.783 225.655 245.71 225.511C248.94 230.639 250.822 233.714 252.073 235.734C249.12 235.771 246.232 235.858 238.365 236.057V236.065Z" fill="white"/>
</svg>
