<svg width="2381" height="1952" viewBox="0 0 2381 1952" fill="none" xmlns="http://www.w3.org/2000/svg">
<rect width="1440" height="1005" transform="translate(452 352)" fill="black"/>
<g filter="url(#filter0_f_833_565)">
<path d="M1732.54 1121.98C1756.52 1333.05 1527.93 1532.33 1221.98 1567.08C916.032 1601.84 585.978 1018.07 562 807.001C538.022 595.936 856.049 1106.26 1162 1071.5C1467.95 1036.74 1708.56 910.916 1732.54 1121.98Z" fill="#887DA0"/>
</g>
<g filter="url(#filter1_f_833_565)">
<path d="M829.527 1223.36C740.73 1123.9 735.655 1047.99 691.345 931.405C605.812 706.357 668.808 558.565 567.146 337.749C359.713 -112.813 1.00854 1305.47 511.216 1564.73C831.949 1727.7 1770.46 1766.77 1487.53 1564.73C1374.54 1484.03 1266.4 1492.55 1138.79 1426.88C1007.1 1359.1 920.144 1324.85 829.527 1223.36Z" fill="url(#paint0_linear_833_565)"/>
</g>
<g filter="url(#filter2_f_833_565)">
<path d="M1637.01 1017.42C1495.14 1028.97 1402.32 1090.36 1311.7 1232.59C1128.11 1520.72 2193.39 1606.83 2046.29 1291.97C1953.54 1093.44 1818.22 1002.67 1637.01 1017.42Z" fill="#50AEA1"/>
</g>
<g filter="url(#filter3_f_833_565)">
<path d="M1641.01 1207.27C1523.11 1215.03 1446.15 1258.55 1371.3 1359.81C1219.66 1564.95 2105.61 1630.12 1982.23 1404.75C1904.43 1262.65 1791.62 1197.36 1641.01 1207.27Z" fill="black"/>
</g>
<defs>
<filter id="filter0_f_833_565" x="240.724" y="435.672" width="1813.54" height="1452.9" filterUnits="userSpaceOnUse" color-interpolation-filters="sRGB">
<feFlood flood-opacity="0" result="BackgroundImageFix"/>
<feBlend mode="normal" in="SourceGraphic" in2="BackgroundImageFix" result="shape"/>
<feGaussianBlur stdDeviation="160" result="effect1_foregroundBlur_833_565"/>
</filter>
<filter id="filter1_f_833_565" x="0" y="0" width="1790" height="1952" filterUnits="userSpaceOnUse" color-interpolation-filters="sRGB">
<feFlood flood-opacity="0" result="BackgroundImageFix"/>
<feBlend mode="normal" in="SourceGraphic" in2="BackgroundImageFix" result="shape"/>
<feGaussianBlur stdDeviation="125" result="effect1_foregroundBlur_833_565"/>
</filter>
<filter id="filter2_f_833_565" x="970.354" y="695.873" width="1409.93" height="1115.78" filterUnits="userSpaceOnUse" color-interpolation-filters="sRGB">
<feFlood flood-opacity="0" result="BackgroundImageFix"/>
<feBlend mode="normal" in="SourceGraphic" in2="BackgroundImageFix" result="shape"/>
<feGaussianBlur stdDeviation="160" result="effect1_foregroundBlur_833_565"/>
</filter>
<filter id="filter3_f_833_565" x="1033.78" y="886.291" width="1280.28" height="980.033" filterUnits="userSpaceOnUse" color-interpolation-filters="sRGB">
<feFlood flood-opacity="0" result="BackgroundImageFix"/>
<feBlend mode="normal" in="SourceGraphic" in2="BackgroundImageFix" result="shape"/>
<feGaussianBlur stdDeviation="160" result="effect1_foregroundBlur_833_565"/>
</filter>
<linearGradient id="paint0_linear_833_565" x1="654.333" y1="750.642" x2="865.275" y2="1524.05" gradientUnits="userSpaceOnUse">
<stop stop-color="#52B3A5"/>
<stop offset="1"/>
</linearGradient>
</defs>
</svg>
