<svg width="17" height="17" viewBox="0 0 17 17" fill="none" xmlns="http://www.w3.org/2000/svg">
<path d="M16.3991 5.11903C16.3902 4.45083 16.2651 3.78927 16.0294 3.16394C15.825 2.63648 15.5129 2.15746 15.1129 1.75747C14.7129 1.35748 14.2339 1.04533 13.7064 0.840949C13.0891 0.609229 12.437 0.483934 11.7778 0.470399C10.9291 0.432462 10.66 0.421875 8.5055 0.421875C6.35102 0.421875 6.07487 0.421875 5.23231 0.470399C4.5734 0.484034 3.92158 0.609327 3.30457 0.840949C2.77703 1.04518 2.29793 1.35729 1.89792 1.75729C1.49791 2.1573 1.18581 2.6364 0.981574 3.16394C0.74939 3.78076 0.624367 4.43273 0.611907 5.09168C0.573969 5.9413 0.5625 6.21039 0.5625 8.36487C0.5625 10.5194 0.5625 10.7946 0.611907 11.6381C0.625141 12.298 0.749539 12.9491 0.981574 13.5676C1.18615 14.0949 1.49849 14.5739 1.89863 14.9737C2.29877 15.3735 2.77791 15.6855 3.30545 15.8897C3.92077 16.1307 4.57271 16.265 5.23319 16.2867C6.08281 16.3246 6.3519 16.3361 8.50638 16.3361C10.6609 16.3361 10.937 16.3361 11.7796 16.2867C12.4388 16.2737 13.0909 16.1487 13.7082 15.917C14.2355 15.7124 14.7144 15.4002 15.1144 15.0002C15.5143 14.6003 15.8266 14.1214 16.0312 13.594C16.2632 12.9765 16.3876 12.3253 16.4009 11.6645C16.4388 10.8158 16.4503 10.5467 16.4503 8.39134C16.4485 6.23686 16.4485 5.96336 16.3991 5.11903ZM8.5002 12.4392C6.24691 12.4392 4.42151 10.6138 4.42151 8.36046C4.42151 6.10717 6.24691 4.28177 8.5002 4.28177C9.58194 4.28177 10.6194 4.71149 11.3843 5.47639C12.1492 6.24129 12.5789 7.27872 12.5789 8.36046C12.5789 9.4422 12.1492 10.4796 11.3843 11.2445C10.6194 12.0094 9.58194 12.4392 8.5002 12.4392ZM12.7412 5.08198C12.6163 5.08209 12.4926 5.05757 12.3771 5.00982C12.2617 4.96206 12.1568 4.89201 12.0685 4.80367C11.9801 4.71533 11.9101 4.61044 11.8623 4.495C11.8146 4.37956 11.79 4.25583 11.7902 4.1309C11.7902 4.00606 11.8147 3.88244 11.8625 3.76711C11.9103 3.65177 11.9803 3.54697 12.0686 3.4587C12.1569 3.37042 12.2617 3.3004 12.377 3.25263C12.4923 3.20485 12.616 3.18026 12.7408 3.18026C12.8656 3.18026 12.9892 3.20485 13.1046 3.25263C13.2199 3.3004 13.3247 3.37042 13.413 3.4587C13.5013 3.54697 13.5713 3.65177 13.6191 3.76711C13.6668 3.88244 13.6914 4.00606 13.6914 4.1309C13.6914 4.65673 13.2662 5.08198 12.7412 5.08198Z" fill="#626F8A"/>
<path d="M16.3991 5.11903C16.3902 4.45083 16.2651 3.78927 16.0294 3.16394C15.825 2.63648 15.5129 2.15746 15.1129 1.75747C14.7129 1.35748 14.2339 1.04533 13.7064 0.840949C13.0891 0.609229 12.437 0.483934 11.7778 0.470399C10.9291 0.432462 10.66 0.421875 8.5055 0.421875C6.35102 0.421875 6.07487 0.421875 5.23231 0.470399C4.5734 0.484034 3.92158 0.609327 3.30457 0.840949C2.77703 1.04518 2.29793 1.35729 1.89792 1.75729C1.49791 2.1573 1.18581 2.6364 0.981574 3.16394C0.74939 3.78076 0.624367 4.43273 0.611907 5.09168C0.573969 5.9413 0.5625 6.21039 0.5625 8.36487C0.5625 10.5194 0.5625 10.7946 0.611907 11.6381C0.625141 12.298 0.749539 12.9491 0.981574 13.5676C1.18615 14.0949 1.49849 14.5739 1.89863 14.9737C2.29877 15.3735 2.77791 15.6855 3.30545 15.8897C3.92077 16.1307 4.57271 16.265 5.23319 16.2867C6.08281 16.3246 6.3519 16.3361 8.50638 16.3361C10.6609 16.3361 10.937 16.3361 11.7796 16.2867C12.4388 16.2737 13.0909 16.1487 13.7082 15.917C14.2355 15.7124 14.7144 15.4002 15.1144 15.0002C15.5143 14.6003 15.8266 14.1214 16.0312 13.594C16.2632 12.9765 16.3876 12.3253 16.4009 11.6645C16.4388 10.8158 16.4503 10.5467 16.4503 8.39134C16.4485 6.23686 16.4485 5.96336 16.3991 5.11903ZM8.5002 12.4392C6.24691 12.4392 4.42151 10.6138 4.42151 8.36046C4.42151 6.10717 6.24691 4.28177 8.5002 4.28177C9.58194 4.28177 10.6194 4.71149 11.3843 5.47639C12.1492 6.24129 12.5789 7.27872 12.5789 8.36046C12.5789 9.4422 12.1492 10.4796 11.3843 11.2445C10.6194 12.0094 9.58194 12.4392 8.5002 12.4392ZM12.7412 5.08198C12.6163 5.08209 12.4926 5.05757 12.3771 5.00982C12.2617 4.96206 12.1568 4.89201 12.0685 4.80367C11.9801 4.71533 11.9101 4.61044 11.8623 4.495C11.8146 4.37956 11.79 4.25583 11.7902 4.1309C11.7902 4.00606 11.8147 3.88244 11.8625 3.76711C11.9103 3.65177 11.9803 3.54697 12.0686 3.4587C12.1569 3.37042 12.2617 3.3004 12.377 3.25263C12.4923 3.20485 12.616 3.18026 12.7408 3.18026C12.8656 3.18026 12.9892 3.20485 13.1046 3.25263C13.2199 3.3004 13.3247 3.37042 13.413 3.4587C13.5013 3.54697 13.5713 3.65177 13.6191 3.76711C13.6668 3.88244 13.6914 4.00606 13.6914 4.1309C13.6914 4.65673 13.2662 5.08198 12.7412 5.08198Z" fill="black" fill-opacity="0.2"/>
<path d="M8.50099 11.0098C9.96423 11.0098 11.1504 9.82361 11.1504 8.36037C11.1504 6.89713 9.96423 5.71094 8.50099 5.71094C7.03775 5.71094 5.85156 6.89713 5.85156 8.36037C5.85156 9.82361 7.03775 11.0098 8.50099 11.0098Z" fill="#626F8A"/>
<path d="M8.50099 11.0098C9.96423 11.0098 11.1504 9.82361 11.1504 8.36037C11.1504 6.89713 9.96423 5.71094 8.50099 5.71094C7.03775 5.71094 5.85156 6.89713 5.85156 8.36037C5.85156 9.82361 7.03775 11.0098 8.50099 11.0098Z" fill="black" fill-opacity="0.2"/>
</svg>
