<svg width="395" height="397" viewBox="0 0 395 397" fill="none" xmlns="http://www.w3.org/2000/svg">
<path d="M259.931 215.573C259.612 202.655 260.128 189.734 259.9 176.815C259.412 148.683 258.932 120.549 258.459 92.4124C258.372 87.1424 257.731 80.9929 252.427 78.131C249.212 76.3951 245.119 76.4034 241.291 76.4872C216.786 77.0231 192.348 76.1354 167.873 77.2811C158.411 77.7233 150.938 80.2038 150.591 88.9374C149.889 106.584 151.005 220.843 151.576 230.418C151.774 233.857 150.441 248.007 154.177 251.344C156.469 253.391 181.433 252.094 182.973 251.647C185.63 250.876 193.271 236.867 200.9 230.54C193.947 230.847 167.272 232.513 165.811 229.672C164.35 226.832 164.021 104.807 163.248 96.0025C190.695 96.4036 218.143 96.2096 245.592 95.4206C246.82 139.902 244.686 176.265 245.675 204.966C245.872 210.846 247.987 221.629 243.891 226.771C241.652 229.582 237.189 229.401 233.183 229.373C230.005 229.357 215.978 230.267 215.302 230.136C217.273 230.519 217.902 232.578 217.864 234.257C217.766 239.808 214.62 244.953 211.903 250.021C210.354 252.912 212.735 252.71 215.44 252.697C218.144 252.684 238.153 252.406 245.417 251.776C251.419 251.257 256.107 251.98 258.206 246.799C261.922 237.638 260.168 225.171 259.931 215.573Z" fill="#C1E691"/>
<path d="M221.749 185.812H224.066M214.799 185.812H210.165V180.037M217.116 180.037H224.066V174.263H221.749M210.165 174.263H214.799M186.997 180.037C186.997 178.243 186.997 177.346 187.35 176.639C187.82 175.695 188.722 174.946 189.857 174.556C190.708 174.263 191.788 174.263 193.947 174.263C196.106 174.263 197.187 174.263 198.038 174.556C199.173 174.946 200.075 175.695 200.545 176.639C200.898 177.346 200.898 178.243 200.898 180.037C200.898 181.831 200.898 182.728 200.545 183.435C200.075 184.379 199.173 185.128 198.038 185.519C197.187 185.812 196.106 185.812 193.947 185.812C191.788 185.812 190.708 185.812 189.857 185.519C188.722 185.128 187.82 184.379 187.35 183.436C186.997 182.728 186.997 181.83 186.997 180.037ZM210.165 160.788C210.165 158.994 210.165 158.097 210.518 157.39C210.988 156.446 211.89 155.697 213.025 155.307C213.876 155.014 214.956 155.014 217.115 155.014C219.274 155.014 220.355 155.014 221.206 155.307C222.342 155.697 223.243 156.446 223.713 157.39C224.066 158.097 224.066 158.995 224.066 160.788C224.066 162.582 224.066 163.479 223.713 164.186C223.243 165.13 222.342 165.879 221.206 166.27C220.355 166.563 219.274 166.563 217.115 166.563C214.956 166.563 213.876 166.563 213.025 166.27C211.89 165.879 210.988 165.13 210.518 164.187C210.165 163.479 210.165 162.582 210.165 160.788ZM186.997 160.788C186.997 158.994 186.997 158.097 187.35 157.39C187.82 156.446 188.722 155.697 189.857 155.307C190.708 155.014 191.788 155.014 193.947 155.014C196.106 155.014 197.187 155.014 198.038 155.307C199.173 155.697 200.075 156.446 200.545 157.39C200.898 158.097 200.898 158.995 200.898 160.788C200.898 162.582 200.898 163.479 200.545 164.186C200.075 165.13 199.173 165.879 198.038 166.27C197.187 166.563 196.106 166.563 193.947 166.563C191.788 166.563 190.708 166.563 189.857 166.27C188.722 165.879 187.82 165.13 187.35 164.187C186.997 163.479 186.997 162.582 186.997 160.788Z" stroke="#FEFEFE" stroke-width="2" stroke-linecap="round" stroke-linejoin="round"/>
<path d="M193.429 144.711C193.611 144.665 193.77 144.571 193.883 144.444C193.996 144.316 194.058 144.162 194.058 144.003C194.058 143.845 193.996 143.69 193.883 143.563C193.77 143.435 193.611 143.342 193.429 143.296C190.107 142.533 175.648 142.73 171.942 142.737C171.584 142.739 171.242 142.859 170.989 143.07C170.736 143.281 170.593 143.566 170.59 143.864C170.537 149.177 170.819 154.488 171.433 159.776C171.448 159.892 171.513 159.999 171.616 160.076C171.719 160.154 171.853 160.197 171.992 160.197C172.131 160.197 172.265 160.154 172.369 160.076C172.472 159.999 172.537 159.892 172.551 159.776C173.131 154.845 173.284 149.945 173.294 145.005C176.547 145.003 190.08 145.378 193.429 144.711Z" fill="#C1E691"/>
<path d="M235.977 157.704C236.252 153.135 236.205 148.558 235.837 143.994C235.831 143.696 235.686 143.411 235.432 143.2C235.179 142.989 234.837 142.868 234.479 142.863C228.069 142.91 221.668 143.253 215.304 143.891C215.133 143.891 214.969 143.947 214.848 144.048C214.728 144.149 214.66 144.286 214.66 144.428C214.66 144.571 214.728 144.707 214.848 144.808C214.969 144.909 215.133 144.966 215.304 144.966C221.269 145.294 227.199 145.262 233.168 145.148C233.167 149.414 233.514 153.676 234.209 157.902C234.388 158.792 235.89 158.483 235.977 157.704Z" fill="#C1E691"/>
<path d="M215.439 199.381C221.317 199.815 227.225 199.655 233.123 199.598C233.481 199.596 233.824 199.477 234.077 199.266C234.33 199.055 234.473 198.769 234.475 198.47C234.645 194.134 234.284 189.795 233.397 185.52C233.241 184.922 232.003 184.878 231.885 185.52C231.375 189.452 231.321 193.415 231.723 197.356C226.289 197.403 220.848 197.425 215.445 197.923C215.22 197.931 215.008 198.011 214.852 198.146C214.696 198.282 214.609 198.462 214.608 198.649C214.607 198.837 214.693 199.018 214.848 199.154C215.002 199.29 215.214 199.371 215.439 199.381Z" fill="#C1E691"/>
<path d="M174 196.011C173.409 191.856 173.125 187.679 172.725 183.508C172.711 183.35 172.626 183.202 172.487 183.094C172.347 182.986 172.164 182.926 171.974 182.926C171.784 182.926 171.6 182.986 171.461 183.094C171.322 183.202 171.237 183.35 171.223 183.508C170.819 188.05 170.917 192.612 171.515 197.139C171.529 197.428 171.674 197.701 171.919 197.905C172.164 198.109 172.493 198.229 172.839 198.24C174.838 198.539 176.897 198.331 178.753 197.645C178.911 197.563 179.037 197.445 179.116 197.305C179.195 197.165 179.225 197.009 179.2 196.856C179.176 196.702 179.1 196.558 178.98 196.439C178.86 196.321 178.702 196.234 178.524 196.189C177.039 195.918 175.51 195.858 174 196.011Z" fill="#C1E691"/>
<path d="M206.162 316.209C194.251 314.391 180.1 315.277 169.21 320.251C177.76 309.073 185.491 297.402 193.063 285.761C200.857 273.784 208.856 261.679 214.678 248.939C217.079 243.679 220.972 236.665 218.029 231.076C215.555 226.365 209.006 225.615 203.95 227.852C199.051 230.022 195.495 234.276 192.319 237.972C185.555 246.222 179.347 254.78 173.722 263.605C171.517 257.752 162.472 254.607 157.079 258.861C154.406 253.09 146.412 249.434 139.88 252.828C139.334 249.915 137.62 247.241 135.019 245.244C131.577 242.934 126.816 243.151 122.864 244.328C115.542 246.511 104.838 254.116 99.3878 258.641C85.6139 270.046 75.6321 284.241 70.4219 299.833C67.9026 307.531 66.5365 316.161 69.2983 323.92C66.8064 326.525 64.5465 329.28 62.5368 332.16C59.936 331.163 57.3077 330.228 54.6517 329.354C43.4648 342.119 32.5124 355.031 22.1888 368.291C17.4085 374.429 12.0308 381.358 22.4273 385.924C32.2048 390.218 121.612 389.436 125.481 385.006C126.204 384.171 126.68 383.206 126.869 382.189C127.059 381.172 126.958 380.132 126.574 379.154C125.515 376.4 116.339 366.616 113.894 364.279C115.954 362.16 117.7 359.842 119.095 357.375C119.367 356.806 118.456 356.3 117.882 356.599C115.156 358.021 112.053 362.669 112.053 362.669C112.053 362.669 82.5748 340.123 64.1966 332.815C66.3812 330.77 68.4179 328.618 70.2957 326.371C70.6506 327.096 71.0389 327.811 71.4785 328.508C71.5938 328.665 71.7729 328.783 71.9833 328.839C72.1937 328.896 72.4214 328.888 72.6253 328.817C72.8291 328.745 72.9955 328.615 73.0944 328.45C73.1932 328.285 73.2179 328.096 73.1639 327.918C67.1318 313.169 72.5726 297.254 80.7474 283.813C88.4597 271.088 99.6292 260.041 113.366 251.551C117.454 249.031 122.103 246.136 127.325 245.714C133.566 245.209 137.295 250.111 137.435 254.919C137.444 255.141 137.528 255.355 137.68 255.537C137.831 255.72 138.041 255.862 138.287 255.946C138.532 256.031 138.802 256.055 139.063 256.015C139.324 255.975 139.566 255.873 139.759 255.722C144.895 251.658 153.574 253.954 155.175 261.569C155.254 261.778 155.403 261.965 155.605 262.106C155.807 262.248 156.053 262.338 156.315 262.366C156.576 262.394 156.842 262.359 157.081 262.266C157.319 262.172 157.52 262.023 157.661 261.837C158.488 260.669 159.794 259.789 161.337 259.36C162.88 258.93 164.557 258.98 166.06 259.499C170.907 261.143 171.44 265.558 172.171 266.091C169.732 270.026 167.553 274.07 165.644 278.204C165.337 278.876 166.65 279.332 167.038 278.697C172.725 269.382 194.117 235.026 204.957 229.97C208.342 228.39 213.01 228.234 215.208 231.352C217.244 234.245 216.194 237.753 215.141 240.763C207.453 262.77 180.504 299.542 165.256 321.385C164.974 321.788 164.664 323.997 168.053 322.56C178.668 318.048 203.554 315.121 214.449 321.065C217.049 322.483 219.596 326.062 215.614 326.701C209.264 327.724 186.833 332.645 176.411 335.722C166.23 338.731 157.304 343.217 147.974 347.653C137.733 352.524 124.636 356.768 113.524 351.201C113.213 351.048 112.842 351.005 112.492 351.08C112.143 351.156 111.844 351.344 111.661 351.603C111.478 351.863 111.426 352.172 111.517 352.463C111.607 352.755 111.833 353.004 112.144 353.157C122.113 358.139 134.181 356.017 144.041 351.976C149.732 349.646 154.846 346.443 160.537 344.122C188.162 332.867 205.34 332.298 215.099 329.343C219.068 328.141 222.094 325.168 219.328 321.74C216.562 318.313 210.737 316.909 206.162 316.209Z" fill="white"/>
<path d="M266.474 152.547C269.709 163.067 267.657 173.269 273.833 183.209C277.801 189.6 283.991 194.917 286.092 202.078C287.932 209.178 286.683 216.591 282.57 222.994C282.442 223.176 282.406 223.392 282.47 223.596C282.534 223.8 282.693 223.974 282.911 224.08C283.129 224.187 283.388 224.216 283.633 224.163C283.877 224.11 284.086 223.978 284.214 223.796C285.022 222.861 285.742 221.875 286.366 220.847C287.746 222.279 295.558 228.431 297.81 230.254C298.458 230.779 299.375 229.99 298.795 229.433C296.733 227.434 289.434 220.096 287.468 218.809C289.582 214.164 290.227 209.144 289.339 204.231C287.959 196.505 282.371 190.79 277.695 184.303C267.866 170.66 274.61 152.016 262.983 141.76C261.997 140.895 260.154 142.034 260.98 143.06C263.466 145.929 265.326 149.14 266.474 152.547Z" fill="white"/>
<path d="M261.309 266.392C262.52 267.049 264.028 265.478 262.871 264.702C259.93 262.746 256.841 260.949 253.623 259.323C256.122 258.734 258.398 257.62 260.233 256.088C260.891 255.411 260.302 254.234 259.135 254.523C256.178 255.255 253.602 256.966 250.596 257.767C245.823 258.97 240.811 259.368 235.852 258.939C230.893 258.51 226.085 257.262 221.71 255.268C221.192 255.038 220.488 255.663 221.024 256.014C226.608 259.561 233.457 261.442 240.475 261.357C244.136 261.121 247.77 260.65 251.345 259.948C251.345 259.948 257.781 264.493 261.309 266.392Z" fill="white"/>
<path d="M372.834 272.891C364.326 260.089 351.765 248.472 339.126 238.43C337.212 236.91 319.366 221.553 318.453 222.211C294.127 239.76 272.891 260.084 255.372 282.58C251.164 287.986 251.568 290.289 255.975 294.897C268.65 308.144 282.545 320.546 297.534 331.989C308.129 340.082 323.971 353.62 339.488 352.33C349.51 351.497 358.377 346.003 364.052 339.068C369.678 332.193 372.84 323.913 375.115 315.778C378.88 302.327 381.183 285.453 372.834 272.891ZM289.361 296.989C286.672 297.451 277.533 297.019 276.26 290.279C276.048 288.558 276.499 286.825 277.548 285.333C278.597 283.84 280.19 282.665 282.095 281.978C285.988 280.458 289.893 281.391 293.331 283.666C296.392 285.713 300.721 295.03 289.361 296.989Z" fill="white"/>
<path d="M52.8179 140.06C63.5587 146.331 73.1916 153.827 81.4348 162.33C82.7418 163.624 84.1946 162.606 85.1803 161.549C98.2813 147.432 115.443 127.737 132.956 115.619C134.336 114.669 131.854 113.684 130.381 114.546C118.378 121.539 90.688 147.279 82.8088 157.688C74.3912 150.083 64.7757 143.465 54.2254 138.015C52.2048 136.986 50.8565 138.972 52.8179 140.06Z" fill="#C1E691"/>
<path d="M64.6145 138.511C68.0149 138.84 92.6992 137.97 96.5491 137.913C98.4691 137.883 98.611 135.325 96.6595 135.388C92.7741 135.511 67.8789 135.991 64.3897 136.507C62.9606 136.718 63.3351 138.385 64.6145 138.511Z" fill="#C1E691"/>
<path d="M107.23 167.958C107.315 161.828 106.597 155.257 106.558 149.09C106.558 147.528 103.952 147.79 103.968 149.35C104.032 155.882 104.098 162.41 104.165 168.932C98.2827 168.932 71.7415 169.532 65.6857 170.481C65.047 164.874 64.7415 159.222 63.7519 153.645C63.7016 153.424 63.5552 153.226 63.341 153.09C63.1267 152.954 62.8596 152.888 62.5908 152.906C62.3221 152.923 62.0706 153.023 61.8847 153.186C61.6988 153.349 61.5916 153.563 61.5835 153.788C61.8969 159.265 62.1749 164.861 62.6776 170.338C62.9456 173.252 62.9575 173.058 66.4052 172.849C78.3432 172.125 90.4981 171.534 102.466 171.444C105.919 171.416 107.179 171.613 107.23 167.958Z" fill="#C1E691"/>
<path d="M282.202 65.1929C265.578 54.6396 263.688 29.7951 276.41 16.4112C290.209 1.89797 320.131 -3.76331 339.805 4.78286C365.216 15.8243 371.719 52.9301 350.647 69.5342C338.127 79.397 320.194 83.5066 294.714 75.6985C288.518 80.4162 280.166 85.1224 271.847 86.3191C271.654 86.35 271.456 86.3342 271.274 86.2736C271.092 86.213 270.934 86.1102 270.82 85.9774C270.706 85.8445 270.64 85.6872 270.63 85.524C270.62 85.3608 270.666 85.1987 270.763 85.0567C273.974 80.408 280.27 70.3906 282.202 65.1929ZM273.775 84.1657C280.97 82.3575 288.059 77.8634 293.417 73.5007C293.607 73.3477 293.845 73.2425 294.104 73.1972C294.362 73.1518 294.631 73.1682 294.879 73.2443C313.892 78.9779 333.502 79.162 348.289 67.458C367.596 52.1706 361.496 17.4862 338.202 7.34556C319.995 -0.580889 291.907 4.72861 278.997 18.1322C267.023 30.5644 268.758 54.3914 284.428 63.9123C284.64 64.0399 284.8 64.2186 284.886 64.4244C284.972 64.6301 284.981 64.8531 284.911 65.063C283.247 69.9895 276.818 79.7192 273.775 84.1657Z" fill="white"/>
<path fill-rule="evenodd" clip-rule="evenodd" d="M307.717 35.8307C303.515 35.9514 300.246 36.0057 300.246 36.0057C300.003 36.0142 299.769 36.0757 299.569 36.182C299.369 36.2882 299.212 36.4367 299.114 36.6081C299.017 36.7807 298.985 36.9702 299.019 37.1561C299.053 37.3432 299.156 37.517 299.312 37.6607C299.312 37.6607 302.635 40.6664 304.564 42.3805C303.25 45.3174 302.173 47.9332 302.173 47.9332C302.1 48.1251 302.103 48.3291 302.182 48.5187C302.261 48.7082 302.412 48.8759 302.615 48.9979C302.819 49.1198 303.065 49.1922 303.322 49.2031C303.578 49.2152 303.834 49.1669 304.055 49.0643L309.405 46.6428C312.695 49.4723 315.7 51.9782 315.7 51.9782C315.871 52.1243 316.097 52.2257 316.346 52.2679C316.595 52.3102 316.853 52.2921 317.088 52.216C317.323 52.14 317.522 52.0096 317.658 51.843C317.793 51.6765 317.859 51.4809 317.846 51.2829C317.846 51.2829 317.27 45.4743 317.004 42.6823C321.861 39.9457 326.836 36.87 326.836 36.87C327.044 36.7505 327.197 36.5827 327.271 36.3896C327.348 36.1977 327.342 35.9912 327.254 35.8017C327.167 35.6122 327.004 35.4505 326.787 35.3382C326.573 35.2259 326.316 35.1716 326.057 35.1801C326.057 35.1801 321.12 35.3829 315.555 35.5796C314.728 32.4773 313.833 29.2809 313.833 29.2809C313.787 29.1252 313.679 28.9852 313.527 28.8777C313.374 28.7703 313.183 28.7027 312.977 28.6822C312.773 28.6617 312.566 28.6906 312.383 28.7655C312.2 28.8391 312.051 28.955 311.956 29.0962C309.735 32.4182 307.789 35.7088 307.717 35.8307Z" fill="#C1E691"/>
<path d="M319.153 62.6215C336.781 59.9297 348.119 43.3941 340.204 29.6996C328.413 9.29102 284.516 17.099 283.572 40.4478C282.986 54.9484 302.15 65.2166 319.153 62.6215ZM290.968 29.6088C301.576 17.978 326.263 16.5819 335.857 27.9727C345.286 39.1783 337.801 55.5742 321.827 59.8078C299.361 65.766 275.616 46.4406 290.968 29.6088Z" fill="#C1E691"/>
</svg>
