<svg width="42" height="28" viewBox="0 0 42 28" fill="none" xmlns="http://www.w3.org/2000/svg">
<path d="M15.2565 27.2056C10.342 26.7318 6.00163 24.7218 3.17852 21.6086C1.56723 19.8355 0.590388 17.9106 0.150641 15.6415C-0.0507697 14.6087 -0.0507697 12.8985 0.153998 11.8547C0.768301 8.7008 2.61457 5.94303 5.52495 3.83675C12.1614 -0.960657 22.3293 -0.938447 28.9054 3.89228C29.7782 4.53268 30.3421 5.04351 31.1343 5.90231C32.1313 6.98691 32.8329 8.06781 33.5714 9.65214C33.5983 9.71136 33.7359 9.7854 33.8735 9.81501C34.3401 9.92236 34.9611 10.3221 35.4613 10.8367C35.8507 11.2365 36.1495 11.6733 36.8913 12.9096C37.6399 14.1571 41.0236 19.917 41.2284 20.2945C41.3089 20.4426 41.1512 20.6758 40.9733 20.6758C40.8457 20.6758 40.7584 20.5833 40.5704 20.2575C40.4395 20.028 39.5768 18.551 38.6537 16.9741C35.3875 11.3993 35.2129 11.1402 34.3032 10.6368L33.8265 10.374H32.4234C31.0202 10.374 31.0202 10.374 30.9866 10.5368C30.802 11.429 30.7651 11.6474 30.8054 11.6881C30.8322 11.714 31.6278 12.2137 32.5744 12.7986L34.2965 13.861L34.1891 14.109C34.1286 14.246 34.0615 14.357 34.038 14.357C34.0145 14.357 32.5644 13.4723 30.8154 12.3877C29.0665 11.3068 27.5324 10.3888 27.4082 10.3518C26.9114 10.2 26.1461 10.8071 26.1461 11.3549C26.1461 11.9102 26.2938 12.0694 29.3686 14.8456C31.2854 16.578 32.3831 17.6182 32.5509 17.8625C32.8564 18.3104 33.1652 18.9693 33.4472 19.78C33.9474 21.2089 34.7597 22.0047 36.0924 22.3749L36.5321 22.4971L36.4952 22.7599C36.4751 22.9042 36.4482 23.0375 36.4314 23.056C36.3744 23.1263 35.4915 22.8154 34.9813 22.5452C34.1824 22.1232 33.6318 21.5198 33.0914 20.4685C33.088 20.4611 32.7725 20.5796 32.3965 20.7313C31.7251 21.0016 31.6916 21.0238 31.0571 21.7086C28.3482 24.6255 24.4609 26.4875 19.7714 27.1205C19.0027 27.2389 16.0688 27.2871 15.2565 27.2056ZM19.9258 26.3098C22.0776 25.9952 23.7493 25.5251 25.4948 24.7366C27.3277 23.9074 29.0598 22.7192 30.2683 21.4532L30.7449 20.9534L29.5432 20.3205C28.2609 19.643 28.1333 19.532 27.9688 18.9286C27.8648 18.5473 27.9823 18.1402 28.3112 17.7515L28.5663 17.4442L28.0091 16.9778C27.5694 16.6076 27.4317 16.4485 27.3445 16.2042C27.2068 15.8081 27.2572 15.3787 27.4787 15.0344L27.6466 14.7716L25.8876 14.431C24.9208 14.2423 24.0178 14.0535 23.8835 14.009C23.6184 13.9239 23.3532 13.5908 23.2827 13.2687C23.2457 13.0947 24.1085 8.45278 24.2998 7.79018C24.3871 7.49404 24.753 7.13498 25.0316 7.07945C25.3236 7.02022 30.5066 8.02339 30.7651 8.18996C31.1746 8.45278 31.3022 8.87478 31.1746 9.52628L31.1209 9.7965H31.4062C31.564 9.7965 31.9366 9.77429 32.2354 9.74838L32.7792 9.70026L32.5106 9.1487C31.7016 7.48664 30.228 5.80606 28.4119 4.47345C27.5627 3.85156 25.7533 2.86691 24.6623 2.43751C23.1115 1.82673 21.235 1.36772 19.4324 1.16042C18.4421 1.04567 15.854 1.04937 14.8939 1.16412C12.5945 1.43805 10.5065 2.01181 8.68039 2.87061C4.45076 4.85843 1.60751 8.15294 0.879077 11.9065C0.687737 12.8874 0.674309 14.605 0.848865 15.4971C1.2349 17.4701 2.07411 19.1766 3.44035 20.7647C6.22653 24 10.483 25.9915 15.5854 26.4394C16.2702 26.4986 19.231 26.4098 19.9258 26.3098ZM18.996 22.7784C18.7341 22.6932 18.4656 22.349 18.4085 22.0195C18.3716 21.8048 18.4152 21.6568 18.6939 21.0608C19.8218 18.6547 20.3119 16.4411 20.3119 13.7573C20.3119 11.1624 19.8788 9.1413 18.8013 6.72038C18.5697 6.20215 18.3817 5.71722 18.3817 5.64689C18.3817 5.38777 18.5764 5.0139 18.7879 4.86953C19.0765 4.66964 19.5633 4.70666 19.7983 4.94727C19.8889 5.03981 20.1205 5.4618 20.3152 5.8838C21.0873 7.55327 21.6143 9.38561 21.8762 11.292C22.0373 12.4728 22.0709 14.7087 21.9399 15.7896C21.7016 17.7811 21.2249 19.5616 20.4596 21.3014C19.9963 22.3527 19.7076 22.7858 19.4659 22.7858C19.4189 22.7858 19.3384 22.8006 19.2914 22.8154C19.2444 22.8302 19.1101 22.8154 18.996 22.7784ZM15.8573 20.9683C15.4545 20.8387 15.1625 20.2908 15.2799 19.8837C15.3068 19.7837 15.4981 19.3284 15.7029 18.8694C16.5656 16.926 16.9248 14.8456 16.7502 12.8023C16.6059 11.1217 16.334 10.063 15.6458 8.51571C15.186 7.47553 15.1625 7.31636 15.431 6.89436C15.6861 6.49458 16.3239 6.43165 16.6563 6.76851C16.8879 7.00171 17.6096 8.66378 17.8882 9.60401C18.808 12.7134 18.667 16.0561 17.4888 19.11C16.8812 20.6758 16.4548 21.1607 15.8573 20.9683ZM12.6213 19.1322C12.3729 19.0101 12.1581 18.7176 12.0977 18.4252C12.0607 18.2475 12.1245 18.0476 12.4199 17.3887C13.5075 14.9604 13.5176 12.6246 12.4568 10.2518C11.9902 9.21163 11.9802 9.00434 12.3729 8.59345C12.5676 8.38985 12.6515 8.35654 12.9234 8.35654C13.3833 8.35654 13.6217 8.61196 14.0312 9.54109C14.6623 10.9699 14.9208 12.21 14.9174 13.798C14.9141 15.4305 14.6724 16.5521 14.001 18.0587C13.615 18.9212 13.4236 19.1507 13.0376 19.2062C12.9201 19.2173 12.7321 19.1877 12.6213 19.1322ZM9.60017 17.422C9.40211 17.3332 9.1772 17.037 9.11007 16.7779C9.03621 16.4892 9.09664 16.2597 9.39204 15.7229C9.77472 15.0307 9.862 14.6605 9.862 13.7573C9.862 12.8541 9.77472 12.4802 9.39204 11.7917C9.26112 11.5585 9.13356 11.2772 9.10335 11.1661C8.97915 10.7108 9.3249 10.1519 9.78815 10.0556C10.1809 9.97418 10.4494 10.1667 10.812 10.7886C11.856 12.5876 11.856 14.9863 10.812 16.7705C10.4427 17.3961 10.0332 17.6182 9.60017 17.422ZM32.1011 20.2131C32.4502 20.0761 32.7523 19.9466 32.7725 19.9244C32.7926 19.9022 32.7255 19.6579 32.6214 19.3765C32.4133 18.8028 32.4469 18.8176 31.7016 18.973C30.8994 19.1433 30.4328 18.9915 29.5533 18.2771C29.3149 18.0809 29.0665 17.9217 29.0061 17.9217C28.9423 17.9217 28.808 18.0217 28.7006 18.1476C28.4757 18.4141 28.4421 18.8287 28.6234 19.0767C28.7845 19.2914 30.99 20.45 31.2518 20.4574C31.3693 20.4611 31.7486 20.3501 32.1011 20.2131ZM31.752 18.3511C32.0776 18.2771 32.1145 18.2549 32.0575 18.1364C31.9937 18.0069 28.9423 15.2158 28.6771 15.0418C28.4589 14.9012 28.281 14.9345 28.0997 15.1492C27.5694 15.7748 27.6331 15.908 29.0061 17.0667C30.6644 18.4696 30.8423 18.551 31.752 18.3511ZM27.6566 14.1201C27.6566 14.1016 27.3109 13.7721 26.8879 13.3909C25.8439 12.4432 25.619 12.0879 25.619 11.3845C25.619 10.7997 25.9749 10.2333 26.5455 9.90755C26.8275 9.74468 27.3344 9.69656 27.6197 9.8002C27.8211 9.87424 28.7342 10.4184 29.9964 11.218L30.2616 11.3882L30.4798 10.2407C30.7047 9.06727 30.708 8.75632 30.4999 8.68599C30.4361 8.66378 29.2176 8.41947 27.7943 8.14184C25.2632 7.64951 24.9846 7.6199 24.8671 7.8309C24.8033 7.94195 23.8399 12.8652 23.8399 13.0725C23.8399 13.1762 23.8869 13.3057 23.9473 13.3612C24.0044 13.4168 24.8268 13.613 25.7735 13.798C27.5996 14.1608 27.6566 14.1719 27.6566 14.1201Z" fill="white"/>
</svg>
