<svg width="20" height="21" viewBox="0 0 20 21" fill="none" xmlns="http://www.w3.org/2000/svg">
<path fill-rule="evenodd" clip-rule="evenodd" d="M10.5877 4.42077C10.2631 4.09616 9.73677 4.09616 9.41216 4.42077C9.08775 4.74518 9.08751 5.27107 9.41163 5.59577L13.4749 9.66634H4.16659C3.70635 9.66634 3.33325 10.0394 3.33325 10.4997C3.33325 10.9599 3.70635 11.333 4.16659 11.333H13.4749L9.41163 15.4036C9.08751 15.7283 9.08775 16.2542 9.41216 16.5786C9.73677 16.9032 10.2631 16.9032 10.5877 16.5786L16.6666 10.4997L10.5877 4.42077Z" fill="black" fill-opacity="0.7"/>
<mask id="mask0_595_738" style="mask-type:luminance" maskUnits="userSpaceOnUse" x="3" y="4" width="14" height="13">
<path fill-rule="evenodd" clip-rule="evenodd" d="M10.5877 4.42077C10.2631 4.09616 9.73677 4.09616 9.41216 4.42077C9.08775 4.74518 9.08751 5.27107 9.41163 5.59577L13.4749 9.66634H4.16659C3.70635 9.66634 3.33325 10.0394 3.33325 10.4997C3.33325 10.9599 3.70635 11.333 4.16659 11.333H13.4749L9.41163 15.4036C9.08751 15.7283 9.08775 16.2542 9.41216 16.5786C9.73677 16.9032 10.2631 16.9032 10.5877 16.5786L16.6666 10.4997L10.5877 4.42077Z" fill="white"/>
</mask>
<g mask="url(#mask0_595_738)">
<rect y="0.5" width="20" height="20" fill="#424B5A"/>
</g>
</svg>
