<svg width="176" height="177" viewBox="0 0 176 177" fill="none" xmlns="http://www.w3.org/2000/svg">
<path d="M89.2769 140.497C89.3024 148.983 89.4089 158.679 89.6746 169.554C89.7028 170.726 91.2076 170.764 91.3501 169.967C91.505 169.098 91.5077 166.821 91.5024 142.812C90.8204 142.113 90.0812 141.35 89.2777 140.496L89.2769 140.497Z" fill="#FFEBEB"/>
<path d="M143.238 52.3386C142.533 47.8835 140.925 43.8815 137.482 40.699C131.497 35.1643 130.468 36.2776 86.2945 36.1015C45.5373 35.9386 38.5422 30.4729 39.4635 88.0713C39.4759 88.8545 39.3218 89.1997 38.4286 89.1634C31.5171 88.8846 31.0912 89.6962 31.2523 95.7823C31.3174 98.2302 31.2162 97.5709 88.8122 97.17C89.9368 97.162 89.2847 110.188 89.2689 135.246C89.994 136.074 90.7464 136.901 91.4988 137.713V98.2754C91.4988 97.1974 91.4918 97.1939 92.6067 97.1895C100.112 97.162 99.9354 96.7718 99.9371 98.3178C99.9424 107.475 100.244 131.45 100.506 148.071C101.276 149.26 101.814 150.183 102.171 150.503C102.347 150.376 102.582 150.097 102.859 149.701C102.758 141.067 102.567 128.674 102.303 110.895C102.09 96.5709 101.584 97.0682 102.775 97.1435C103.398 97.1824 139.849 97.1523 143.259 96.6523C144.204 96.5133 144.411 96.3018 144.51 95.3239C145.062 89.9024 144.82 62.3488 143.236 52.3386H143.238ZM33.7259 95.3292C32.9815 95.3478 32.7359 95.2106 33.0387 92.1228C33.2402 90.0723 35.2211 91.0122 77.8306 90.7272C78.591 90.7228 78.253 90.8785 78.3745 94.7637C78.4018 95.6257 42.3587 95.115 33.7259 95.3292ZM78.3516 88.4979C78.3622 89.3838 78.3569 88.9439 42.1097 89.0811C40.7923 89.0855 41.6855 88.8634 41.2737 77.6124C40.971 69.3279 41.9143 57.0875 44.5402 48.464C47.0386 40.2592 56.0322 37.96 59.465 38.1653C81.4404 39.4831 78.1026 68.1464 78.3507 88.497L78.3516 88.4979ZM142.55 93.1229C142.512 95.2345 142.713 94.8035 140.784 94.8814C136.185 95.0664 139.501 94.961 92.033 95.1602C80.5683 95.2088 80.6343 95.5797 80.6114 94.4814C80.5384 91.0732 81.2019 83.0197 80.651 70.8271C80.0051 56.5397 79.3583 45.2869 67.5232 37.8865C134.789 37.8865 132.644 38.4954 136.755 43.154C140.825 47.7658 143.262 53.343 142.551 93.122L142.55 93.1229Z" fill="#FFEBEB"/>
<path d="M102.204 155.091C101.625 155.753 101.107 156.002 100.638 155.866C100.738 161.42 100.82 165.068 100.862 165.246C101.027 165.941 100.597 169.368 101.857 169.462C102.755 169.53 103.047 169.771 102.91 154.385C102.665 154.612 102.468 154.789 102.204 155.091Z" fill="#FFEBEB"/>
<path d="M109.796 58.8335C131.129 58.8335 129.292 58.3202 129.412 60.6372C129.602 64.3002 129.29 67.7853 129.275 69.9651C129.271 70.5625 129.057 70.8872 128.446 70.8846C113.411 70.8368 113.423 71.5652 113.385 69.3907C113.284 63.4878 113.808 63.4718 112.734 63.4541C86.6218 63.0063 86.841 63.2922 86.672 61.2921C86.496 59.2114 86.7758 58.8406 88.8324 58.8327H109.795L109.796 58.8335Z" fill="#FFEBEB"/>
<path d="M107.569 93.3116C84.4281 93.0293 85.3767 93.1744 85.3679 92.2045C85.3591 91.2195 85.3556 91.5177 119.463 91.6053C140.327 91.6584 140.287 91.1699 140.31 92.408C140.335 93.7957 140.313 93.1718 112.894 93.1709C112.643 93.1709 107.569 93.3116 107.569 93.3116Z" fill="#FFEBEB"/>
<path d="M49.8141 124.599C49.8669 125.625 48.5786 125.76 48.5751 124.571C48.5143 98.6798 48.7467 98.686 49.3178 98.7019C49.7903 98.7152 49.7763 99.2312 49.7842 99.5931C50.1643 120.755 49.7006 122.367 49.8141 124.599Z" fill="#25AB75"/>
<path d="M48.8577 130.996C45.841 130.959 45.8278 126.073 49.009 126.133C52.1577 126.194 52.2166 131.036 48.8568 130.996H48.8577Z" fill="#25AB75"/>
<path d="M54.2749 125.221C55.0405 125.144 56.093 125.646 55.9592 126.079C55.785 126.643 55.6186 126.104 52.6011 127.082C51.4747 127.447 50.747 125.577 54.2749 125.221Z" fill="#25AB75"/>
<path d="M43.8732 127.27C42.108 127.293 41.6442 127.62 41.5122 127.107C41.2702 126.165 45.9703 125.331 45.8955 126.757C45.8612 127.422 45.276 127.252 43.8732 127.27Z" fill="#25AB75"/>
<path d="M42.6238 130.318C40.8726 130.196 43.5275 127.952 45.0992 128.257C45.8138 128.395 45.8032 129.514 45.3157 129.609C44.3723 129.794 43.4562 130.068 42.6238 130.318Z" fill="#25AB75"/>
<path d="M54.2228 129.214C53.3006 129.225 52.5385 129.353 52.4224 128.66C52.234 127.533 55.3088 127.666 56.1404 128.508C56.8206 129.198 55.2824 129.201 54.2228 129.214Z" fill="#25AB75"/>
<path d="M52.6795 130.029C54.5055 129.984 56.1344 133.029 54.8469 132.421C52.3451 131.24 51.818 131.124 52.0257 130.442C52.1251 130.116 52.4023 130.012 52.6795 130.029Z" fill="#25AB75"/>
<path d="M45.6843 130.65C46.5969 130.643 46.6277 131.498 46.0601 131.829C43.6181 133.257 43.6814 133.189 43.4825 133.001C42.9343 132.484 44.3432 130.661 45.6843 130.65Z" fill="#25AB75"/>
<path d="M47.9361 82.8469C46.5756 80.7716 46.3749 81.492 45.1553 79.1512C44.9951 78.8414 45.1183 78.4901 45.6305 78.7211C46.9927 79.3353 50.3789 82.9425 52.0404 84.2532C55.3492 86.8648 57.9188 85.994 63.5085 86.2312C69.0983 86.4684 70.2361 86.0745 72.8858 84.7134C73.4297 84.4337 73.9937 84.0797 74.2965 84.6037C74.5992 85.1276 73.9594 85.3126 73.6162 85.5834C71.2173 87.4728 68.404 87.7596 65.5132 87.7074C56.4474 87.5436 53.9148 87.8153 50.6887 85.178C49.2569 84.0081 43.4217 84.1266 43.4841 83.2523C43.5193 82.7558 44.1353 82.8469 47.9361 82.8469Z" fill="#25AB75"/>
<path d="M61.2196 75.1278C61.2715 75.6694 61.0048 76.0402 60.4531 76.0509C58.5664 76.088 60.681 73.7552 57.117 70.7692C54.9029 68.9142 51.1937 69.6258 51.2958 75.1526C51.316 76.2385 50.282 76.1208 50.1148 75.311C48.1419 65.7928 60.2375 64.8326 61.2196 75.1278Z" fill="#25AB75"/>
<path d="M73.4718 73.5493C73.5501 74.6441 73.2659 76.3946 72.2495 76.1309C71.0228 75.8132 72.1043 74.3361 71.7092 72.8688C70.7227 69.2137 66.6351 71.5714 64.2573 74.6078C63.3861 75.7202 63.2427 76.2344 62.8361 76.0265C62.0741 75.6353 63.4284 72.944 64.7871 71.5784C68.6028 67.7429 73.4718 68.4455 73.4718 73.5493Z" fill="#25AB75"/>
<path d="M67.4132 68.5443C67.5012 69.0682 66.6379 69.7665 66.0228 68.9815C65.3997 68.1876 64.2047 65.4229 61.7336 67.2425C60.4163 68.2124 60.2139 69.8435 59.4518 69.424C58.5604 68.9337 59.8126 65.2379 63.2147 64.8857C65.3856 64.6609 67.2961 66.7672 67.414 68.5434L67.4132 68.5443Z" fill="#25AB75"/>
<path d="M70.8749 76.5684C75.6225 76.5525 76.7877 79.4287 74.409 78.819C70.3461 77.7764 67.9727 78.488 67.7465 77.7136C67.4368 76.6534 70.1093 76.6339 70.8758 76.5684H70.8749Z" fill="#25AB75"/>
<path d="M54.3425 77.5784C54.2765 77.2828 54.4745 77.0572 54.7059 76.974C59.7474 75.1562 64.1518 78.8333 61.107 78.2776C55.9766 77.3404 54.5413 78.4608 54.3425 77.5784Z" fill="#25AB75"/>
<path d="M71.5334 84.3106C71.301 84.1194 71.3204 83.8194 71.4506 83.6106C74.3036 79.0528 80.035 79.2307 77.293 80.6759C72.6747 83.1114 72.2303 84.8823 71.5334 84.3106Z" fill="#25AB75"/>
<path d="M48.4138 75.8867C55.357 78.0382 53.5081 81.2852 52.5876 80.1984C50.7678 78.0497 46.1812 76.0531 48.4138 75.8867Z" fill="#25AB75"/>
<path d="M64.0497 78.9644C63.0869 78.844 63.006 77.9812 63.6167 77.6431C66.0508 76.2944 67.2124 74.5022 67.6084 74.8005C68.1663 75.2217 65.9953 78.7697 64.0497 78.9644Z" fill="#25AB75"/>
<path d="M64.3842 83.7449C64.3534 83.3307 64.408 83.3431 68.4674 80.7783C68.632 80.6739 68.8564 80.4181 69.0597 80.6527C69.7549 81.4527 64.5382 85.8228 64.3842 83.7449Z" fill="#25AB75"/>
<path d="M58.5164 80.8375C58.5392 80.0818 58.8156 80.0835 59.1728 80.4632C61.46 82.8899 61.9712 83.289 61.4661 83.8227C60.7797 84.5439 58.8076 82.5598 58.5164 80.8375Z" fill="#25AB75"/>
<path d="M81.6094 126.078C82.331 123.018 79.4446 120.276 82.0406 116.847C83.5674 114.831 86.2364 115.182 86.4996 117.665C86.7988 120.499 84.8126 122.885 83.7161 123.683C78.2707 127.645 93.7094 140.874 97.7724 145.991C102.678 152.167 101.074 155.719 107.833 142.954C108.879 140.98 108.555 139.089 107.918 137.147C107.632 136.273 104.543 133.802 105.278 129.945C105.777 127.325 108.33 127.37 109.202 129.599C110.678 133.375 107.575 133.923 109.726 138.846C111.121 135.686 112.669 131.888 113.195 128.472C113.555 126.137 112.667 122.257 114.674 118.987C117.989 113.585 124.33 118.143 116.238 124.924C114.921 126.028 114.702 125.932 114.72 126.634C114.844 131.28 112.565 135.303 112.844 135.575C113.123 135.847 114.645 134.826 115.818 132.511C116.342 131.476 117.677 127.797 121.669 128.441C124.068 128.828 124.05 132.004 120.116 134.167C117.174 135.786 115.733 135.152 115.465 135.389C113.747 136.908 112.231 136.813 111.754 138.023C109.722 143.181 107.553 146.259 107.211 147.214C108.643 147.133 109.403 145.486 111.289 143.919C113.623 141.978 117.161 142.34 117.477 144.344C117.794 146.347 114.808 147.559 112.743 147.47C109.94 147.35 110.151 146.741 109.556 147.216C107.62 148.766 106.974 147.838 105.688 149.513C102.403 153.797 103.066 153.029 101.991 154.257C100.984 155.407 100.366 154.877 99.8404 153.164C99.2296 151.174 98.1763 148.018 94.1564 144.05C85.1408 135.147 86.592 134.679 83.3025 134.547C80.0201 134.415 77.4532 135.013 75.8815 133.049C74.0951 130.817 75.8225 127.796 78.7151 128.869C82.5105 130.278 81.5839 133.742 84.2679 133.269C81.7995 129.382 80.4716 127.575 78.9228 123.798C77.2596 119.742 73.5741 120.588 69.6273 117.709C65.1974 114.476 71.3257 108.75 74.8369 118.163C75.2963 119.39 75.6544 118.65 77.4118 119.891C76.0821 115.065 75.3368 107.943 75.3438 104.476C75.3605 96.7589 84.3814 98.9758 79.016 108.386C77.264 111.459 77.1821 110.957 77.5429 113.013C78.8436 120.417 79.4789 121.317 81.6076 126.069L81.6094 126.078ZM76.9947 109.178C77.6494 107.382 79.8388 104.699 79.1551 102.145C78.7344 100.573 76.7509 101.349 76.6189 103.294C76.4869 105.238 76.4992 107.085 76.9947 109.178ZM116.53 133.832C117.871 134.299 123.12 131.437 122.103 129.874C121.728 129.296 121.058 129.36 120.426 129.482C118.027 129.943 117.355 131.937 116.53 133.832ZM114.688 124.303C117.579 122.146 119.432 118.931 118.482 118.202C117.471 117.426 114.906 119.619 114.688 124.303ZM82.4384 122.957C84.2626 120.631 84.8478 120.121 85.0124 118.834C85.0951 118.19 85.2605 117.339 84.5504 117.052C83.8076 116.752 83.2814 117.435 82.9004 118.02C81.9148 119.531 82.2201 121.17 82.4384 122.957ZM81.2231 133.228C80.2313 131.946 79.5176 130.857 78.3842 130.234C77.2508 129.611 75.9008 130.369 76.6656 131.949C77.3872 133.443 79.7051 133.317 81.2231 133.227V133.228ZM110.938 145.971C111.541 146.281 114.381 146.591 115.844 145.447C117.978 143.781 113.164 142.565 110.938 145.971ZM107.576 134.955C108.17 132.794 108.743 131.448 108.108 129.909C107.077 127.413 104.655 130.559 107.576 134.955ZM73.5424 118.371C72.3588 116.08 72.1591 115.386 71.052 114.698C69.5191 113.742 67.1448 115.624 73.5424 118.371Z" fill="#25AB75"/>
<path d="M87.3056 151.565C85.6151 150.23 84.1182 148.634 82.1804 147.646C80.4908 146.784 82.5633 145.743 81.3462 142.636C79.5308 137.999 72.1256 142.971 82.4779 149.671C83.482 150.32 84.4095 151.093 85.3564 151.828C85.77 152.148 86.0428 152.213 84.3004 152.992C84.0839 153.09 81.6067 150.863 80.4389 152.756C79.5193 154.249 80.7073 155.813 82.3881 155.339C84.7896 154.662 85.2464 153.429 86.5188 153.457C86.8304 153.463 87.0794 153.512 87.3293 153.66L87.3056 151.565ZM80.2022 146.463C76.3804 141.995 79.316 141.311 80.0482 142.909C80.6765 144.281 80.3025 145.298 80.2022 146.463ZM81.4157 153.451C81.7668 153.044 82.6724 153.552 82.9531 153.906C81.7985 154.783 80.908 154.038 81.4157 153.451Z" fill="#25AB75"/>
<path d="M84.4368 27.7489C78.979 23.8044 80.468 20.037 74.1408 18.1502C71.484 17.3581 68.9338 16.4952 67.9192 13.1676C66.8042 9.51168 67.0709 8.51517 63.6969 7.82841C61.9 7.4629 58.5736 7.43281 58.7425 6.50887C58.8041 6.17434 59.1526 6.22833 59.4122 6.21505C74.0413 5.50528 64.7837 14.1659 73.9076 16.3926C78.1157 17.4209 79.6108 18.9475 81.5064 21.9769C84.3884 26.5842 88.0729 27.3462 87.6294 28.6958C87.4719 29.1737 86.7001 29.041 86.1774 29.0941C74.3432 30.2817 66.842 20.2883 67.7748 19.5051C68.7868 18.6555 75.8726 28.2631 84.4377 27.7498V27.7489H84.4368Z" fill="#25AB75"/>
<path d="M75.203 33.5105C75.2796 34.2194 74.4594 34.5902 74.1989 33.7211C72.7874 29.0103 72.9652 28.574 72.0244 28.9324C70.8303 29.3873 70.0576 28.6386 70.6085 30.1767C70.9007 30.9918 71.8027 33.8371 70.9596 34.0238C70.5029 34.1247 70.4668 34.0194 68.9172 30.0218C68.6963 29.4528 68.4288 29.1687 67.723 29.0191C55.1848 26.3562 61.0535 13.1794 55.836 7.45346C54.7368 6.24721 53.7583 6.39677 54.0619 5.71798C54.4852 4.7728 57.6584 6.36403 58.6212 8.52254C61.1485 14.1919 59.4554 17.1885 61.7768 22.2179C65.6418 30.5936 73.2776 25.5756 74.4585 28.9271C74.9821 30.4139 75.1458 31.9494 75.203 33.5105Z" fill="#25AB75"/>
<path d="M84.0972 23.1709C83.2718 23.5382 82.4877 22.8523 83.3958 22.0478C88.6098 17.4246 86.9202 12.3429 87.9692 12.4049C89.496 12.4942 89.4177 20.8017 84.0972 23.1718V23.1709Z" fill="#25AB75"/>
<path d="M82.1567 12.7234C82.1207 15.6483 80.4689 17.9361 79.6056 17.2006C79.3249 16.9608 79.3319 16.6333 79.5229 16.3236C81.7467 12.7269 79.229 8.86127 79.9814 8.56214C81.1104 8.11521 82.0318 11.2994 82.1567 12.7234Z" fill="#25AB75"/>
<path d="M85.5631 12.8469C85.6397 13.731 85.0941 15.2142 84.4121 15.0178C84.1613 14.9461 84.0715 14.7346 84.1217 14.5133C84.6594 12.1495 82.8994 8.63693 83.4846 8.38736C84.3593 8.01389 85.5358 11.007 85.5631 12.846V12.8469Z" fill="#25AB75"/>
<path d="M61.8296 10.366C61.9625 9.1297 63.7436 9.2067 63.6987 10.3607C63.6477 11.6555 61.8965 11.6192 61.8296 10.366Z" fill="#25AB75"/>
</svg>
