<!DOCTYPE svg PUBLIC "-//W3C//DTD SVG 1.1//EN" "http://www.w3.org/Graphics/SVG/1.1/DTD/svg11.dtd">
<!-- Uploaded to: SVG Repo, www.svgrepo.com, Transformed by: SVG Repo Mixer Tools -->
<svg fill="#d2c6c6" height="800px" width="800px" version="1.1" id="Capa_1" xmlns="http://www.w3.org/2000/svg" xmlns:xlink="http://www.w3.org/1999/xlink" viewBox="0 0 465.65 465.65" xml:space="preserve" stroke="#d2c6c6">
<g id="SVGRepo_bgCarrier" stroke-width="0"/>
<g id="SVGRepo_tracerCarrier" stroke-linecap="round" stroke-linejoin="round"/>
<g id="SVGRepo_iconCarrier"> <g> <path d="M19.58,364.314h132.077c2.209,0,4-1.791,4-4V105.336c0-2.209-1.791-4-4-4H19.58c-2.209,0-4,1.791-4,4v254.978 C15.58,362.523,17.371,364.314,19.58,364.314z M46.552,356.314v-19.107h81.712v19.107H46.552z M136.265,356.314v-23.107 c0-2.209-1.791-4-4-4H42.552c-2.209,0-4,1.791-4,4v23.107H23.58V236.825h38.693c-6.017,11.944-10.263,28.374-7.796,50.05 c0.228,2.006,1.915,3.527,3.933,3.548c2.573,0.026,9.272,0.039,19.912,0.039c18.304,0,41.902-0.039,41.902-0.039 c1.274-0.002,2.472-0.611,3.224-1.642c0.752-1.029,0.968-2.355,0.582-3.57c-0.117-0.367-7.206-23.298-4.352-48.386h27.979v119.489 H136.265z M86.67,214.35l-0.422-0.784c-0.807-1.5-2.412-2.417-4.111-2.297c-0.512,0.036-1.106,0.059-1.791,0.059 c-3.943,0-9-0.872-14.625-2.522c-2.687-0.789-5.134-1.188-7.273-1.188c-4.916,0-7.659,2.089-9.095,3.841 c-1.526,1.863-2.179,4.035-2.421,5.94l-6.899-0.01l-1.428-31.08l8.68-1.113l0,0.957c0,1.002,0.311,2.003,0.974,2.754 c1.308,1.482,3.384,1.771,4.991,0.862c7.737-4.366,15.902-6.579,24.267-6.579c17.376,0,30.12,9.603,30.239,9.694 c1.217,0.939,2.866,1.099,4.242,0.409l15.416-7.745c1.15,1.449,2.605,3.26,3.913,4.821c-9.426,10.13-15.684,23.163-18.558,38.456 H76.878c3.336-4.135,6.539-7.034,8.78-8.826C87.367,218.633,87.799,216.223,86.67,214.35L86.67,214.35z M111.608,236.825 c-0.504,4.715-0.726,9.608-0.631,14.68c0.248,13.344,2.488,24.668,4.014,30.926c-7.981,0.012-23.662,0.031-36.668,0.031 c-7.295,0-12.728-0.006-16.239-0.019c-1.629-20.364,3.269-35.272,9.295-45.618H111.608z M51.242,112.556 c3.847-2.046,9.264-3.22,14.862-3.22s11.015,1.174,14.862,3.22c3.013,1.604,4.813,3.612,4.813,5.374s-1.799,3.77-4.813,5.373 c-3.847,2.046-9.264,3.22-14.862,3.22s-11.015-1.174-14.862-3.22c-3.013-1.604-4.813-3.611-4.813-5.373 S48.229,114.16,51.242,112.556z M90.812,126.677c3.847-2.046,9.264-3.22,14.861-3.22c5.598,0,11.015,1.174,14.862,3.22 c3.014,1.603,4.813,3.611,4.813,5.373s-1.799,3.771-4.813,5.373c-3.847,2.046-9.264,3.22-14.862,3.22 c-5.598,0-11.015-1.174-14.861-3.22c-3.014-1.603-4.813-3.611-4.813-5.373S87.798,128.28,90.812,126.677z M91.905,109.336h37.51 c-2.896,3.799-12.079,6.117-18.755,6.117S94.8,113.135,91.905,109.336z M42.189,109.336c-2.4,2.477-3.759,5.402-3.759,8.594 c0,9.459,11.897,16.593,27.674,16.593c4.328,0,8.361-0.54,11.939-1.514c0.775,8.978,12.391,15.634,27.63,15.634 c15.777,0,27.674-7.134,27.674-16.593c0-4.457-2.643-8.397-7.087-11.318c6.337-2.501,10.683-6.549,11.791-11.396h9.606v119.488 h-26.722c2.573-12.656,8.076-25.312,18.628-35.419c0.783-0.75,1.228-1.785,1.233-2.869s-0.43-2.124-1.205-2.881 c-1.261-1.231-5.514-6.546-7.898-9.606c-1.172-1.505-3.244-1.974-4.951-1.116l-16.214,8.146c-4.756-3.086-17.055-9.89-33.01-9.89 c-7.646,0-15.125,1.571-22.31,4.682c-0.17-0.855-0.616-1.639-1.281-2.224c-0.863-0.759-2.006-1.106-3.151-0.965l-16.845,2.16 c-2.066,0.266-3.583,2.071-3.487,4.151l1.772,38.574c0.098,2.134,1.854,3.813,3.99,3.816l14.769,0.021c0.001,0,0.003,0,0.005,0 c1.186,0,2.308-0.544,3.068-1.454c0.761-0.913,1.074-2.134,0.86-3.302c-0.165-0.898-0.224-3.091,0.644-4.133 c0.978-1.171,3.939-1.201,7.917-0.034c4.154,1.22,7.993,2.051,11.473,2.487c-2.535,2.603-5.31,5.874-7.993,9.855H23.58V109.336 H42.189z"/> <path d="M166.787,364.314h132.077c2.209,0,4-1.791,4-4V105.336c0-2.209-1.791-4-4-4H166.787c-2.209,0-4,1.791-4,4v254.978 C162.787,362.523,164.578,364.314,166.787,364.314z M193.759,356.314v-19.107h81.712v19.107H193.759z M283.472,356.314v-23.107 c0-2.209-1.791-4-4-4h-89.712c-2.209,0-4,1.791-4,4v23.107h-14.973V236.825h38.693c-6.017,11.944-10.263,28.374-7.795,50.05 c0.228,2.006,1.915,3.527,3.933,3.548c2.573,0.026,9.272,0.039,19.911,0.039c18.304,0,41.902-0.039,41.902-0.039 c1.273-0.002,2.47-0.612,3.222-1.641s0.969-2.354,0.584-3.569c-0.116-0.367-7.177-23.306-4.327-48.388h27.954v119.489H283.472z M233.877,214.35l-0.422-0.784c-0.807-1.5-2.412-2.417-4.111-2.297c-0.512,0.036-1.106,0.059-1.791,0.059 c-3.943,0-9-0.872-14.625-2.522c-2.687-0.789-5.134-1.188-7.273-1.188c-4.916,0-7.659,2.089-9.094,3.841 c-1.526,1.863-2.179,4.035-2.421,5.94l-6.9-0.01l-1.428-31.08l8.68-1.113l0,0.971c0,0.998,0.312,1.994,0.973,2.741 c1.308,1.477,3.385,1.77,4.993,0.86c7.737-4.366,15.902-6.579,24.267-6.579c17.377,0,30.12,9.603,30.239,9.694 c1.218,0.939,2.864,1.1,4.242,0.409l15.416-7.745c1.15,1.449,2.605,3.26,3.913,4.821c-9.427,10.13-15.685,23.163-18.559,38.456 h-35.891c3.336-4.135,6.539-7.034,8.78-8.826C234.574,218.633,235.006,216.223,233.877,214.35L233.877,214.35z M258.814,236.825 c-0.504,4.715-0.726,9.608-0.631,14.68c0.248,13.344,2.488,24.668,4.014,30.926c-7.981,0.012-23.661,0.031-36.667,0.031 c-7.294,0-12.728-0.006-16.238-0.019c-1.63-20.364,3.268-35.272,9.295-45.618H258.814z M198.45,112.556 c3.847-2.046,9.264-3.22,14.861-3.22c5.598,0,11.015,1.174,14.862,3.22c3.013,1.604,4.813,3.612,4.813,5.374 s-1.799,3.77-4.813,5.373c-3.847,2.046-9.264,3.22-14.862,3.22s-11.015-1.174-14.861-3.22c-3.014-1.604-4.813-3.611-4.813-5.373 S195.436,114.16,198.45,112.556z M238.019,126.677c3.847-2.046,9.264-3.22,14.861-3.22c5.599,0,11.016,1.174,14.862,3.22 c3.014,1.603,4.813,3.611,4.813,5.373s-1.799,3.771-4.813,5.373c-3.847,2.046-9.264,3.22-14.862,3.22 c-5.598,0-11.015-1.174-14.861-3.22c-3.014-1.603-4.813-3.611-4.813-5.373S235.005,128.28,238.019,126.677z M239.112,109.336h37.51 c-2.896,3.799-12.079,6.117-18.755,6.117S242.008,113.135,239.112,109.336z M189.396,109.336c-2.4,2.477-3.759,5.402-3.759,8.594 c0,9.459,11.897,16.593,27.674,16.593c4.328,0,8.361-0.54,11.939-1.514c0.775,8.978,12.391,15.634,27.63,15.634 c15.777,0,27.675-7.134,27.675-16.593c0-4.457-2.643-8.397-7.087-11.318c6.338-2.501,10.683-6.549,11.79-11.396h9.605v119.488 h-26.699c2.569-12.664,8.066-25.323,18.606-35.419c0.783-0.75,1.229-1.785,1.233-2.869s-0.43-2.124-1.205-2.881 c-1.261-1.231-5.513-6.546-7.897-9.606c-1.172-1.505-3.246-1.974-4.951-1.116l-16.214,8.146c-4.757-3.086-17.055-9.89-33.011-9.89 c-7.646,0-15.124,1.571-22.31,4.682c-0.17-0.855-0.616-1.639-1.281-2.224c-0.863-0.759-2.005-1.106-3.151-0.965l-16.845,2.16 c-2.066,0.266-3.583,2.071-3.487,4.151l1.772,38.574c0.098,2.134,1.854,3.813,3.99,3.816l14.769,0.021c0.001,0,0.003,0,0.005,0 c1.186,0,2.308-0.544,3.068-1.454c0.761-0.913,1.074-2.134,0.86-3.302c-0.165-0.899-0.225-3.092,0.643-4.133 c0.978-1.171,3.938-1.201,7.917-0.034c4.154,1.22,7.993,2.051,11.473,2.487c-2.535,2.603-5.31,5.874-7.993,9.855h-43.37V109.336 H189.396z"/> <path d="M313.994,364.314H446.07c2.209,0,4-1.791,4-4V105.336c0-2.209-1.791-4-4-4H313.994c-2.209,0-4,1.791-4,4v254.978 C309.994,362.523,311.785,364.314,313.994,364.314z M340.967,356.314v-19.107h81.712v19.107H340.967z M430.679,356.314v-23.107 c0-2.209-1.791-4-4-4h-89.712c-2.209,0-4,1.791-4,4v23.107h-14.973V236.825h38.693c-6.017,11.944-10.264,28.374-7.797,50.05 c0.229,2.006,1.915,3.527,3.934,3.548c2.573,0.026,9.272,0.039,19.911,0.039c18.305,0,41.902-0.039,41.902-0.039 c1.274-0.002,2.472-0.611,3.224-1.642c0.752-1.029,0.968-2.355,0.581-3.57c-0.117-0.367-7.206-23.298-4.351-48.386h27.979v119.489 H430.679z M381.084,214.35l-0.422-0.784c-0.807-1.5-2.412-2.417-4.112-2.297c-0.512,0.036-1.106,0.059-1.791,0.059 c-3.942,0-9-0.872-14.624-2.522c-2.687-0.789-5.134-1.188-7.273-1.188c-4.916,0-7.659,2.089-9.095,3.841 c-1.525,1.863-2.179,4.035-2.421,5.94l-6.899-0.01l-1.428-31.08l8.68-1.113v0.94c0,1.003,0.308,2.007,0.969,2.762 c1.304,1.489,3.386,1.781,4.997,0.87c7.737-4.366,15.902-6.579,24.267-6.579c17.377,0,30.12,9.603,30.239,9.694 c1.217,0.939,2.864,1.1,4.242,0.409l15.416-7.745c1.15,1.449,2.605,3.26,3.913,4.821c-9.426,10.13-15.684,23.163-18.558,38.456 h-35.891c3.336-4.135,6.539-7.034,8.78-8.826C381.781,218.633,382.213,216.223,381.084,214.35L381.084,214.35z M406.022,236.825 c-0.504,4.715-0.726,9.608-0.631,14.68c0.248,13.344,2.487,24.668,4.013,30.926c-7.981,0.012-23.661,0.031-36.668,0.031 c-7.294,0-12.728-0.006-16.238-0.019c-1.629-20.364,3.269-35.272,9.296-45.618H406.022z M345.657,112.556 c3.847-2.046,9.264-3.22,14.861-3.22s11.015,1.174,14.861,3.22c3.014,1.604,4.813,3.612,4.813,5.374s-1.799,3.77-4.813,5.373 c-3.847,2.046-9.264,3.22-14.861,3.22s-11.015-1.174-14.861-3.22c-3.014-1.604-4.813-3.611-4.813-5.373 S342.644,114.16,345.657,112.556z M385.226,126.677c3.847-2.046,9.264-3.22,14.861-3.22c5.599,0,11.016,1.174,14.862,3.22 c3.014,1.603,4.813,3.611,4.813,5.373s-1.799,3.771-4.813,5.373c-3.847,2.046-9.264,3.22-14.862,3.22 c-5.598,0-11.015-1.174-14.861-3.22c-3.014-1.603-4.813-3.611-4.813-5.373S382.212,128.28,385.226,126.677z M386.319,109.336h37.51 c-2.896,3.799-12.079,6.117-18.755,6.117S389.215,113.135,386.319,109.336z M336.604,109.336c-2.4,2.477-3.759,5.402-3.759,8.594 c0,9.459,11.897,16.593,27.674,16.593c4.328,0,8.36-0.54,11.938-1.514c0.775,8.978,12.391,15.634,27.63,15.634 c15.777,0,27.675-7.134,27.675-16.593c0-4.457-2.643-8.397-7.087-11.318c6.338-2.501,10.683-6.549,11.791-11.396h9.605v119.488 h-26.722c2.573-12.656,8.076-25.312,18.628-35.419c0.783-0.75,1.229-1.785,1.233-2.869s-0.43-2.124-1.205-2.881 c-1.261-1.231-5.513-6.546-7.897-9.606c-1.173-1.505-3.245-1.974-4.951-1.116l-16.214,8.146c-4.757-3.086-17.055-9.89-33.011-9.89 c-7.646,0-15.124,1.571-22.31,4.682c-0.169-0.855-0.615-1.639-1.28-2.224c-0.862-0.76-2.01-1.107-3.151-0.965l-16.845,2.16 c-2.065,0.266-3.583,2.071-3.487,4.151l1.772,38.574c0.099,2.134,1.854,3.813,3.99,3.816l14.769,0.021c0.002,0,0.004,0,0.006,0 c1.186,0,2.308-0.544,3.068-1.454c0.761-0.913,1.074-2.134,0.859-3.302c-0.165-0.899-0.225-3.091,0.644-4.133 c0.978-1.172,3.938-1.201,7.917-0.034c4.154,1.22,7.992,2.051,11.473,2.487c-2.535,2.603-5.31,5.874-7.993,9.855h-43.37V109.336 H336.604z"/> <path d="M461.65,86.085H4c-2.209,0-4,1.791-4,4v285.479c0,2.209,1.791,4,4,4h457.65c2.209,0,4-1.791,4-4V90.085 C465.65,87.876,463.859,86.085,461.65,86.085z M457.65,371.565H8V94.085h449.65V371.565z"/> </g> </g>
</svg>