<svg width="429" height="307" viewBox="0 0 429 307" fill="none" xmlns="http://www.w3.org/2000/svg">
<g clip-path="url(#clip0_865_519)">
<path d="M409.661 246.075C423.52 246.075 209.771 245.846 210.433 245.988C209.469 245.644 209.06 248.143 210.025 248.487C211.665 248.995 407.619 249.633 409.812 248.144C410.931 248.144 410.507 245.715 409.661 246.075Z" fill="#C1E691"/>
<path d="M234.761 239.213C234.714 239.868 236.051 239.89 236.051 238.996C236.88 236.986 236.53 195.076 236.428 194.138C238.391 194.286 238.489 194.185 251.775 194.267C251.775 194.267 251.453 235.357 251.507 236.83C251.507 237.611 251.667 238.434 251.612 239.213C251.561 239.863 252.794 239.822 252.848 239.213C252.848 239.427 252.957 238.793 252.957 238.563C253.823 231.556 253.276 200.363 253.276 193.864C253.381 193.777 253.439 193.66 253.439 193.539C253.439 193.417 253.381 193.301 253.276 193.214C252.951 193.032 252.585 192.904 252.199 192.837C251.812 192.77 251.414 192.764 251.025 192.822C250.685 192.822 237.413 192.92 235.997 193.082C235.627 192.844 235.084 193.019 235.084 193.603C234.744 195.249 234.591 236.583 234.602 236.86C234.742 237.639 234.795 238.426 234.761 239.213Z" fill="#C1E691"/>
<path d="M272.338 239.189C272.283 239.874 273.534 239.828 273.586 239.189C273.586 239.278 273.586 239.142 273.641 239.007C273.641 238.914 273.641 238.822 273.696 238.778C274.404 236.408 273.967 195.017 273.967 178.653C275.906 178.797 289.963 178.745 289.616 178.745C289.485 179.505 289.32 239.489 289.344 239.192C289.289 239.877 290.541 239.83 290.596 239.192C290.596 239.281 290.596 239.099 290.647 239.01C290.639 238.916 290.658 238.821 290.702 238.735C291.39 236.422 291.046 179.014 290.919 178.32L290.974 178.274C291.078 178.181 291.137 178.059 291.137 177.931C291.137 177.804 291.078 177.681 290.974 177.589C290.297 177.224 289.486 177.078 288.691 177.178C288.347 177.178 275.164 177.291 273.586 177.496C273.532 177.432 273.458 177.381 273.371 177.352C273.284 177.322 273.189 177.314 273.097 177.328C273.005 177.343 272.92 177.38 272.853 177.434C272.785 177.489 272.738 177.558 272.716 177.635C272.716 177.936 272.125 241.86 272.338 239.189Z" fill="#C1E691"/>
<path d="M310 239.189C309.945 239.854 311.194 239.854 311.249 239.189C311.44 238.132 311.53 237.065 311.52 235.996C311.953 228.233 311.675 166.727 311.575 166.065C313.007 166.169 312.667 166.155 327.2 166.155C327.2 166.679 327.035 166.828 327.035 167.218V239.189C327.035 239.25 327.05 239.311 327.078 239.367C327.107 239.424 327.149 239.475 327.202 239.518C327.255 239.561 327.318 239.596 327.387 239.619C327.456 239.643 327.53 239.655 327.605 239.655C327.68 239.655 327.754 239.643 327.823 239.619C327.892 239.596 327.955 239.561 328.008 239.518C328.061 239.475 328.103 239.424 328.131 239.367C328.16 239.311 328.175 239.25 328.175 239.189C328.587 236.171 328.768 233.135 328.717 230.099C329.026 213.95 328.312 165.712 328.662 165.712C328.768 165.622 328.827 165.503 328.827 165.379C328.827 165.255 328.768 165.136 328.662 165.047C327.656 164.485 328.707 164.598 313.473 164.825C312.766 164.826 312.059 164.87 311.359 164.957C311.314 164.885 311.245 164.826 311.16 164.786C311.075 164.746 310.977 164.727 310.879 164.732C310.781 164.737 310.687 164.765 310.608 164.813C310.53 164.861 310.47 164.926 310.436 165.002C310.436 165.232 310.23 165.254 310.326 165.49C309.907 167.212 309.979 239.475 310 239.189Z" fill="#C1E691"/>
<path d="M351.022 238.948V239.176C350.977 239.859 352.014 239.859 352.06 239.176V238.902C352.053 238.793 352.067 238.685 352.102 238.582C352.672 235.178 352.387 154.622 352.285 153.674C353.898 153.818 365.544 153.766 365.257 153.766C365.233 154.044 365.179 154.318 365.097 154.585V239.13C365.097 239.26 365.148 239.384 365.239 239.476C365.33 239.568 365.453 239.62 365.582 239.62C365.71 239.62 365.833 239.568 365.924 239.476C366.015 239.384 366.066 239.26 366.066 239.13V238.856C366.059 238.733 366.074 238.61 366.112 238.493C366.622 235.394 366.485 154.207 366.291 153.628V153.351C366.471 153.351 366.647 152.887 366.382 152.622C366.303 152.545 366.212 152.482 366.112 152.437C364.498 152.081 362.832 152.035 361.202 152.302C358.136 152.223 355.069 152.315 352.014 152.576C351.923 152.21 351.293 152.21 351.247 152.576C351.247 152.743 351.088 152.979 351.159 153.123C350.965 154.296 350.729 235.262 350.843 238.622C351.022 238.752 351.022 238.841 351.022 238.948Z" fill="#C1E691"/>
<path d="M351.972 131.697C347.732 130.8 343.4 130.312 339.048 130.242C338.9 130.245 338.757 130.297 338.647 130.387C338.537 130.477 338.466 130.601 338.448 130.734C338.43 130.868 338.465 131.003 338.547 131.115C338.63 131.227 338.754 131.309 338.897 131.345C342.846 132.252 346.859 132.912 350.907 133.32C345.078 137.18 339.004 140.728 332.716 143.943C294.317 163.741 253.93 169.422 238.259 172.813C237.348 173 237.752 174.149 238.615 174.009C242.667 173.503 246.723 172.723 250.724 171.941C283.031 165.698 315.253 156.227 342.806 140.112C345.855 138.334 348.849 136.479 351.783 134.547C351.696 135.106 351.783 135.245 351.276 138.594C350.975 140.662 350.417 142.686 350.164 144.755C350.061 145.767 351.767 145.904 352.087 144.984C352.908 141.637 353.467 138.242 353.761 134.824C354.027 132.083 354.396 131.973 351.972 131.697Z" fill="#C1E691"/>
<path d="M427.847 18.5076C427.833 18.381 427.797 18.2589 427.742 18.1484C427.686 18.0379 427.612 17.9412 427.523 17.864C427.435 17.7868 427.334 17.7305 427.226 17.6986C427.119 17.6666 427.007 17.6596 426.897 17.6779C426.657 17.6779 0.573958 18.8035 0.328585 18.9446C0.235595 18.8067 0.10718 18.7061 -0.0384138 18.6569C-0.184007 18.6078 -0.339371 18.6127 -0.482419 18.6709C-0.625466 18.7291 -0.748919 18.8376 -0.835235 18.9811C-0.921552 19.1246 -0.966337 19.2957 -0.963227 19.4701C-0.963227 22.8691 0.304528 280.689 0.13854 282.581C0.100051 283.762 1.69738 283.762 1.77436 282.581C2.08949 275.769 2.09431 275.227 0.595608 20.7368C5.57283 20.8197 425.831 19.2958 426.288 19.2958C426.288 32.4606 427.544 279.682 427.39 281.444C427.354 282.625 428.949 282.625 429.026 281.444C430.14 257.374 427.879 18.8644 427.847 18.5076Z" fill="white"/>
<path d="M16.1582 33.4466C16.4107 33.473 43.96 33.8489 47.0624 33.8249C49.8305 34.0043 52.6101 33.8774 55.3501 33.4466C55.807 33.2958 55.8816 32.5391 55.3501 32.4625C54.1403 32.305 52.9169 32.2801 51.7017 32.3883C44.1861 32.6134 20.1818 31.816 16.0067 32.35C15.314 32.3883 15.5545 33.3844 16.1582 33.4466Z" fill="white"/>
<path d="M16.1582 44.8392C16.3001 44.8392 43.1663 45.2463 47.0624 45.2176C49.8305 45.3969 52.6101 45.27 55.3501 44.8392C55.807 44.6884 55.8816 43.9294 55.3501 43.8551C54.1404 43.6968 52.917 43.6712 51.7017 43.7785C44.1861 44.006 20.1818 43.2086 16.0067 43.7402C15.314 43.8168 15.5545 44.7937 16.1582 44.8392Z" fill="white"/>
<path d="M160.531 37.9887C160.663 37.9887 187.532 38.3957 191.435 38.367C194.202 38.5463 196.981 38.4194 199.72 37.9887C200.177 37.8378 200.252 37.0812 199.72 37.0046C198.511 36.8475 197.287 36.8218 196.072 36.9279C188.556 37.1554 164.552 36.3581 160.377 36.892C159.694 36.9662 159.961 37.9456 160.531 37.9887Z" fill="white"/>
<path d="M160.53 49.4173C160.771 49.4437 188.01 49.822 191.434 49.7956C194.202 49.975 196.98 49.8481 199.72 49.4173C200.177 49.2665 200.251 48.5098 199.72 48.4332C198.51 48.2757 197.286 48.2508 196.071 48.359C188.556 48.5841 164.551 47.7867 160.376 48.3207C159.693 48.359 159.958 49.3551 160.53 49.4173Z" fill="white"/>
<path d="M158.856 102.795C149.083 95.7842 137.428 91.3696 125.145 90.0257C112.862 88.6818 100.415 90.4595 89.1431 95.1678C88.8949 95.0624 88.6206 95.0206 88.3489 95.0467C88.0771 95.0729 87.818 95.166 87.5985 95.3164C87.379 95.4668 87.2072 95.6689 87.101 95.9017C86.9948 96.1345 86.9581 96.3893 86.9948 96.6397C91.8489 122.499 98.5157 148.04 106.953 173.099C107.036 173.338 107.19 173.55 107.397 173.711C107.605 173.871 107.858 173.974 108.126 174.008C108.394 174.041 108.667 174.004 108.914 173.9C109.16 173.796 109.369 173.629 109.518 173.42C161.886 100.382 159.952 103.809 158.856 102.795Z" fill="#C1E691"/>
<path d="M156.358 115.62C156.133 116.029 113.998 175.943 114.271 175.53C113.616 176.481 112.688 177.236 111.596 177.707C110.504 178.178 109.293 178.345 108.104 178.19C106.915 178.034 105.797 177.562 104.881 176.829C103.966 176.095 103.29 175.13 102.933 174.047C95.4526 151.458 89.3623 128.479 84.6926 105.225C64.6265 114.23 49.0467 130.249 41.2398 149.903C23.6693 196.754 59.424 241.669 113.523 236.089C146.541 232.744 174.3 211.487 179.923 180.374C182.295 168.576 181.368 156.398 177.236 145.041C173.103 133.685 165.906 123.544 156.358 115.62Z" fill="#C1E691"/>
<path d="M0.493485 282.825C55.8481 285.393 395.433 285.83 426.553 284.213C427.157 284.206 427.728 283.952 428.141 283.508C428.554 283.064 428.776 282.466 428.756 281.845C428.736 281.225 428.478 280.632 428.037 280.199C427.596 279.765 427.009 279.525 426.405 279.532C371.046 279.093 31.6296 280.425 0.338901 280.638C-1.11527 280.437 -1.04878 282.753 0.493485 282.825Z" fill="white"/>
</g>
<defs>
<clipPath id="clip0_865_519">
<rect width="429" height="307" fill="white"/>
</clipPath>
</defs>
</svg>
