<svg width="63" height="29" viewBox="0 0 63 29" fill="none" xmlns="http://www.w3.org/2000/svg">
<path d="M14.3539 4.25091C17.5343 3.89684 20.7603 4.03972 23.8849 4.67302C38.5739 6.27462 53.2027 9.61786 62.6155 9.0498C62.9612 9.0281 63.0995 8.54685 62.7003 8.47978C56.1775 7.37918 49.4675 7.19967 42.9113 6.20163C36.6338 5.24895 30.3809 4.15229 24.07 3.40868C20.8498 2.75507 17.5392 2.51986 14.2424 2.71046C13.5974 1.90284 12.7191 1.26318 11.6992 0.858288C10.6794 0.453393 9.55528 0.298108 8.44438 0.408643C0.944894 0.450064 -0.662935 7.6415 2.15578 11.8901C3.04652 13.2332 4.17598 14.4406 5.50078 15.4661C5.77181 15.6713 5.96507 15.9451 6.05441 16.2506C6.14374 16.5561 6.12486 16.8785 6.0003 17.1742C5.15513 19.1762 3.25962 23.6102 1.70977 26.6891C1.64549 26.8166 1.61778 26.9562 1.62911 27.0955C1.64045 27.2347 1.69048 27.3693 1.77475 27.4874C1.85902 27.6054 1.97493 27.7033 2.1122 27.7722C2.24947 27.8411 2.40385 27.879 2.56164 27.8825C6.94136 27.987 11.5084 28.1389 15.877 28.056C16.0301 28.0526 16.18 28.0166 16.314 27.9511C16.4481 27.8856 16.5624 27.7926 16.6472 27.6798C16.7321 27.5671 16.785 27.4379 16.8015 27.3032C16.8181 27.1686 16.7977 27.0324 16.7422 26.9061C15.2503 23.4997 14.4119 20.3202 12.8843 17.0302C12.7413 16.7302 12.7118 16.3974 12.8002 16.0814C12.8886 15.7653 13.0902 15.4831 13.3749 15.2767C14.0707 14.7414 14.6208 14.074 14.9841 13.3243C15.3475 12.5747 15.5147 11.7621 15.4733 10.9473C19.0413 12.1505 15.0853 16.7501 16.4434 18.9671C17.2239 20.2472 21.0506 20.7739 22.4934 20.4642C25.0779 19.908 24.371 14.0696 25.2117 12.829C25.7313 12.0538 29.3908 13.0617 29.5223 13.2668C29.4619 13.8894 29.3197 14.5037 29.0986 15.0972C28.7352 16.8724 27.0916 20.0618 29.6115 20.8646C30.5703 21.0015 31.5394 21.0734 32.5105 21.0796C33.2558 21.2852 34.0222 21.4253 34.7985 21.4977C37.2984 21.3281 36.7074 17.9257 37.1177 16.1978C37.6953 13.7304 39.1381 14.3793 41.4038 14.754C48.197 16.0951 55.0622 17.1333 61.9733 17.8645C62.9144 17.9336 63.1485 16.5154 62.1963 16.3892C56.6213 15.6436 51.1199 14.9217 45.614 13.8467C42.9999 13.0898 40.2955 12.6033 37.5548 12.397C35.8979 12.4601 35.8199 13.5252 35.5478 14.8073C35.5118 16.2735 35.2446 17.728 34.7539 19.1289C34.0626 20.0421 33.0614 19.5234 31.9486 19.4366C29.2837 19.2255 30.2605 18.0697 30.3207 17.7482C30.5637 16.4562 32.0199 13.1307 30.6842 12.0439C28.9262 11.3536 27.032 10.9756 25.1092 10.9315C24.1659 11.0577 24.0165 11.47 23.7444 12.1919C23.4285 13.2665 23.1791 14.3556 22.9974 15.4542C22.8368 16.1249 23.178 19.3715 20.221 18.6101C18.5574 18.0302 18.3478 17.8211 18.1516 16.2235C17.9553 14.6258 18.9744 12.9059 18.7604 11.3358C18.5998 10.1327 18.1939 10.0222 16.8292 9.73819C15.3641 9.43246 13.6447 9.56855 12.4182 8.6573C9.96078 6.83478 12.1239 4.75782 14.3539 4.25091Z" fill="white"/>
</svg>
