<svg width="34" height="40" viewBox="0 0 34 40" fill="none" xmlns="http://www.w3.org/2000/svg">
<path d="M25.552 33.0504C22.1825 35.3502 18.8999 37.944 14.4354 38.1787C6.55015 38.6028 -1.11882 30.1687 4.25994 17.5373C6.91141 11.3163 12.7005 2.6653 21.1812 2.42861C22.988 2.36715 24.7786 2.75062 26.3536 3.53629C27.9285 4.32195 29.2259 5.47896 30.1012 6.87839C31.1983 8.79164 30.6141 10.8114 31.4013 12.7128C31.6243 13.2611 32.6411 13.5471 32.9756 12.8982C35.1098 8.74429 31.8183 3.62784 27.6705 1.57849C21.4265 -1.5044 14.3195 0.986771 9.84831 5.38132C1.65975 13.4406 -5.91777 30.7072 7.15449 38.2615C13.6817 42.0367 21.752 38.6895 26.163 33.7644C26.5019 33.4035 26.056 32.7052 25.552 33.0504Z" fill="white"/>
</svg>
