<svg width="63" height="31" viewBox="0 0 63 31" fill="none" xmlns="http://www.w3.org/2000/svg">
<path d="M11.2068 23.6811C11.9387 25.5809 12.8775 27.4133 14.0099 29.1526C14.6789 29.9633 15.1249 29.9534 16.2399 29.985C22.4571 30.1566 39.753 29.4583 57.0489 29.7581C58.1929 29.7798 62.9093 30.4169 62.8469 28.7719C62.7555 26.3577 54.4643 17.8289 43.0333 2.05158C41.7288 0.248785 41.1668 0.138347 38.5867 0.23894C34.3676 0.396734 9.51644 1.18766 1.3145 1.42237C0.224034 1.45393 0.217344 2.95693 1.3145 2.92537C43.6421 1.74192 40.3841 1.65118 40.6428 1.79714C41.4768 2.26657 42.3131 4.0812 42.8483 4.80705C44.0413 6.41063 58.5608 25.5312 59.8788 27.2039C60.666 28.1999 59.8966 28.1427 58.3178 28.1151C56.5338 28.0796 17.792 28.3005 16.532 28.2907C14.971 28.2729 14.2084 25.5806 13.5706 24.3774C5.39539 8.92151 4.09307 6.54081 1.85861 3.31591C1.50627 2.809 0.594217 2.96283 0.843977 3.4796C4.7554 11.5784 7.65439 16.5745 11.2068 23.6811Z" fill="white"/>
</svg>
