<svg width="58" height="85" viewBox="0 0 58 85" fill="none" xmlns="http://www.w3.org/2000/svg">
<path d="M28.667 0C12.9549 0 0.166992 12.4367 0.166992 27.7174C0.166992 39.1147 5.45873 44.6077 9.31074 48.6209C11.7378 51.1544 13.467 52.9734 13.467 55.4348V64.6739H26.767V37.7072L19.7014 30.8933C18.9592 30.1715 18.9592 28.9589 19.7014 28.2371C20.4436 27.5153 21.6904 27.5153 22.4326 28.2371L28.667 34.358L34.9014 28.2371C35.6436 27.5153 36.8904 27.5153 37.6326 28.2371C38.3748 28.9589 38.3748 30.1715 37.6326 30.8933L30.567 37.7072V64.6739H43.867V55.4348C43.867 51.8979 45.9674 49.7541 48.617 47.0618C52.4318 43.1857 57.167 38.3857 57.167 27.7174C57.167 12.4367 44.3792 0 28.667 0ZM13.467 68.3696V73.913C13.467 76.9662 16.0275 79.4565 19.167 79.4565H21.3639C22.21 82.6396 25.1342 85 28.667 85C32.1998 85 35.124 82.6396 35.9701 79.4565H38.167C41.3064 79.4565 43.867 76.9662 43.867 73.913V68.3696H13.467Z" fill="url(#paint0_linear_919_483)" fill-opacity="0.77"/>
<defs>
<linearGradient id="paint0_linear_919_483" x1="28.667" y1="0" x2="28.667" y2="85" gradientUnits="userSpaceOnUse">
<stop stop-color="white" stop-opacity="0.7"/>
<stop offset="1" stop-color="#999999" stop-opacity="0.5"/>
</linearGradient>
</defs>
</svg>
