<svg width="191" height="29" viewBox="0 0 191 29" fill="none" xmlns="http://www.w3.org/2000/svg">
<path d="M11.9377 15.1722C9.97526 17.3222 1.26265 25.2434 0.910309 27.204C0.862851 27.3777 0.87821 27.5603 0.954221 27.7259C1.03023 27.8915 1.16307 28.0318 1.33401 28.1271C2.52483 28.8017 38.6776 28.1271 46.7346 28.1015C63.7539 28.0383 184.426 28.6932 187.479 28.7287C189.814 28.7543 191.466 28.3165 190.322 26.0028C186.422 18.1131 182.548 10.2235 178.586 2.35746C177.578 0.363343 176.773 0.0950972 174.349 0.104959C174.349 0.104959 29.5836 0.104955 25.0055 0.0576172C24.7938 0.0673485 24.5944 0.148596 24.4484 0.284577C24.3024 0.420557 24.2211 0.600894 24.2211 0.788396C24.2211 0.975897 24.3024 1.15626 24.4484 1.29224C24.5944 1.42823 24.7938 1.50944 25.0055 1.51917C53.6231 1.76573 167.679 1.45014 175.709 1.87224C176.358 1.90774 175.486 0.572423 188.233 25.993C188.411 26.346 188.364 26.9791 186.252 27.0245C184.787 27.0521 44.7722 26.5294 12.7025 26.7405C10.9988 26.7405 3.76917 27.0087 3.82269 26.63C4.00109 25.3598 15.1444 14.8862 24.6531 1.99846C24.9809 1.55467 24.2071 1.19176 23.8682 1.59216C23.8503 1.58624 16.2929 10.399 11.9377 15.1722Z" fill="white"/>
</svg>
