<svg width="8" height="8" viewBox="0 0 8 8" fill="none" xmlns="http://www.w3.org/2000/svg">
<path d="M1.01052 5.62479C2.73877 9.07652 9.21021 7.33093 6.95123 2.72139C6.76145 2.32592 6.47488 1.97259 6.11215 1.68686C5.74942 1.40114 5.31956 1.19012 4.85354 1.06901C4.38752 0.947894 3.89693 0.919705 3.4171 0.986466C2.93728 1.05323 2.48016 1.21327 2.07868 1.45509C0.702771 2.28942 -0.501427 4.53009 1.05288 5.72143C1.11527 5.77707 1.19496 5.81501 1.28182 5.83043C1.36867 5.84584 1.45876 5.83802 1.54058 5.80797C1.62239 5.77793 1.69223 5.72701 1.7412 5.66172C1.79017 5.59643 1.81606 5.51971 1.81555 5.44135C1.91144 4.53009 1.70851 3.55966 2.56705 2.8772C2.78359 2.68414 3.04641 2.53661 3.3361 2.44549C3.62579 2.35438 3.93493 2.32201 4.24066 2.3508C4.54639 2.37958 4.8409 2.46877 5.10241 2.61178C5.36392 2.75479 5.58576 2.94796 5.7515 3.17701C6.10318 3.61199 6.25544 4.14867 6.17765 4.67899C6.09986 5.2093 5.79779 5.69386 5.33225 6.03505C4.73019 6.3327 4.02271 6.4168 3.35317 6.27031C2.68362 6.12381 2.10208 5.75767 1.72635 5.24608C1.44537 4.83582 0.796439 5.19875 1.01052 5.62479Z" fill="white"/>
</svg>
