<svg width="53" height="51" viewBox="0 0 53 51" fill="none" xmlns="http://www.w3.org/2000/svg">
<path d="M6.88114 7.49654V21.3976C6.88114 21.8512 7.26196 22.2197 7.73058 22.2197H22.0937C22.5623 22.2197 22.9432 21.8512 22.9432 21.3976V7.49654C22.9432 7.04299 22.5623 6.67442 22.0937 6.67442H7.73058C7.26086 6.67442 6.88114 7.04193 6.88114 7.49654ZM8.57893 8.31759H21.2426V20.5739H8.57893V8.31759ZM0 9.76532V0.836764C0 0.383219 0.380822 0.0146484 0.849442 0.0146484H10.0748C10.5439 0.0146484 10.9242 0.383219 10.9242 0.836764C10.9242 1.29084 10.5439 1.65888 10.0748 1.65888H1.69888V9.76532C1.69888 10.2194 1.31861 10.5874 0.849442 10.5874C0.380822 10.5874 0 10.2194 0 9.76532ZM41.7544 0.836764C41.7544 0.383219 42.1352 0.0146484 42.6038 0.0146484H51.8291C52.2983 0.0146484 52.6786 0.383219 52.6786 0.836764V9.76532C52.6786 10.2194 52.2983 10.5874 51.8291 10.5874C51.3605 10.5874 50.9797 10.2194 50.9797 9.76532V1.65888H42.6038C42.1352 1.65888 41.7544 1.29084 41.7544 0.836764ZM10.9242 50.1764C10.9242 50.6305 10.5439 50.9985 10.0748 50.9985H0.849442C0.380822 50.9985 0 50.6305 0 50.1764V41.2479C0 40.7943 0.380822 40.4258 0.849442 40.4258C1.31861 40.4258 1.69888 40.7943 1.69888 41.2479V49.3543H10.0748C10.5439 49.3543 10.9242 49.7229 10.9242 50.1764ZM52.6786 41.2479V50.1764C52.6786 50.6305 52.2983 50.9985 51.8291 50.9985H42.6038C42.1352 50.9985 41.7544 50.6305 41.7544 50.1764C41.7544 49.7229 42.1352 49.3543 42.6038 49.3543H50.9797V41.2479C50.9797 40.7943 51.3605 40.4258 51.8291 40.4258C52.2983 40.4258 52.6786 40.7943 52.6786 41.2479ZM30.5854 22.2197H44.948C45.4172 22.2197 45.7974 21.8512 45.7974 21.3976V7.49654C45.7974 7.04299 45.4172 6.67442 44.948 6.67442H30.5854C30.1168 6.67442 29.736 7.04299 29.736 7.49654V21.3976C29.736 21.8512 30.1168 22.2197 30.5854 22.2197ZM31.4348 8.31759H44.0986V20.5739H31.4348V8.31759ZM22.0937 28.794H7.73058C7.26196 28.794 6.88114 29.1626 6.88114 29.6161V43.5167C6.88114 43.9707 7.26196 44.3388 7.73058 44.3388H22.0937C22.5623 44.3388 22.9432 43.9707 22.9432 43.5167V29.6161C22.9432 29.1626 22.5623 28.794 22.0937 28.794ZM21.2443 42.6961H8.57893V30.4393H21.2426V42.6961H21.2443ZM33.1112 40.25H30.5854C30.1168 40.25 29.736 40.6185 29.736 41.0721V43.5167C29.736 43.9707 30.1168 44.3388 30.5854 44.3388H33.1112C33.5804 44.3388 33.9607 43.9707 33.9607 43.5167V41.0721C33.9607 40.6185 33.5815 40.25 33.1112 40.25ZM32.2618 42.6961H31.4348V41.8958H32.2618V42.6961ZM27.1887 7.49654V7.50556C27.1887 7.95964 26.8085 8.32768 26.3393 8.32768C25.8707 8.32768 25.4898 7.95964 25.4898 7.50556V7.49654C25.4898 7.04299 25.8707 6.67442 26.3393 6.67442C26.8085 6.67442 27.1887 7.04193 27.1887 7.49654ZM27.1887 10.4297V21.3976C27.1887 21.8512 26.8085 22.2197 26.3393 22.2197C25.8707 22.2197 25.4898 21.8512 25.4898 21.3976V10.4297C25.4898 9.97563 25.8707 9.60759 26.3393 9.60759C26.8085 9.60759 27.1887 9.97563 27.1887 10.4297ZM27.1887 25.5018V25.5108C27.1887 25.9644 26.8085 26.333 26.3393 26.333C25.8707 26.333 25.4898 25.9644 25.4898 25.5108V25.5018C25.4898 25.0477 25.8707 24.6797 26.3393 24.6797C26.8085 24.6797 27.1887 25.0477 27.1887 25.5018ZM27.1887 43.5082V43.5167C27.1887 43.9707 26.8085 44.3388 26.3393 44.3388C25.8707 44.3388 25.4898 43.9707 25.4898 43.5167V43.5082C25.4898 43.0541 25.8707 42.686 26.3393 42.686C26.8085 42.686 27.1887 43.0541 27.1887 43.5082ZM27.1887 29.6161V40.584C27.1887 41.0376 26.8085 41.4061 26.3393 41.4061C25.8707 41.4061 25.4898 41.0376 25.4898 40.584V29.6161C25.4898 29.1626 25.8707 28.794 26.3393 28.794C26.8085 28.794 27.1887 29.1626 27.1887 29.6161ZM7.73991 24.6845C8.20908 24.6845 8.58935 25.0531 8.58935 25.5066C8.58935 25.9607 8.20908 26.3287 7.73991 26.3287H7.73058C7.26196 26.3287 6.88114 25.9607 6.88114 25.5066C6.88114 25.0531 7.26196 24.6845 7.73058 24.6845H7.73991ZM22.9432 25.5066C22.9432 25.9607 22.5623 26.3287 22.0937 26.3287H10.7612C10.2921 26.3287 9.9118 25.9607 9.9118 25.5066C9.9118 25.0531 10.2921 24.6845 10.7612 24.6845H22.0937C22.5623 24.6845 22.9432 25.0531 22.9432 25.5066ZM45.7974 25.5066C45.7974 25.9607 45.4172 26.3287 44.948 26.3287H44.9392C44.47 26.3287 44.0898 25.9607 44.0898 25.5066C44.0898 25.0531 44.47 24.6845 44.9392 24.6845H44.948C45.4183 24.6845 45.7974 25.0531 45.7974 25.5066ZM41.9179 26.3287H30.5854C30.1168 26.3287 29.736 25.9607 29.736 25.5066C29.736 25.0531 30.1168 24.6845 30.5854 24.6845H41.9179C42.3865 24.6845 42.7673 25.0531 42.7673 25.5066C42.7673 25.9607 42.3865 26.3287 41.9179 26.3287ZM18.0622 12.2189V16.6736C18.0622 17.1277 17.6819 17.4958 17.2127 17.4958H12.6099C12.1413 17.4958 11.7605 17.1277 11.7605 16.6736V12.2189C11.7605 11.7654 12.1413 11.3968 12.6099 11.3968H17.2127C17.6819 11.3968 18.0622 11.7654 18.0622 12.2189ZM40.9181 12.2189V16.6736C40.9181 17.1277 40.5378 17.4958 40.0686 17.4958H35.4659C34.9972 17.4958 34.6164 17.1277 34.6164 16.6736V12.2189C34.6164 11.7654 34.9972 11.3968 35.4659 11.3968H40.0686C40.5378 11.3968 40.9181 11.7654 40.9181 12.2189ZM11.7605 38.7943V34.3396C11.7605 33.886 12.1413 33.5174 12.6099 33.5174H17.2127C17.6819 33.5174 18.0622 33.886 18.0622 34.3396V38.7943C18.0622 39.2484 17.6819 39.6164 17.2127 39.6164H12.6099C12.1413 39.6164 11.7605 39.2484 11.7605 38.7943ZM29.736 32.0979V29.6172C29.736 29.1636 30.1168 28.7951 30.5854 28.7951C31.054 28.7951 31.4348 29.1636 31.4348 29.6172V32.0979C31.4348 32.5514 31.054 32.92 30.5854 32.92C30.1168 32.92 29.736 32.5514 29.736 32.0979ZM34.1335 30.4382V32.0979C34.1335 32.5503 33.7538 32.9163 33.2879 32.9163C32.8204 32.9163 32.4423 32.5487 32.4423 32.0979V29.6161C32.4423 29.1636 32.8215 28.7977 33.2879 28.7977C33.3126 28.7977 33.3368 28.7993 33.3615 28.8014C33.3944 28.7977 33.4289 28.7951 33.463 28.7951H36.4366C36.9057 28.7951 37.286 29.1636 37.286 29.6172C37.286 30.0712 36.9057 30.4393 36.4366 30.4393H34.1335V30.4382ZM45.7974 29.6161V43.5167C45.7974 43.9707 45.4172 44.3388 44.948 44.3388C44.4794 44.3388 44.0986 43.9707 44.0986 43.5167V29.6161C44.0986 29.1626 44.4794 28.794 44.948 28.794C45.4183 28.794 45.7974 29.1626 45.7974 29.6161ZM29.736 34.4543V34.4458C29.736 33.9917 30.1168 33.6237 30.5854 33.6237C31.054 33.6237 31.4348 33.9917 31.4348 34.4458V34.4543C31.4348 34.9083 31.054 35.2764 30.5854 35.2764C30.1168 35.2764 29.736 34.9083 29.736 34.4543ZM37.2849 32.0878V32.0963C37.2849 32.5503 36.9041 32.9184 36.4355 32.9184C35.9663 32.9184 35.586 32.5503 35.586 32.0963V32.0878C35.586 31.6337 35.9663 31.2657 36.4355 31.2657C36.9041 31.2657 37.2849 31.6337 37.2849 32.0878ZM43.1152 29.6161C43.1152 30.0697 42.7344 30.4382 42.2658 30.4382H39.3158C38.8466 30.4382 38.4663 30.0697 38.4663 29.6161C38.4663 29.1626 38.8466 28.794 39.3158 28.794H42.2658C42.7344 28.794 43.1152 29.1626 43.1152 29.6161ZM29.736 38.6365V36.9589C29.736 36.5053 30.1168 36.1367 30.5854 36.1367C31.054 36.1367 31.4348 36.5053 31.4348 36.9589V38.6365C31.4348 39.0901 31.054 39.4587 30.5854 39.4587C30.1168 39.4587 29.736 39.0901 29.736 38.6365ZM42.2658 44.3388H39.3158C38.8466 44.3388 38.4663 43.9707 38.4663 43.5167C38.4663 43.0631 38.8466 42.6945 39.3158 42.6945H42.2658C42.7344 42.6945 43.1152 43.0631 43.1152 43.5167C43.1152 43.9707 42.7344 44.3388 42.2658 44.3388ZM38.4663 41.0737C38.4663 40.6196 38.8466 40.2516 39.3158 40.2516H42.2658C42.7344 40.2516 43.1152 40.6196 43.1152 41.0737C43.1152 41.5272 42.7344 41.8958 42.2658 41.8958H39.3158C38.8466 41.8958 38.4663 41.5272 38.4663 41.0737ZM38.2726 34.4458C38.2726 34.8993 37.8918 35.2679 37.4232 35.2679H35.479C35.0104 35.2679 34.6296 34.8993 34.6296 34.4458C34.6296 33.9917 35.0104 33.6237 35.479 33.6237H37.4232C37.8918 33.6237 38.2726 33.9917 38.2726 34.4458ZM36.7631 43.5082V43.5167C36.7631 43.9707 36.3828 44.3388 35.9136 44.3388C35.445 44.3388 35.0642 43.9707 35.0642 43.5167V43.5082C35.0642 43.0541 35.445 42.686 35.9136 42.686C36.3839 42.686 36.7631 43.0541 36.7631 43.5082ZM36.7631 41.0684V41.0774C36.7631 41.5309 36.3828 41.8995 35.9136 41.8995C35.445 41.8995 35.0642 41.5309 35.0642 41.0774V41.0684C35.0642 40.6148 35.445 40.2463 35.9136 40.2463C36.3839 40.2463 36.7631 40.6148 36.7631 41.0684ZM33.9607 38.6275V38.6365C33.9607 39.0901 33.5804 39.4587 33.1112 39.4587C32.6426 39.4587 32.2618 39.0901 32.2618 38.6365V38.6275C32.2618 38.174 32.6426 37.8054 33.1112 37.8054C33.5804 37.8054 33.9607 38.174 33.9607 38.6275ZM33.9607 36.5335C33.9607 36.987 33.5804 37.3556 33.1112 37.3556C32.6426 37.3556 32.2618 36.987 32.2618 36.5335C32.2618 36.0783 32.6426 35.7113 33.1112 35.7113C33.5804 35.7098 33.9607 36.0783 33.9607 36.5335ZM33.9607 34.4543C33.9607 34.9083 33.5804 35.2764 33.1112 35.2764C32.6426 35.2764 32.2618 34.9083 32.2618 34.4543V34.4458C32.2618 33.9917 32.6426 33.6237 33.1112 33.6237C33.5804 33.6237 33.9607 33.9917 33.9607 34.4458V34.4543ZM42.2641 32.92C41.7955 32.92 41.4147 32.5514 41.4147 32.0979V32.0888C41.4147 31.6353 41.7955 31.2667 42.2641 31.2667C42.7333 31.2667 43.1136 31.6353 43.1136 32.0888V32.0979C43.1136 32.5514 42.7333 32.92 42.2641 32.92ZM37.7837 32.0878C37.7837 31.6337 38.1645 31.2657 38.6331 31.2657H39.8398C40.3084 31.2657 40.6893 31.6337 40.6893 32.0878C40.6893 32.5413 40.3084 32.9099 39.8398 32.9099H38.6331C38.1645 32.9099 37.7837 32.5413 37.7837 32.0878ZM43.1152 34.4458C43.1152 33.9917 42.7344 33.6237 42.2658 33.6237H39.7394C39.2708 33.6237 38.89 33.9917 38.89 34.4458V36.8903C38.89 37.3439 39.2708 37.7125 39.7394 37.7125H42.2658C42.7344 37.7125 43.1152 37.3439 43.1152 36.8903V34.4458ZM41.4163 36.0682H40.5888V35.2679H41.4163V36.0682ZM38.2726 36.6147C38.2726 37.0688 37.8918 37.4368 37.4232 37.4368H35.479C35.0104 37.4368 34.6296 37.0688 34.6296 36.6147C34.6296 36.1612 35.0104 35.7926 35.479 35.7926H37.4232C37.8918 35.7926 38.2726 36.1612 38.2726 36.6147ZM38.2726 38.6365C38.2726 39.0901 37.8918 39.4587 37.4232 39.4587H35.479C35.0104 39.4587 34.6296 39.0901 34.6296 38.6365C34.6296 38.1825 35.0104 37.8144 35.479 37.8144H37.4232C37.8918 37.8144 38.2726 38.1825 38.2726 38.6365ZM39.7394 39.7327C39.2708 39.7327 38.89 39.3641 38.89 38.9106V38.9016C38.89 38.448 39.2708 38.0794 39.7394 38.0794C40.2086 38.0794 40.5888 38.448 40.5888 38.9016V38.9106C40.5888 39.3641 40.2086 39.7327 39.7394 39.7327ZM42.2641 39.7327C41.7955 39.7327 41.4147 39.3641 41.4147 38.9106V38.9016C41.4147 38.448 41.7955 38.0794 42.2641 38.0794C42.7333 38.0794 43.1136 38.448 43.1136 38.9016V38.9106C43.1136 39.3641 42.7333 39.7327 42.2641 39.7327Z" fill="white"/>
</svg>
