<svg width="163" height="22" viewBox="0 0 163 22" fill="none" xmlns="http://www.w3.org/2000/svg">
<path d="M161.728 14.6295C159.721 14.6018 156.345 14.5802 151.883 14.5644C150.808 12.1876 152.351 15.7222 148.003 6.02576C151.91 6.02576 154.904 6.02578 156.737 6.04551C156.921 6.04551 157.097 5.98107 157.226 5.8664C157.356 5.75173 157.429 5.5962 157.429 5.43403C157.429 5.27187 157.356 5.11636 157.226 5.00169C157.097 4.88702 156.921 4.82259 156.737 4.82259C154.862 4.79892 151.653 4.77724 147.427 4.76146C146.41 2.5918 146.076 2.25844 145.264 1.87579C145.2 1.84373 145.128 1.82485 145.054 1.8205C144.981 1.81615 144.907 1.82647 144.838 1.85069C144.769 1.8749 144.708 1.91238 144.658 1.96042C144.607 2.00846 144.57 2.06581 144.548 2.12827C144.287 2.78903 144.254 3.19142 144.867 4.75358C137.049 4.72991 126.47 4.71609 114.651 4.71412C114.187 3.48516 113.58 2.3025 112.838 1.18546C112.785 1.11193 112.708 1.05504 112.617 1.02309C112.525 0.991133 112.425 0.985774 112.33 1.00777C112.235 1.02976 112.15 1.07797 112.089 1.1454C112.027 1.21283 111.991 1.29594 111.986 1.38268C112.016 2.50049 112.165 3.61333 112.432 4.70623C102.372 4.70623 91.5033 4.70624 80.7279 4.72793C80.6744 3.89031 80.6187 3.05138 80.5607 2.21113C80.552 2.09419 80.4934 1.98452 80.3967 1.90441C80.3 1.8243 80.1725 1.77972 80.04 1.77972C79.9075 1.77972 79.7799 1.8243 79.6832 1.90441C79.5865 1.98452 79.5279 2.09419 79.5193 2.21113C79.4234 3.05138 79.3275 3.89161 79.2383 4.72989C68.0102 4.7437 56.9383 4.76539 47.0259 4.793C47.1069 4.0298 46.991 3.26032 46.687 2.54249C46.5911 2.33144 46.2766 2.19138 46.0804 2.39453C45.4503 3.08847 45.0408 3.91844 44.894 4.79893C33.6147 4.83246 24.0101 4.87388 17.6769 4.92121C18.3281 4.02881 18.8694 3.07729 19.2914 2.08291C19.6259 1.24069 18.1965 0.471428 17.5386 1.18742C16.4387 2.40543 15.3928 3.66085 14.4033 4.9508C12.8873 4.95895 11.3715 4.98392 9.85629 5.02574C9.73623 5.02574 9.62108 5.06794 9.53619 5.14303C9.45129 5.21812 9.4036 5.31995 9.4036 5.42615C9.4036 5.53234 9.45129 5.63418 9.53619 5.70927C9.62108 5.78436 9.73623 5.82655 9.85629 5.82655C10.8932 5.89559 12.1443 5.95674 13.5871 6.01394C8.29083 12.9746 8.72568 12.2271 6.83464 14.7498C4.79167 14.7568 2.74886 14.7844 0.706599 14.8326C0.586538 14.8326 0.471393 14.8748 0.386497 14.9499C0.301601 15.025 0.253906 15.1268 0.253906 15.233C0.253906 15.3392 0.301601 15.441 0.386497 15.5161C0.471393 15.5912 0.586538 15.6334 0.706599 15.6334C1.95317 15.7123 3.75724 15.7794 6.0363 15.8307C4.90693 17.3772 3.90457 18.9935 3.03695 20.667C3.01147 20.7059 2.99489 20.7488 2.98817 20.7933C2.98144 20.8378 2.98469 20.8831 2.99773 20.9265C3.02408 21.0142 3.08872 21.089 3.17744 21.1345C3.26615 21.18 3.37168 21.1925 3.47079 21.1692C3.5699 21.1459 3.65449 21.0887 3.70595 21.0102C5.04395 19.2903 6.53136 17.5684 8.0656 15.882C15.6476 16.0338 27.2815 16.095 40.8644 16.1048C40.2462 17.611 39.8555 19.1828 39.7026 20.7795C39.6602 21.3534 40.5009 21.4323 40.8176 21.0477C41.9829 19.5336 42.8794 17.8707 43.4758 16.1167C54.3158 16.1167 66.2664 16.093 78.3195 16.0535C78.0985 17.7245 78.3128 19.418 78.9462 21.0043C79.0142 21.1079 79.1118 21.1938 79.2292 21.2536C79.3466 21.3133 79.4797 21.3448 79.6151 21.3448C79.7506 21.3448 79.8837 21.3133 80.0011 21.2536C80.1185 21.1938 80.2161 21.1079 80.2841 21.0043C80.9972 19.4311 81.2895 17.7334 81.1382 16.0437C93.0063 16.0023 104.892 15.951 115.83 15.9076C116.314 17.4477 117.001 18.932 117.877 20.3297C117.957 20.4424 118.076 20.5294 118.216 20.5779C118.356 20.6263 118.51 20.6335 118.655 20.5986C118.8 20.5636 118.929 20.4883 119.021 20.3838C119.114 20.2793 119.167 20.151 119.171 20.0181C119.095 18.6254 118.85 17.244 118.439 15.8977C130.629 15.8484 141.502 15.809 149.659 15.807C150.401 17.6281 151.416 19.3529 152.677 20.9353C152.993 21.3081 153.899 21.2607 153.827 20.6611C153.588 18.9982 153.12 17.3674 152.434 15.805C156.416 15.805 159.587 15.8228 161.737 15.8524C161.828 15.8519 161.918 15.8355 162.001 15.8043C162.085 15.7731 162.161 15.7276 162.225 15.6705C162.288 15.6133 162.339 15.5456 162.373 15.4713C162.407 15.3969 162.425 15.3173 162.424 15.237C162.423 15.1567 162.405 15.0773 162.37 15.0033C162.334 14.9293 162.283 14.8622 162.218 14.8058C162.154 14.7493 162.077 14.7048 161.993 14.6745C161.909 14.6443 161.819 14.6289 161.728 14.6295ZM9.10924 14.7399C11.928 11.6767 14.7645 8.73786 16.7916 6.12638C23.5931 6.32362 33.2646 6.4104 44.4012 6.44393C43.5926 9.21132 42.6106 11.9368 41.4598 14.6078C27.9795 14.6433 16.4816 14.6886 9.10924 14.7399ZM44.0043 14.6019C46.1049 8.34534 46.3235 8.29009 46.7606 6.44983C56.7799 6.47152 67.8697 6.44984 79.0599 6.40447C78.5559 11.3612 78.7187 11.586 78.4399 14.5368C66.9614 14.5514 55.4828 14.5731 44.0043 14.6019ZM81.0624 14.5328C80.9331 11.8996 81.0892 11.1797 80.826 6.39659C91.753 6.35122 102.711 6.28415 112.829 6.22103C113.386 8.14414 112.733 5.71411 115.375 14.5052C104.555 14.5131 92.7944 14.519 81.0624 14.5328ZM117.996 14.5151L115.195 6.20526C127.07 6.13031 137.642 6.06126 145.402 6.03365C147.144 10.0712 146.591 8.52483 149.113 14.5545C141.036 14.5289 130.183 14.517 117.996 14.5151Z" fill="white"/>
</svg>
