<svg width="106" height="10" viewBox="0 0 106 10" fill="none" xmlns="http://www.w3.org/2000/svg">
<path d="M0.382886 1.94441C9.61509 2.36453 18.874 2.76297 28.0349 3.88527C40.7972 5.44545 52.9217 10.6014 65.9828 9.91101C79.0439 9.22066 91.4449 4.53419 104.595 4.43952C104.746 4.43585 104.89 4.3895 105.009 4.30732C105.127 4.22514 105.212 4.1115 105.252 3.98321C105.291 3.85491 105.283 3.71876 105.228 3.59491C105.173 3.47107 105.075 3.3661 104.948 3.29553C97.9967 0.0942911 92.0894 3.33102 82.6231 5.00363C74.5349 6.42575 66.6786 8.39816 58.4543 7.42379C48.3078 6.22061 38.7166 2.74718 28.5255 1.61304C19.1654 0.438523 9.67043 0.36755 0.28921 1.40199C-0.0586703 1.45525 0.0483864 1.9306 0.382886 1.94441Z" fill="white"/>
</svg>
