<svg width="250" height="191" viewBox="0 0 250 191" fill="none" xmlns="http://www.w3.org/2000/svg">
<path d="M245.875 14.0011C243.334 9.00937 238.681 5.09809 232.916 3.10738C225.573 0.560991 217.393 0.963364 209.657 1.02648C176.707 1.29473 41.4348 1.20597 32.1246 1.5472C24.856 1.63128 17.7358 3.37833 11.457 6.61829C-2.59204 14.4665 0.614698 27.5575 1.17666 42.2382C2.25598 70.4635 3.07885 105.498 6.65577 130.583C7.59683 137.188 8.63378 143.879 12.6455 149.668C19.8083 159.997 34.3122 163.897 47.9576 163.848C48.4839 163.848 78.8186 164.491 113.607 164.719C113.66 166.343 114.024 168.136 114.229 169.848C113.471 169.767 93.0437 170.219 87.0406 170.974C86.9159 170.996 86.7983 171.042 86.6962 171.109C86.594 171.176 86.5099 171.263 86.4498 171.362C86.3898 171.461 86.3552 171.571 86.3486 171.683C86.342 171.795 86.3636 171.907 86.4117 172.011C83.3343 174.311 80.6137 177.163 77.8084 179.678C74.3563 182.757 70.7148 185.745 67.4902 189.01C67.3566 189.133 67.2829 189.298 67.2849 189.468C67.287 189.639 67.3646 189.802 67.5011 189.923C67.6376 190.044 67.8222 190.113 68.0152 190.114C68.2083 190.116 68.3944 190.051 68.5338 189.933C72.1464 187 75.429 183.706 78.8275 180.58C81.6551 177.974 84.8953 175.451 87.4442 172.603C96.3965 171.896 105.385 171.608 114.371 171.741C114.389 173.037 114.311 174.572 115.765 175.229C115.988 175.333 116.378 175.26 116.421 174.99C116.528 173.278 116.448 171.56 116.182 169.862C116.139 168.112 115.774 166.379 115.101 164.733C123.209 164.785 131.538 164.81 139.769 164.798C138.711 167.749 138.557 170.895 139.323 173.915C139.356 174.009 139.422 174.092 139.513 174.151C139.603 174.21 139.712 174.241 139.824 174.241C139.935 174.241 140.044 174.21 140.135 174.151C140.225 174.092 140.291 174.009 140.324 173.915C140.613 173.057 140.786 172.172 140.839 171.278C145.402 171.816 149.182 171.439 161.474 172.118C163.34 172.223 166.003 172.246 167.575 172.238C169.888 175.057 172.612 177.594 175.676 179.783C178.675 182.39 181.835 184.847 185.143 187.144C185.941 187.676 186.927 186.511 186.209 185.921C183.026 183.347 179.681 180.939 176.506 178.349C174.085 176.057 171.502 173.904 168.772 171.903C168.816 171.786 168.813 171.66 168.765 171.545C168.717 171.429 168.626 171.332 168.507 171.268C166.625 170.643 164.619 170.363 162.611 170.447C159.953 170.299 157.292 170.184 154.63 170.104C150.085 169.705 145.516 169.564 140.951 169.682C141.076 167.935 141.419 166.319 141.435 164.796C164.923 164.751 187.444 164.39 201.576 163.398C213.569 162.554 228.244 161.936 236.457 152.944C240.708 148.295 241.107 141.863 241.941 136.147C245.466 112.016 246.943 74.7338 249.173 47.116C250.067 36.2795 251.12 24.1551 245.875 14.0011ZM247.322 38.8535C247.19 42.1869 243.879 90.3889 243.531 95.1976C242.777 105.322 240.306 136.912 237.189 146.812C234.178 156.376 220.867 159.175 211.211 160.212C202.938 161.104 194.564 161.573 186.235 161.822C143.886 163.092 49.726 162.629 48.0446 162.573C32.6843 161.982 16.3451 157.583 11.0756 143.39C8.74528 137.115 8.4643 130.257 7.87558 123.709C5.54746 97.7263 5.70356 89.4224 3.63858 38.7529C3.3576 32.0368 2.01068 24.5772 4.17378 18.0248C9.25818 2.6557 32.1536 3.66164 46.2806 3.49793C62.9878 3.30068 205.828 3.15078 214.358 3.10344C222.043 3.06794 230.32 3.24151 236.83 7.34809C247.614 14.145 247.739 28.3248 247.322 38.8476V38.8535Z" fill="white"/>
</svg>
