<svg width="283" height="43" viewBox="0 0 283 43" fill="none" xmlns="http://www.w3.org/2000/svg">
<path d="M1.48606 42.0166C2.83521 40.3262 34.383 8.87997 35.9507 7.31584C36.9376 6.28023 38.1924 5.47055 39.6086 4.95548C41.0249 4.44041 42.5607 4.23517 44.0858 4.35722C65.574 4.24676 87.069 4.12646 108.557 4.43219C148.653 5.01208 236.854 3.02386 239.811 3.05147C242.71 3.07711 246.449 2.48736 248.662 4.36904C250.771 6.16592 272.594 32.4168 280.223 39.4485C281.409 40.5393 283.28 38.8805 282.1 37.7877C274.632 30.8981 255.987 8.69654 252.941 5.33948C251.847 3.77308 250.406 2.41905 248.704 1.35916C244.897 -0.319366 200.739 1.728 181.862 2.1067C159.517 2.55839 165.264 2.2073 46.454 2.17969C41.1979 2.17969 37.4783 2.37691 34.0151 6.18171C30.0323 10.5624 1.72467 39.6024 0.4558 41.4781C0.0610896 42.0738 1.05121 42.561 1.48606 42.0166Z" fill="white"/>
</svg>
