<svg width="4" height="54" viewBox="0 0 4 54" fill="none" xmlns="http://www.w3.org/2000/svg">
<path d="M2.795 1.00012C2.54078 4.70432 -0.0125644 49.425 1.02439 53.0562C1.05965 53.1585 1.13112 53.248 1.22828 53.3117C1.32544 53.3753 1.44314 53.4097 1.56404 53.4097C1.68494 53.4097 1.80264 53.3753 1.8998 53.3117C1.99696 53.248 2.06843 53.1585 2.10369 53.0562C3.29897 49.6104 3.33466 5.36508 3.27222 1.00012C3.27222 0.944142 3.24707 0.89046 3.20232 0.850881C3.15758 0.811302 3.09688 0.789062 3.0336 0.789062C2.97032 0.789062 2.90964 0.811302 2.86489 0.850881C2.82015 0.89046 2.795 0.944142 2.795 1.00012Z" fill="white"/>
</svg>
