<svg width="68" height="103" viewBox="0 0 68 103" fill="none" xmlns="http://www.w3.org/2000/svg">
<path d="M12.299 26.7361C11.5676 18.3119 15.644 9.655 19.658 6.02575C23.801 2.60323 29.2102 0.630826 34.8765 0.476578C40.5428 0.322331 46.079 1.99677 50.4521 5.18747C56.2886 9.69627 60.0724 15.9284 61.0981 22.7223C61.5329 24.3357 63.1051 28.4127 56.8611 28.7855C56.4151 28.8131 55.1373 27.817 54.9589 27.5113C53.1749 24.4521 52.8783 20.9254 51.3708 17.7616C49.5882 13.7239 46.1809 10.4116 41.8041 8.46168C39.6114 7.52869 37.1728 7.14132 34.75 7.34113C32.3272 7.54093 30.0117 8.32037 28.0517 9.59582C24.4639 12.4449 22.1293 16.3233 21.4598 20.5467C19.4216 32.0498 24.506 40.1999 25.7994 40.691C26.5325 40.9144 27.3109 40.9972 28.0829 40.9336C34.2154 40.8015 58.6005 39.9474 64.4052 40.0519C65.0206 40.0638 66.3921 40.2492 66.7779 41.1959C68.1672 44.5964 67.38 52.8529 67.3042 53.6971C67.0076 56.9516 64.7531 54.8431 60.9844 56.9398C48.3849 55.5591 43.9761 55.0048 41.5833 55.6163C41.0893 55.7214 40.6247 55.9144 40.2179 56.1837C39.8111 56.453 39.4706 56.7928 39.2173 57.1824C38.8903 58.0185 38.9439 58.9343 39.3667 59.7361C39.7896 60.5379 40.5485 61.1627 41.483 61.4783C43.3116 62.1963 45.5126 62.4231 46.9844 63.1233C46.8595 65.293 47.1517 66.1174 47.0312 68.295C46.9554 68.8431 47.0163 69.3992 47.2096 69.9242C47.4259 70.3052 47.7477 70.6317 48.1451 70.8731C48.5424 71.1145 49.0023 71.263 49.482 71.3049C50.4427 71.3774 51.4104 71.304 52.3431 71.0879C52.3185 68.3727 52.8309 65.6745 53.8573 63.1154C55.7104 63.3896 57.7843 64.0543 59.6374 64.3285C59.8604 64.3719 58.0118 69.7861 58.3574 71.9736C58.4823 72.7487 59.9541 72.5377 60.0968 72.6955C62.2621 75.1255 63.0895 75.6225 64.5858 75.944C66.2672 76.307 66.5237 76.9815 66.8381 78.7646C69.0681 91.3328 54.6935 102.684 39.8975 102.911C31.6063 103.043 17.2518 102.911 6.86226 89.6563C4.49614 86.775 3.17423 83.3265 3.07126 79.7666C3.3377 78.9133 3.77996 78.1109 4.3758 77.3997C7.95941 74.37 10.767 71.7428 10.2831 66.2023C9.88391 61.6045 7.75648 57.4447 2.79696 56.6222C2.3688 56.5552 1.38983 55.2514 1.32516 54.8668C0.609031 50.8009 0.502563 46.6692 1.00851 42.5786C1.20418 42.2608 1.50648 42.0044 1.87375 41.8449C4.66794 41.3182 11.7326 41.6811 14.5089 41.2176C14.7751 40.9721 14.9792 40.6792 15.1076 40.3585C15.236 40.0378 15.2858 39.6967 15.2537 39.3577C13.61 35.2925 12.6155 31.0444 12.299 26.7361Z" fill="#C1E691"/>
</svg>
