<svg width="64" height="62" viewBox="0 0 64 62" fill="none" xmlns="http://www.w3.org/2000/svg">
<path d="M49.0447 1.90811C42.8162 0.243926 36.1067 0.72373 30.2614 3.25132C22.6794 6.52751 17.731 13.3757 14.7674 20.6481C13.768 19.1453 12.2191 17.989 10.3765 17.3699C7.05825 16.2792 0.428465 17.3699 0.245605 21.2733C0.24572 21.3905 0.285186 21.505 0.358984 21.6024C0.432781 21.6997 0.537584 21.7755 0.660124 21.82C0.782663 21.8646 0.917416 21.876 1.04728 21.8528C1.17715 21.8295 1.29629 21.7727 1.3896 21.6895C3.71995 20.0386 6.24653 18.3522 9.41759 19.3956C10.3929 19.712 11.256 20.2514 11.9188 20.959C12.5816 21.6665 13.0205 22.5168 13.1908 23.4233C13.3023 24.558 13.0179 25.6958 12.376 26.6832C11.734 27.6707 10.7654 28.4604 9.60046 28.946C7.98242 29.4313 6.22787 29.4269 4.613 28.9334C2.99813 28.4399 1.61468 27.4854 0.680455 26.2201C0.571185 26.1038 0.301365 26.1195 0.321435 26.299C0.791965 30.7271 7.82092 32.6108 11.9464 30.1867C9.84576 41.0054 12.4749 53.7571 23.5625 58.7493C26.3212 60.017 29.3407 60.7797 32.4403 60.9916C35.5399 61.2036 38.656 60.8606 41.6023 59.983C44.5486 59.1055 47.2646 57.7114 49.5878 55.8842C51.9111 54.057 53.7939 51.8342 55.1237 49.3487C55.8328 48.0666 53.6809 46.9345 52.9427 48.2205C50.7828 52.2981 46.9872 55.5206 42.2925 57.2624C37.5977 59.0042 32.3388 59.1412 27.5363 57.6467C16.4555 54.4908 12.999 43.3171 13.8642 34.0546C14.5242 28.1161 16.4004 22.3335 19.4013 16.9892C21.4512 12.6691 24.8715 8.96635 29.249 6.3283C34.5258 3.51158 40.8209 2.58709 46.8437 3.74443C56.5531 5.59455 62.2463 15.6697 61.3588 23.7467C61.3097 24.1688 62.001 24.1885 62.146 23.8375C65.6047 15.4507 58.2881 4.72275 49.0447 1.90811Z" fill="white"/>
</svg>
