<svg width="44" height="23" viewBox="0 0 44 23" fill="none" xmlns="http://www.w3.org/2000/svg">
<path d="M42.8936 16.1657C41.6916 15.785 40.6234 15.6331 35.4231 15.6962C33.388 12.1842 31.1445 8.76978 28.7018 5.46728C30.9256 5.57461 33.1553 5.39924 35.3227 4.94655C35.4656 4.90748 35.5907 4.82896 35.6795 4.72248C35.7683 4.61599 35.8162 4.48713 35.8162 4.35481C35.8162 4.2225 35.7683 4.09367 35.6795 3.98718C35.5907 3.8807 35.4656 3.80215 35.3227 3.76308C32.6487 3.23938 29.894 3.11804 27.1743 3.40412C26.4427 2.43582 25.6994 1.47452 24.9443 0.520432C24.8613 0.402045 24.7294 0.316999 24.5766 0.28336C24.4238 0.249721 24.2622 0.270152 24.1261 0.340333C23.9901 0.410514 23.8904 0.524876 23.8483 0.659087C23.8062 0.793298 23.825 0.936774 23.9007 1.05892L25.4215 3.45736C21.7041 3.57768 15.6876 3.80453 11.7449 3.96232C10.8133 2.63932 9.70519 1.42016 8.44453 0.331093C8.38215 0.280294 8.30301 0.248485 8.21871 0.240352C8.13442 0.232218 8.0494 0.24818 7.9761 0.285888C7.9028 0.323596 7.84509 0.381087 7.81141 0.449915C7.77772 0.518743 7.76984 0.59528 7.78891 0.668357C8.15388 1.837 8.63829 2.97386 9.23617 4.06486C6.57833 4.03684 3.92381 4.23967 1.31077 4.67041C1.21634 4.69524 1.1335 4.74639 1.0746 4.81623C1.0157 4.88607 0.983887 4.97086 0.983887 5.05799C0.983887 5.14512 1.0157 5.22992 1.0746 5.29976C1.1335 5.3696 1.21634 5.42075 1.31077 5.44558C4.25961 5.98287 7.2826 6.12777 10.2798 5.87554C11.4706 7.81443 12.822 9.70401 13.9392 11.5305C14.8424 13.0019 15.692 14.5798 16.5996 16.1321C13.7351 16.0251 10.8663 16.2157 8.05205 16.7002C7.94999 16.7173 7.85789 16.7654 7.79164 16.8361C7.72538 16.9069 7.68913 16.9959 7.68913 17.0878C7.68913 17.1796 7.72538 17.2686 7.79164 17.3394C7.85789 17.4101 7.94999 17.4582 8.05205 17.4754C11.2361 18.0031 14.4839 18.1642 17.7146 17.9546C18.606 19.3955 19.6715 20.7467 20.8924 21.9843C21.2247 22.3117 21.7554 21.9567 21.6707 21.5898C21.3786 20.3412 20.9422 19.1224 20.3683 17.9527C25.1093 17.9349 31.3823 17.8856 34.4173 17.8461C35.1174 18.9613 35.916 20.0258 36.8057 21.0297C37.1446 21.4241 37.9564 21.2269 37.7713 20.6727C37.44 19.7024 37.0392 18.7517 36.5715 17.8264C38.7014 17.9589 40.8416 17.7986 42.9159 17.3511C43.059 17.3105 43.1835 17.2302 43.2711 17.1221C43.3586 17.0141 43.4046 16.884 43.4021 16.751C43.3996 16.6181 43.3488 16.4894 43.2572 16.384C43.1656 16.2786 43.0381 16.202 42.8936 16.1657ZM19.3648 16.0651C18.2766 14.1498 17.0055 12.2958 15.8972 10.5186C14.974 9.04325 14.0418 7.41603 13.016 5.82823C16.361 5.76314 20.7831 5.65463 26.7105 5.51065C29.9395 10.6389 31.8216 13.7139 33.0726 15.7337C30.1201 15.7712 27.2323 15.858 19.3648 16.0572V16.0651Z" fill="white"/>
</svg>
