<svg width="81" height="80" viewBox="0 0 81 80" fill="none" xmlns="http://www.w3.org/2000/svg">
<path d="M36.2838 0L31.6338 4.4L33.5338 6.4H22.1338C13.6838 6.4 6.78379 13.3 6.78379 21.75V27.85H13.1838V21.75C13.1838 16.7562 17.14 12.8 22.1338 12.8H33.5338L31.6838 14.75L36.3338 19.15L43.2338 11.8L45.2838 9.6L43.2338 7.4L36.2838 0ZM52.5338 6.4V12.8H58.6338C63.6275 12.8 67.5838 16.7562 67.5838 21.75V33.15L65.6338 31.3L61.2338 35.95L68.5838 42.85L70.7838 44.95L72.9838 42.85L80.2838 36L75.8838 31.35L73.9838 33.15V21.75C73.9838 13.3 67.0838 6.4 58.6338 6.4H52.5338ZM9.98379 35.05L7.78379 37.15L0.383789 44.1L4.73379 48.75L6.78379 46.85V58.25C6.78379 66.7 13.6838 73.6 22.1338 73.6H28.2338V67.2H22.1338C17.14 67.2 13.1838 63.2437 13.1838 58.25V46.85L15.1838 48.75L19.5338 44.05L12.1838 37.15L9.98379 35.05ZM67.5838 52.15V58.25C67.5838 63.2437 63.6275 67.2 58.6338 67.2H47.2338L49.0838 65.25L44.4338 60.85L37.5338 68.2L35.4838 70.4L37.5338 72.6L44.4838 79.95L49.1338 75.6L47.2338 73.6H58.6338C67.0838 73.6 73.9838 66.6937 73.9838 58.25V52.15H67.5838Z" fill="url(#paint0_linear_923_951)" fill-opacity="0.7"/>
<defs>
<linearGradient id="paint0_linear_923_951" x1="40.3338" y1="0" x2="40.3338" y2="79.95" gradientUnits="userSpaceOnUse">
<stop stop-color="white"/>
<stop offset="1" stop-color="#999999" stop-opacity="0.5"/>
</linearGradient>
</defs>
</svg>
