<svg width="25" height="3" viewBox="0 0 25 3" fill="none" xmlns="http://www.w3.org/2000/svg">
<path d="M1.20013 1.87208C4.67787 2.39605 8.20652 2.60817 11.7324 2.50523C15.5836 2.60582 19.4527 2.72219 23.3017 2.70247C23.5559 2.69179 23.7956 2.59497 23.9712 2.43209C24.1468 2.26921 24.2448 2.05278 24.2448 1.82771C24.2448 1.60264 24.1468 1.3862 23.9712 1.22332C23.7956 1.06044 23.5559 0.963624 23.3017 0.952945C19.4527 0.814876 15.5836 0.805014 11.7324 0.789234C8.21888 0.576071 4.68992 0.679824 1.20013 1.0989C1.10658 1.12426 1.0247 1.1755 0.966521 1.24509C0.908346 1.31468 0.876953 1.39895 0.876953 1.48549C0.876953 1.57204 0.908346 1.6563 0.966521 1.72589C1.0247 1.79548 1.10658 1.84672 1.20013 1.87208Z" fill="white"/>
</svg>
