<svg width="220" height="139" viewBox="0 0 220 139" fill="none" xmlns="http://www.w3.org/2000/svg">
<path d="M213.801 9.21994C206.119 -0.73486 191.087 0.641887 179.19 0.714867C151.466 0.878577 36.4383 0.752344 28.3612 1.10935C15.9201 1.67544 3.4276 6.1331 1.40722 17.0859C0.316751 23.0032 1.28234 29.3287 1.5321 35.2914C2.5356 59.4298 3.28488 89.2903 6.64549 110.799C7.55756 116.65 8.75507 122.514 12.8694 127.348C19.3632 134.981 32.2325 137.664 43.0302 137.824C43.1573 138.011 141.96 140.068 177.675 137.701C188.065 137.011 200.718 136.321 207.722 128.455C211.232 124.51 211.531 118.823 212.234 114.034C214.76 96.8505 216.446 67.7712 218.654 36.5872C219.285 27.6818 219.776 16.9577 213.801 9.21994ZM216.533 30.9165C216.46 34.4827 213.456 76.651 213.259 79.2092C212.59 87.8603 210.439 115.076 207.658 123.575C204.908 131.964 192.554 134.029 184.16 134.818C177.049 135.498 169.888 135.889 162.737 136.094C126.031 137.143 46.3016 136.922 43.1082 136.847C30.1742 136.321 15.6636 132.967 10.7888 121.099C8.98567 115.704 7.99077 110.124 7.82962 104.5C5.39669 78.6155 5.77133 70.8028 3.90705 30.9599C3.64391 25.2557 2.32821 18.5495 5.28519 13.218C11.77 1.56104 31.3561 3.19616 43.3558 3.07979C57.4694 2.94369 177.249 2.8648 184.664 2.81155C191.256 2.76421 198.372 2.46835 204.511 4.99896C215.585 9.55722 216.725 21.4036 216.533 30.9086V30.9165Z" fill="white"/>
</svg>
