<svg width="25" height="24" viewBox="0 0 25 24" fill="none" xmlns="http://www.w3.org/2000/svg">
<g clip-path="url(#clip0_991_4912)">
<path d="M17.8437 14.2346C17.5469 14.0996 16.125 13.4246 15.8594 13.3196C15.5937 13.2146 15.4062 13.1846 15.2031 13.4696C15 13.7546 14.4531 14.3696 14.2812 14.5646C14.1094 14.7596 13.9531 14.7746 13.6562 14.5646C12.8035 14.2361 12.016 13.7693 11.3281 13.1846C10.7054 12.6217 10.1782 11.9688 9.76561 11.2496C9.59374 10.9796 9.76561 10.8296 9.89061 10.6796C10.0156 10.5296 10.1719 10.3646 10.3281 10.1996C10.4424 10.0569 10.5369 9.90057 10.6094 9.73457C10.6481 9.65737 10.6683 9.57277 10.6683 9.48707C10.6683 9.40137 10.6481 9.31677 10.6094 9.23957C10.6094 9.10457 9.95311 7.73957 9.70311 7.18457C9.45311 6.62957 9.23436 6.70457 9.06249 6.70457H8.43749C8.13975 6.71571 7.85879 6.83979 7.65624 7.04957C7.3293 7.34907 7.07033 7.71019 6.89556 8.11027C6.72079 8.51035 6.634 8.94078 6.64061 9.37457C6.72053 10.4395 7.12843 11.4577 7.81249 12.2996C9.06775 14.0897 10.7851 15.5368 12.7969 16.4996C13.4844 16.7846 14.0156 16.9496 14.4375 17.0846C15.0299 17.2565 15.6561 17.2924 16.2656 17.1896C16.6704 17.1107 17.0541 16.9529 17.3928 16.7258C17.7314 16.4987 18.0179 16.2073 18.2344 15.8696C18.4145 15.4525 18.4739 14.9964 18.4062 14.5496C18.3281 14.4446 18.1406 14.3696 17.8437 14.2346Z" fill="#4E596E"/>
<path d="M20.7656 4.02038C19.685 2.97321 18.397 2.14437 16.9774 1.58275C15.5578 1.02114 14.0354 0.738116 12.5 0.750382C10.4661 0.7606 8.47056 1.28293 6.71272 2.2652C4.95489 3.24748 3.49627 4.65532 2.48256 6.34811C1.46885 8.0409 0.935515 9.95939 0.935834 11.912C0.936152 13.8646 1.47011 15.7829 2.48438 17.4754L0.921875 23.2504L7.07813 21.7504C8.78005 22.6394 10.6874 23.1037 12.625 23.1004H12.5C14.8092 23.1148 17.0707 22.4687 18.9958 21.2444C20.921 20.02 22.4228 18.273 23.3095 16.226C24.1963 14.1791 24.4279 11.9249 23.9748 9.7511C23.5218 7.57726 22.4045 5.58222 20.7656 4.02038ZM12.5 21.1804C10.7665 21.1817 9.06521 20.7306 7.57812 19.8754L7.23438 19.6804L3.57813 20.5954L4.54688 17.1754L4.32813 16.8304C3.08024 14.9011 2.61346 12.5993 3.01633 10.3615C3.4192 8.12375 4.66369 6.10581 6.5137 4.69056C8.3637 3.27531 10.6905 2.56121 13.0526 2.68376C15.4147 2.80631 17.6478 3.75697 19.3281 5.35538C20.229 6.21322 20.943 7.2346 21.4285 8.35999C21.9141 9.48538 22.1614 10.6923 22.1563 11.9104C22.1521 14.3677 21.1334 16.7233 19.3234 18.4609C17.5134 20.1985 15.0597 21.1764 12.5 21.1804Z" fill="#4E596E"/>
</g>
<defs>
<clipPath id="clip0_991_4912">
<rect width="25" height="24" fill="white"/>
</clipPath>
</defs>
</svg>
